/*
 * song.c
 *
 *  Created on: Nov 15, 2022
 *      Author: bruce
 */

#include "song.h"

// 1 track - 1 note at a time (required - part 3)
unsigned char song0[] ={0x4d,0x54,0x68,0x64,0x00,0x00,0x00,0x06,0x00,0x01,0x00,0x02,0x01,0x00,0x4d,0x54,0x72,0x6b,
                        0x00,0x00,0x00,0x57,0x00,0xff,0x58,0x04,0x04,0x02,0x18,0x08,0x00,0xff,0x59,0x02,0x00,0x00,
                        0x00,0xff,0x51,0x03,0x09,0xa3,0x19,0x00,0xff,0x03,0x1b,0x54,0x77,0x69,0x6e,0x6b,0x6c,0x65,
                        0x20,0x54,0x77,0x69,0x6e,0x6b,0x6c,0x65,0x20,0x4c,0x69,0x74,0x74,0x6c,0x65,0x20,0x53,0x74,
                        0x61,0x72,0x00,0xff,0x01,0x0b,0x54,0x72,0x61,0x64,0x69,0x74,0x69,0x6f,0x6e,0x61,0x6c,0x00,
                        0xff,0x02,0x0c,0x4a,0x69,0x6d,0x20,0x50,0x61,0x74,0x65,0x72,0x73,0x6f,0x6e,0x01,0xff,0x2f,
                        0x00,0x4d,0x54,0x72,0x6b,0x00,0x00,0x01,0x9a,0x00,0xc0,0x00,0x00,0xb0,0x79,0x00,0x00,0xb0,
                        0x40,0x00,0x00,0xb0,0x0a,0x3f,0x00,0xb0,0x07,0x5f,0x00,0x90,0x3c,0x4d,0x00,0xff,0x03,0x05,
                        0x50,0x69,0x61,0x6e,0x6f,0x81,0x74,0x80,0x3c,0x00,0x0c,0x90,0x3c,0x53,0x81,0x74,0x80,0x3c,
                        0x00,0x0c,0x90,0x43,0x5a,0x81,0x74,0x80,0x43,0x00,0x0c,0x90,0x43,0x57,0x81,0x74,0x80,0x43,
                        0x00,0x0c,0x90,0x45,0x56,0x81,0x74,0x80,0x45,0x00,0x0c,0x90,0x45,0x53,0x81,0x74,0x80,0x45,
                        0x00,0x0c,0x90,0x43,0x51,0x83,0x67,0x80,0x43,0x00,0x19,0x90,0x41,0x50,0x81,0x74,0x80,0x41,
                        0x00,0x0c,0x90,0x41,0x55,0x81,0x74,0x80,0x41,0x00,0x0c,0x90,0x40,0x52,0x81,0x74,0x80,0x40,
                        0x00,0x0c,0x90,0x40,0x54,0x81,0x74,0x80,0x40,0x00,0x0c,0x90,0x3e,0x51,0x81,0x74,0x80,0x3e,
                        0x00,0x0c,0x90,0x3e,0x53,0x81,0x74,0x80,0x3e,0x00,0x0c,0x90,0x3c,0x51,0x83,0x67,0x80,0x3c,
                        0x00,0x19,0x90,0x43,0x5e,0x81,0x74,0x80,0x43,0x00,0x0c,0x90,0x43,0x53,0x81,0x74,0x80,0x43,
                        0x00,0x0c,0x90,0x41,0x51,0x81,0x74,0x80,0x41,0x00,0x0c,0x90,0x41,0x54,0x81,0x74,0x80,0x41,
                        0x00,0x0c,0x90,0x40,0x52,0x81,0x74,0x80,0x40,0x00,0x0c,0x90,0x40,0x54,0x81,0x74,0x80,0x40,
                        0x00,0x0c,0x90,0x3e,0x52,0x83,0x67,0x80,0x3e,0x00,0x19,0x90,0x43,0x5a,0x81,0x74,0x80,0x43,
                        0x00,0x0c,0x90,0x43,0x54,0x81,0x74,0x80,0x43,0x00,0x0c,0x90,0x41,0x54,0x81,0x74,0x80,0x41,
                        0x00,0x0c,0x90,0x41,0x55,0x81,0x74,0x80,0x41,0x00,0x0c,0x90,0x40,0x52,0x81,0x74,0x80,0x40,
                        0x00,0x0c,0x90,0x40,0x52,0x81,0x74,0x80,0x40,0x00,0x0c,0x90,0x3e,0x53,0x83,0x67,0x80,0x3e,
                        0x00,0x19,0x90,0x3c,0x52,0x81,0x74,0x80,0x3c,0x00,0x0c,0x90,0x3c,0x53,0x81,0x74,0x80,0x3c,
                        0x00,0x0c,0x90,0x43,0x5a,0x81,0x74,0x80,0x43,0x00,0x0c,0x90,0x43,0x53,0x81,0x74,0x80,0x43,
                        0x00,0x0c,0x90,0x45,0x57,0x81,0x74,0x80,0x45,0x00,0x0c,0x90,0x45,0x51,0x81,0x74,0x80,0x45,
                        0x00,0x0c,0x90,0x43,0x4f,0x83,0x67,0x80,0x43,0x00,0x19,0x90,0x41,0x51,0x81,0x74,0x80,0x41,
                        0x00,0x0c,0x90,0x41,0x53,0x81,0x74,0x80,0x41,0x00,0x0c,0x90,0x40,0x51,0x81,0x74,0x80,0x40,
                        0x00,0x0c,0x90,0x40,0x54,0x81,0x74,0x80,0x40,0x00,0x0c,0x90,0x3e,0x52,0x81,0x74,0x80,0x3e,
                        0x00,0x0c,0x90,0x3e,0x53,0x81,0x74,0x80,0x3e,0x00,0x0c,0x90,0x3c,0x50,0x83,0x67,0x80,0x3c,
                        0x00,0x01,0xff,0x2f,0x00};

//// 1 track - 1 note at a time (required - part 3)
unsigned char song1[] ={0x4d,0x54,0x68,0x64,0x00,0x00,0x00,0x06,0x00,0x01,0x00,0x02,0x00,0xf0,0x4d,0x54,0x72,0x6b,
                        0x00,0x00,0x00,0x37,0x00,0xff,0x51,0x03,0x0a,0x2c,0x2a,0x00,0xff,0x58,0x04,0x04,0x02,0x18,
                        0x08,0x00,0xff,0x59,0x02,0x01,0x00,0x00,0xff,0x58,0x04,0x06,0x03,0x0c,0x08,0x00,0xff,0x03,
                        0x12,0x48,0x61,0x72,0x72,0x79,0x20,0x50,0x6f,0x74,0x74,0x65,0x72,0x20,0x54,0x68,0x65,0x6d,
                        0x65,0x00,0xff,0x2f,0x00,0x4d,0x54,0x72,0x6b,0x00,0x00,0x02,0x16,0x00,0xff,0x03,0x0a,0x75,
                        0x6e,0x62,0x65,0x6e,0x61,0x6e,0x6e,0x74,0x31,0x00,0xc0,0x0b,0x00,0xb0,0x07,0x70,0x84,0x58,
                        0x90,0x47,0x64,0x78,0x80,0x47,0x64,0x00,0x90,0x4c,0x64,0x81,0x34,0x80,0x4c,0x64,0x00,0x90,
                        0x4f,0x64,0x3c,0x80,0x4f,0x64,0x00,0x90,0x4e,0x64,0x78,0x80,0x4e,0x64,0x00,0x90,0x4c,0x64,
                        0x81,0x70,0x80,0x4c,0x64,0x00,0x90,0x53,0x64,0x78,0x80,0x53,0x64,0x00,0x90,0x51,0x64,0x82,
                        0x68,0x80,0x51,0x64,0x00,0x90,0x4e,0x64,0x82,0x68,0x80,0x4e,0x64,0x00,0x90,0x4c,0x64,0x81,
                        0x34,0x80,0x4c,0x64,0x00,0x90,0x4f,0x64,0x3c,0x80,0x4f,0x64,0x00,0x90,0x4e,0x64,0x78,0x80,
                        0x4e,0x64,0x00,0x90,0x4a,0x64,0x81,0x70,0x80,0x4a,0x64,0x00,0x90,0x4d,0x64,0x78,0x80,0x4d,
                        0x64,0x00,0x90,0x47,0x64,0x84,0x58,0x80,0x47,0x64,0x00,0x90,0x47,0x64,0x78,0x80,0x47,0x64,
                        0x00,0x90,0x4c,0x64,0x81,0x34,0x80,0x4c,0x64,0x00,0x90,0x4f,0x64,0x3c,0x80,0x4f,0x64,0x00,
                        0x90,0x4e,0x64,0x78,0x80,0x4e,0x64,0x00,0x90,0x4c,0x64,0x81,0x70,0x80,0x4c,0x64,0x00,0x90,
                        0x53,0x64,0x78,0x80,0x53,0x64,0x00,0x90,0x56,0x64,0x81,0x70,0x80,0x56,0x64,0x00,0x90,0x55,
                        0x64,0x78,0x80,0x55,0x64,0x00,0x90,0x54,0x64,0x81,0x70,0x80,0x54,0x64,0x00,0x90,0x50,0x64,
                        0x78,0x80,0x50,0x64,0x00,0x90,0x54,0x64,0x81,0x34,0x80,0x54,0x64,0x00,0x90,0x53,0x64,0x3c,
                        0x80,0x53,0x64,0x00,0x90,0x52,0x64,0x78,0x80,0x52,0x64,0x00,0x90,0x4e,0x64,0x81,0x70,0x80,
                        0x4e,0x64,0x00,0x90,0x4f,0x64,0x78,0x80,0x4f,0x64,0x00,0x90,0x4c,0x64,0x84,0x58,0x80,0x4c,
                        0x64,0x00,0x90,0x4f,0x64,0x78,0x80,0x4f,0x64,0x00,0x90,0x53,0x64,0x81,0x70,0x80,0x53,0x64,
                        0x00,0x90,0x4f,0x64,0x78,0x80,0x4f,0x64,0x00,0x90,0x53,0x64,0x81,0x70,0x80,0x53,0x64,0x00,
                        0x90,0x4f,0x64,0x78,0x80,0x4f,0x64,0x00,0x90,0x54,0x64,0x81,0x70,0x80,0x54,0x64,0x00,0x90,
                        0x53,0x64,0x78,0x80,0x53,0x64,0x00,0x90,0x52,0x64,0x81,0x70,0x80,0x52,0x64,0x00,0x90,0x4e,
                        0x64,0x78,0x80,0x4e,0x64,0x00,0x90,0x4f,0x64,0x81,0x34,0x80,0x4f,0x64,0x00,0x90,0x53,0x64,
                        0x3c,0x80,0x53,0x64,0x00,0x90,0x52,0x64,0x78,0x80,0x52,0x64,0x00,0x90,0x46,0x64,0x81,0x70,
                        0x80,0x46,0x64,0x00,0x90,0x47,0x64,0x78,0x80,0x47,0x64,0x00,0x90,0x53,0x64,0x84,0x58,0x80,
                        0x53,0x64,0x00,0x90,0x4f,0x64,0x78,0x80,0x4f,0x64,0x00,0x90,0x53,0x64,0x81,0x70,0x80,0x53,
                        0x64,0x00,0x90,0x4f,0x64,0x78,0x80,0x4f,0x64,0x00,0x90,0x53,0x64,0x81,0x70,0x80,0x53,0x64,
                        0x00,0x90,0x4f,0x64,0x78,0x80,0x4f,0x64,0x00,0x90,0x56,0x64,0x81,0x70,0x80,0x56,0x64,0x00,
                        0x90,0x55,0x64,0x78,0x80,0x55,0x64,0x00,0x90,0x54,0x64,0x81,0x70,0x80,0x54,0x64,0x00,0x90,
                        0x50,0x64,0x78,0x80,0x50,0x64,0x00,0x90,0x54,0x64,0x81,0x34,0x80,0x54,0x64,0x00,0x90,0x53,
                        0x64,0x3c,0x80,0x53,0x64,0x00,0x90,0x52,0x64,0x78,0x80,0x52,0x64,0x00,0x90,0x4e,0x64,0x81,
                        0x70,0x80,0x4e,0x64,0x00,0x90,0x4f,0x64,0x78,0x80,0x4f,0x64,0x00,0x90,0x4c,0x64,0x84,0x58,
                        0x80,0x4c,0x64,0x00,0xff,0x2f,0x00};

//// 1 track - 3 notes at a time (10% extra credit - part 3)
unsigned char song2[] ={0x4d,0x54,0x68,0x64,0x00,0x00,0x00,0x06,0x00,0x01,0x00,0x02,0x01,0x00,0x4d,0x54,0x72,0x6b,
                        0x00,0x00,0x00,0x57,0x00,0xff,0x58,0x04,0x04,0x02,0x18,0x08,0x00,0xff,0x59,0x02,0x00,0x00,
                        0x00,0xff,0x51,0x03,0x09,0xa3,0x19,0x00,0xff,0x03,0x1b,0x54,0x77,0x69,0x6e,0x6b,0x6c,0x65,
                        0x20,0x54,0x77,0x69,0x6e,0x6b,0x6c,0x65,0x20,0x4c,0x69,0x74,0x74,0x6c,0x65,0x20,0x53,0x74,
                        0x61,0x72,0x00,0xff,0x01,0x0b,0x54,0x72,0x61,0x64,0x69,0x74,0x69,0x6f,0x6e,0x61,0x6c,0x00,
                        0xff,0x02,0x0c,0x4a,0x69,0x6d,0x20,0x50,0x61,0x74,0x65,0x72,0x73,0x6f,0x6e,0x01,0xff,0x2f,
                        0x00,0x4d,0x54,0x72,0x6b,0x00,0x00,0x03,0x2a,0x00,0xc0,0x00,0x00,0xb0,0x79,0x00,0x00,0xb0,
                        0x40,0x00,0x00,0xb0,0x0a,0x3f,0x00,0xb0,0x07,0x5f,0x00,0x90,0x3c,0x4d,0x00,0x90,0x34,0x3f,
                        0x00,0xb0,0x79,0x00,0x00,0xb0,0x40,0x00,0x00,0xb0,0x0a,0x3f,0x00,0xb0,0x07,0x5f,0x00,0xff,
                        0x03,0x05,0x50,0x69,0x61,0x6e,0x6f,0x00,0x90,0x30,0x40,0x81,0x74,0x80,0x3c,0x00,0x0c,0x90,
                        0x3c,0x53,0x81,0x67,0x80,0x34,0x00,0x00,0x80,0x30,0x00,0x0d,0x80,0x3c,0x00,0x0c,0x90,0x43,
                        0x5a,0x00,0x90,0x3c,0x4d,0x00,0x90,0x30,0x47,0x81,0x74,0x80,0x43,0x00,0x0c,0x90,0x43,0x57,
                        0x81,0x67,0x80,0x3c,0x00,0x00,0x80,0x30,0x00,0x0d,0x80,0x43,0x00,0x0c,0x90,0x45,0x56,0x00,
                        0x90,0x3c,0x49,0x00,0x90,0x29,0x42,0x81,0x74,0x80,0x45,0x00,0x0c,0x90,0x45,0x53,0x81,0x67,
                        0x80,0x3c,0x00,0x00,0x80,0x29,0x00,0x0d,0x80,0x45,0x00,0x0c,0x90,0x43,0x51,0x00,0x90,0x3c,
                        0x4b,0x00,0x90,0x30,0x47,0x83,0x67,0x80,0x43,0x00,0x00,0x80,0x3c,0x00,0x00,0x80,0x30,0x00,
                        0x19,0x90,0x41,0x50,0x00,0x90,0x39,0x46,0x00,0x90,0x29,0x44,0x81,0x74,0x80,0x41,0x00,0x0c,
                        0x90,0x41,0x55,0x81,0x67,0x80,0x39,0x00,0x00,0x80,0x29,0x00,0x0d,0x80,0x41,0x00,0x0c,0x90,
                        0x40,0x52,0x00,0x90,0x37,0x45,0x00,0x90,0x30,0x4c,0x81,0x74,0x80,0x40,0x00,0x0c,0x90,0x40,
                        0x54,0x81,0x67,0x80,0x37,0x00,0x00,0x80,0x30,0x00,0x0d,0x80,0x40,0x00,0x0c,0x90,0x3e,0x51,
                        0x00,0x90,0x37,0x47,0x00,0x90,0x2b,0x45,0x81,0x74,0x80,0x3e,0x00,0x0c,0x90,0x3e,0x53,0x81,
                        0x67,0x80,0x37,0x00,0x00,0x80,0x2b,0x00,0x0d,0x80,0x3e,0x00,0x0c,0x90,0x3c,0x51,0x00,0x90,
                        0x34,0x47,0x00,0x90,0x30,0x4b,0x83,0x67,0x80,0x3c,0x00,0x00,0x80,0x34,0x00,0x00,0x80,0x30,
                        0x00,0x19,0x90,0x43,0x5e,0x00,0x90,0x3c,0x50,0x00,0x90,0x30,0x48,0x81,0x74,0x80,0x43,0x00,
                        0x0c,0x90,0x43,0x53,0x81,0x67,0x80,0x3c,0x00,0x00,0x80,0x30,0x00,0x0d,0x80,0x43,0x00,0x0c,
                        0x90,0x41,0x51,0x00,0x90,0x39,0x47,0x00,0x90,0x29,0x44,0x81,0x74,0x80,0x41,0x00,0x0c,0x90,
                        0x41,0x54,0x81,0x67,0x80,0x39,0x00,0x00,0x80,0x29,0x00,0x0d,0x80,0x41,0x00,0x0c,0x90,0x40,
                        0x52,0x00,0x90,0x37,0x46,0x00,0x90,0x2b,0x49,0x81,0x74,0x80,0x40,0x00,0x0c,0x90,0x40,0x54,
                        0x81,0x67,0x80,0x37,0x00,0x00,0x80,0x2b,0x00,0x0d,0x80,0x40,0x00,0x0c,0x90,0x3e,0x52,0x00,
                        0x90,0x37,0x43,0x00,0x90,0x2b,0x48,0x83,0x67,0x80,0x3e,0x00,0x00,0x80,0x37,0x00,0x00,0x80,
                        0x2b,0x00,0x19,0x90,0x43,0x5a,0x00,0x90,0x3c,0x4c,0x00,0x90,0x30,0x49,0x81,0x74,0x80,0x43,
                        0x00,0x0c,0x90,0x43,0x54,0x81,0x67,0x80,0x3c,0x00,0x00,0x80,0x30,0x00,0x0d,0x80,0x43,0x00,
                        0x0c,0x90,0x41,0x54,0x00,0x90,0x39,0x47,0x00,0x90,0x29,0x44,0x81,0x74,0x80,0x41,0x00,0x0c,
                        0x90,0x41,0x55,0x81,0x67,0x80,0x39,0x00,0x00,0x80,0x29,0x00,0x0d,0x80,0x41,0x00,0x0c,0x90,
                        0x40,0x52,0x00,0x90,0x37,0x46,0x00,0x90,0x2b,0x49,0x81,0x74,0x80,0x40,0x00,0x0c,0x90,0x40,
                        0x52,0x81,0x67,0x80,0x37,0x00,0x00,0x80,0x2b,0x00,0x0d,0x80,0x40,0x00,0x0c,0x90,0x3e,0x53,
                        0x00,0x90,0x37,0x46,0x00,0x90,0x2b,0x45,0x83,0x67,0x80,0x3e,0x00,0x00,0x80,0x37,0x00,0x00,
                        0x80,0x2b,0x00,0x19,0x90,0x3c,0x52,0x00,0x90,0x34,0x45,0x00,0x90,0x30,0x49,0x81,0x74,0x80,
                        0x3c,0x00,0x0c,0x90,0x3c,0x53,0x81,0x67,0x80,0x34,0x00,0x00,0x80,0x30,0x00,0x0d,0x80,0x3c,
                        0x00,0x0c,0x90,0x43,0x5a,0x00,0x90,0x3c,0x50,0x00,0x90,0x30,0x48,0x81,0x74,0x80,0x43,0x00,
                        0x0c,0x90,0x43,0x53,0x81,0x67,0x80,0x3c,0x00,0x00,0x80,0x30,0x00,0x0d,0x80,0x43,0x00,0x0c,
                        0x90,0x45,0x57,0x00,0x90,0x3c,0x45,0x00,0x90,0x29,0x44,0x81,0x74,0x80,0x45,0x00,0x0c,0x90,
                        0x45,0x51,0x81,0x67,0x80,0x3c,0x00,0x00,0x80,0x29,0x00,0x0d,0x80,0x45,0x00,0x0c,0x90,0x43,
                        0x4f,0x00,0x90,0x3c,0x48,0x00,0x90,0x30,0x49,0x83,0x67,0x80,0x43,0x00,0x00,0x80,0x3c,0x00,
                        0x00,0x80,0x30,0x00,0x19,0x90,0x41,0x51,0x00,0x90,0x39,0x45,0x00,0x90,0x29,0x44,0x81,0x74,
                        0x80,0x41,0x00,0x0c,0x90,0x41,0x53,0x81,0x67,0x80,0x39,0x00,0x00,0x80,0x29,0x00,0x0d,0x80,
                        0x41,0x00,0x0c,0x90,0x40,0x51,0x00,0x90,0x37,0x46,0x00,0x90,0x30,0x4b,0x81,0x74,0x80,0x40,
                        0x00,0x0c,0x90,0x40,0x54,0x81,0x67,0x80,0x37,0x00,0x00,0x80,0x30,0x00,0x0d,0x80,0x40,0x00,
                        0x0c,0x90,0x3e,0x52,0x00,0x90,0x37,0x47,0x00,0x90,0x2b,0x45,0x81,0x74,0x80,0x3e,0x00,0x0c,
                        0x90,0x3e,0x53,0x81,0x67,0x80,0x37,0x00,0x00,0x80,0x2b,0x00,0x0d,0x80,0x3e,0x00,0x0c,0x90,
                        0x3c,0x50,0x00,0x90,0x34,0x46,0x00,0x90,0x30,0x4a,0x83,0x67,0x80,0x3c,0x00,0x00,0x80,0x34,
                        0x00,0x00,0x80,0x30,0x00,0x01,0xff,0x2f,0x00};

//// 4 tracks - One note per track (10% extra credit - part 3)

unsigned char song3[] ={0x4d,0x54,0x68,0x64,0x00,0x00,0x00,0x06,0x00,0x01,0x00,0x05,0x01,0x80,0x4d,0x54,0x72,0x6b,
                        0x00,0x00,0x00,0x36,0x00,0xff,0x58,0x04,0x04,0x02,0x60,0x08,0x00,0xff,0x7f,0x03,0x00,0x00,
                        0x41,0x00,0xff,0x7f,0x05,0x00,0x00,0x77,0x0e,0x00,0x00,0xff,0x51,0x03,0x0a,0x67,0x5a,0x00,
                        0xff,0x03,0xf,0x4c,0x65,0x67,0x65,0x6e,0x64,0x20,0x6f,0x66,0x20,0x5a,0x65,0x6c,0x64,0x61,
                        0x00,0xff,0x2f,0x00,0x4d,0x54,0x72,0x6b,0x00,0x00,0x04,0x71,0x00,0xb0,0x00,0x00,0x00,0xc0,
                        0x47,0x00,0xb0,0x07,0x64,0x00,0xff,0x59,0x02,0xfe,0x00,0x00,0x90,0x46,0x64,0x87,0x38,0x80,
                        0x46,0x64,0x08,0x90,0x41,0x64,0x81,0x3c,0x80,0x41,0x64,0x04,0x90,0x41,0x64,0x81,0x3c,0x80,
                        0x41,0x64,0x04,0x90,0x46,0x64,0x81,0x3c,0x80,0x46,0x64,0x04,0x90,0x44,0x64,0x5c,0x80,0x44,
                        0x64,0x04,0x90,0x42,0x64,0x5c,0x80,0x42,0x64,0x04,0x90,0x44,0x64,0x8a,0x40,0x80,0x44,0x64,
                        0x00,0x90,0x46,0x64,0x87,0x38,0x80,0x46,0x64,0x08,0x90,0x42,0x64,0x81,0x3c,0x80,0x42,0x64,
                        0x04,0x90,0x42,0x64,0x81,0x3c,0x80,0x42,0x64,0x04,0x90,0x46,0x64,0x81,0x3c,0x80,0x46,0x64,
                        0x04,0x90,0x45,0x64,0x5c,0x80,0x45,0x64,0x04,0x90,0x43,0x64,0x5c,0x80,0x43,0x64,0x04,0x90,
                        0x45,0x64,0x8a,0x40,0x80,0x45,0x64,0x00,0x90,0x31,0x64,0x82,0x7c,0x80,0x31,0x64,0x89,0x04,
                        0x90,0x31,0x64,0x82,0x7c,0x80,0x31,0x64,0x89,0x04,0x90,0x46,0x64,0x82,0x1c,0x80,0x46,0x64,
                        0x64,0x90,0x41,0x64,0x82,0x78,0x80,0x41,0x64,0x81,0x48,0x90,0x46,0x64,0x81,0x3c,0x80,0x46,
                        0x64,0x04,0x90,0x46,0x64,0x5c,0x80,0x46,0x64,0x04,0x90,0x48,0x64,0x5c,0x80,0x48,0x64,0x04,
                        0x90,0x4a,0x64,0x5c,0x80,0x4a,0x64,0x04,0x90,0x4b,0x64,0x5c,0x80,0x4b,0x64,0x04,0x90,0x4d,
                        0x64,0x82,0x1c,0x80,0x4d,0x64,0x89,0x64,0x90,0x46,0x64,0x82,0x1c,0x80,0x46,0x64,0x64,0x90,
                        0x41,0x64,0x82,0x78,0x80,0x41,0x64,0x81,0x48,0x90,0x46,0x64,0x81,0x3c,0x80,0x46,0x64,0x04,
                        0x90,0x46,0x64,0x5c,0x80,0x46,0x64,0x04,0x90,0x48,0x64,0x5c,0x80,0x48,0x64,0x04,0x90,0x4a,
                        0x64,0x5c,0x80,0x4a,0x64,0x04,0x90,0x4b,0x64,0x5c,0x80,0x4b,0x64,0x04,0x90,0x4d,0x64,0x82,
                        0x1c,0x80,0x4d,0x64,0x89,0x64,0x90,0x46,0x64,0x82,0x7c,0x80,0x46,0x64,0x04,0x90,0x41,0x64,
                        0x84,0x3c,0x80,0x41,0x64,0x04,0x90,0x46,0x64,0x81,0x3c,0x80,0x46,0x64,0x04,0x90,0x46,0x64,
                        0x5c,0x80,0x46,0x64,0x04,0x90,0x48,0x64,0x5c,0x80,0x48,0x64,0x04,0x90,0x4a,0x64,0x5c,0x80,
                        0x4a,0x64,0x04,0x90,0x4b,0x64,0x5c,0x80,0x4b,0x64,0x04,0x90,0x4d,0x64,0x87,0x38,0x80,0x4d,
                        0x64,0x08,0x90,0x4d,0x64,0x81,0x3c,0x80,0x4d,0x64,0x04,0x90,0x4d,0x64,0x7c,0x80,0x4d,0x64,
                        0x04,0x90,0x4e,0x64,0x7c,0x80,0x4e,0x64,0x04,0x90,0x50,0x64,0x7c,0x80,0x50,0x64,0x04,0x90,
                        0x52,0x64,0x87,0x78,0x80,0x52,0x64,0x08,0x90,0x52,0x64,0x7c,0x80,0x52,0x64,0x04,0x90,0x52,
                        0x64,0x7c,0x80,0x52,0x64,0x04,0x90,0x50,0x64,0x7c,0x80,0x50,0x64,0x04,0x90,0x4e,0x64,0x7c,
                        0x80,0x4e,0x64,0x04,0x90,0x50,0x64,0x81,0x7c,0x80,0x50,0x64,0x04,0x90,0x4e,0x64,0x7c,0x80,
                        0x4e,0x64,0x04,0x90,0x4d,0x64,0x85,0x7c,0x80,0x4d,0x64,0x04,0x90,0x4d,0x64,0x82,0x7c,0x80,
                        0x4d,0x64,0x04,0x90,0x4b,0x64,0x81,0x3c,0x80,0x4b,0x64,0x04,0x90,0x4b,0x64,0x5c,0x80,0x4b,
                        0x64,0x04,0x90,0x4d,0x64,0x5c,0x80,0x4d,0x64,0x04,0x90,0x4e,0x64,0x85,0x7c,0x80,0x4e,0x64,
                        0x04,0x90,0x4d,0x64,0x81,0x3c,0x80,0x4d,0x64,0x04,0x90,0x4b,0x64,0x81,0x3c,0x80,0x4b,0x64,
                        0x04,0x90,0x49,0x64,0x81,0x3c,0x80,0x49,0x64,0x04,0x90,0x49,0x64,0x5c,0x80,0x49,0x64,0x04,
                        0x90,0x4b,0x64,0x5c,0x80,0x4b,0x64,0x04,0x90,0x4d,0x64,0x85,0x7c,0x80,0x4d,0x64,0x04,0x90,
                        0x4b,0x64,0x81,0x3c,0x80,0x4b,0x64,0x04,0x90,0x49,0x64,0x81,0x3c,0x80,0x49,0x64,0x04,0x90,
                        0x48,0x64,0x81,0x3c,0x80,0x48,0x64,0x04,0x90,0x48,0x64,0x5c,0x80,0x48,0x64,0x04,0x90,0x4a,
                        0x64,0x5c,0x80,0x4a,0x64,0x04,0x90,0x4c,0x64,0x85,0x7c,0x80,0x4c,0x64,0x04,0x90,0x4f,0x64,
                        0x82,0x7c,0x80,0x4f,0x64,0x04,0x90,0x4d,0x64,0x81,0x3c,0x80,0x4d,0x64,0x04,0x90,0x41,0x64,
                        0x5c,0x80,0x41,0x64,0x04,0x90,0x41,0x64,0x5c,0x80,0x41,0x64,0x04,0x90,0x41,0x64,0x81,0x3c,
                        0x80,0x41,0x64,0x04,0x90,0x41,0x64,0x5c,0x80,0x41,0x64,0x04,0x90,0x41,0x64,0x5c,0x80,0x41,
                        0x64,0x04,0x90,0x41,0x64,0x81,0x3c,0x80,0x41,0x64,0x04,0x90,0x41,0x64,0x5c,0x80,0x41,0x64,
                        0x04,0x90,0x41,0x64,0x5c,0x80,0x41,0x64,0x04,0x90,0x41,0x64,0x81,0x3c,0x80,0x41,0x64,0x04,
                        0x90,0x41,0x64,0x81,0x3c,0x80,0x41,0x64,0x04,0x90,0x46,0x64,0x82,0x7c,0x80,0x46,0x64,0x04,
                        0x90,0x41,0x64,0x84,0x3c,0x80,0x41,0x64,0x04,0x90,0x46,0x64,0x81,0x3c,0x80,0x46,0x64,0x04,
                        0x90,0x46,0x64,0x5c,0x80,0x46,0x64,0x04,0x90,0x48,0x64,0x5c,0x80,0x48,0x64,0x04,0x90,0x4a,
                        0x64,0x5c,0x80,0x4a,0x64,0x04,0x90,0x4b,0x64,0x5c,0x80,0x4b,0x64,0x04,0x90,0x4d,0x64,0x87,
                        0x38,0x80,0x4d,0x64,0x08,0x90,0x4d,0x64,0x81,0x3c,0x80,0x4d,0x64,0x04,0x90,0x4d,0x64,0x7c,
                        0x80,0x4d,0x64,0x04,0x90,0x4e,0x64,0x7c,0x80,0x4e,0x64,0x04,0x90,0x50,0x64,0x7c,0x80,0x50,
                        0x64,0x04,0x90,0x52,0x64,0x88,0x7c,0x80,0x52,0x64,0x04,0x90,0x55,0x64,0x82,0x7c,0x80,0x55,
                        0x64,0x04,0x90,0x54,0x64,0x82,0x7c,0x80,0x54,0x64,0x04,0x90,0x51,0x64,0x85,0x7c,0x80,0x51,
                        0x64,0x04,0x90,0x4d,0x64,0x82,0x7c,0x80,0x4d,0x64,0x04,0x90,0x4e,0x64,0x88,0x7c,0x80,0x4e,
                        0x64,0x04,0x90,0x52,0x64,0x82,0x7c,0x80,0x52,0x64,0x04,0x90,0x51,0x64,0x82,0x7c,0x80,0x51,
                        0x64,0x04,0x90,0x4d,0x64,0x85,0x7c,0x80,0x4d,0x64,0x04,0x90,0x4d,0x64,0x82,0x7c,0x80,0x4d,
                        0x64,0x04,0x90,0x4e,0x64,0x88,0x7c,0x80,0x4e,0x64,0x04,0x90,0x52,0x64,0x82,0x7c,0x80,0x52,
                        0x64,0x04,0x90,0x51,0x64,0x82,0x7c,0x80,0x51,0x64,0x04,0x90,0x4d,0x64,0x85,0x7c,0x80,0x4d,
                        0x64,0x04,0x90,0x4a,0x64,0x82,0x7c,0x80,0x4a,0x64,0x04,0x90,0x4b,0x64,0x88,0x7c,0x80,0x4b,
                        0x64,0x04,0x90,0x4e,0x64,0x82,0x7c,0x80,0x4e,0x64,0x04,0x90,0x4d,0x64,0x82,0x7c,0x80,0x4d,
                        0x64,0x04,0x90,0x49,0x64,0x85,0x7c,0x80,0x49,0x64,0x04,0x90,0x46,0x64,0x82,0x7c,0x80,0x46,
                        0x64,0x04,0x90,0x48,0x64,0x81,0x3c,0x80,0x48,0x64,0x04,0x90,0x48,0x64,0x5c,0x80,0x48,0x64,
                        0x04,0x90,0x4a,0x64,0x5c,0x80,0x4a,0x64,0x04,0x90,0x4c,0x64,0x85,0x7c,0x80,0x4c,0x64,0x04,
                        0x90,0x4f,0x64,0x82,0x7c,0x80,0x4f,0x64,0x04,0x90,0x4d,0x64,0x81,0x3c,0x80,0x4d,0x64,0x04,
                        0x90,0x41,0x64,0x5c,0x80,0x41,0x64,0x04,0x90,0x41,0x64,0x5c,0x80,0x41,0x64,0x04,0x90,0x41,
                        0x64,0x81,0x3c,0x80,0x41,0x64,0x04,0x90,0x41,0x64,0x5c,0x80,0x41,0x64,0x04,0x90,0x41,0x64,
                        0x5c,0x80,0x41,0x64,0x04,0x90,0x41,0x64,0x81,0x3c,0x80,0x41,0x64,0x04,0x90,0x41,0x64,0x5c,
                        0x80,0x41,0x64,0x04,0x90,0x41,0x64,0x5c,0x80,0x41,0x64,0x04,0x90,0x41,0x64,0x81,0x3c,0x80,
                        0x41,0x64,0x04,0x90,0x41,0x64,0x81,0x3c,0x80,0x41,0x64,0x00,0xff,0x2f,0x00,0x4d,0x54,0x72,
                        0x6b,0x00,0x00,0x08,0x13,0x00,0xb1,0x00,0x00,0x00,0xc1,0x47,0x00,0xb1,0x07,0x64,0x00,0xff,
                        0x59,0x02,0xfe,0x00,0x08,0x91,0x46,0x64,0x87,0x38,0x81,0x46,0x64,0x08,0x91,0x41,0x64,0x81,
                        0x3c,0x81,0x41,0x64,0x04,0x91,0x41,0x64,0x81,0x3c,0x81,0x41,0x64,0x04,0x91,0x46,0x64,0x81,
                        0x3c,0x81,0x46,0x64,0x04,0x91,0x44,0x64,0x5c,0x81,0x44,0x64,0x04,0x91,0x42,0x64,0x5c,0x81,
                        0x42,0x64,0x04,0x91,0x44,0x64,0x8a,0x40,0x81,0x44,0x64,0x00,0x91,0x46,0x64,0x87,0x38,0x81,
                        0x46,0x64,0x08,0x91,0x42,0x64,0x81,0x3c,0x81,0x42,0x64,0x04,0x91,0x42,0x64,0x81,0x3c,0x81,
                        0x42,0x64,0x04,0x91,0x46,0x64,0x81,0x3c,0x81,0x46,0x64,0x04,0x91,0x45,0x64,0x5c,0x81,0x45,
                        0x64,0x04,0x91,0x43,0x64,0x5c,0x81,0x43,0x64,0x04,0x91,0x45,0x64,0x8a,0x38,0x91,0x35,0x64,
                        0x08,0x81,0x45,0x64,0x81,0x34,0x81,0x35,0x64,0x04,0x91,0x35,0x64,0x5c,0x81,0x35,0x64,0x04,
                        0x91,0x2e,0x64,0x5c,0x81,0x2e,0x64,0x04,0x91,0x35,0x64,0x81,0x3c,0x81,0x35,0x64,0x04,0x91,
                        0x35,0x64,0x5c,0x81,0x35,0x64,0x04,0x91,0x2e,0x64,0x5c,0x81,0x2e,0x64,0x04,0x91,0x35,0x64,
                        0x81,0x3c,0x81,0x35,0x64,0x04,0x91,0x35,0x64,0x5c,0x81,0x35,0x64,0x04,0x91,0x2e,0x64,0x5c,
                        0x81,0x2e,0x64,0x04,0x91,0x35,0x64,0x5c,0x81,0x35,0x64,0x04,0x91,0x2e,0x64,0x5c,0x81,0x2e,
                        0x64,0x04,0x91,0x35,0x64,0x5c,0x81,0x35,0x64,0x04,0x91,0x2e,0x64,0x5c,0x81,0x2e,0x64,0x04,
                        0x91,0x35,0x64,0x81,0x3c,0x81,0x35,0x64,0x04,0x91,0x35,0x64,0x5c,0x81,0x35,0x64,0x04,0x91,
                        0x2e,0x64,0x5c,0x81,0x2e,0x64,0x04,0x91,0x35,0x64,0x81,0x3c,0x81,0x35,0x64,0x04,0x91,0x35,
                        0x64,0x5c,0x81,0x35,0x64,0x04,0x91,0x2e,0x64,0x5c,0x81,0x2e,0x64,0x04,0x91,0x35,0x64,0x81,
                        0x3c,0x81,0x35,0x64,0x04,0x91,0x35,0x64,0x5c,0x81,0x35,0x64,0x04,0x91,0x2e,0x64,0x5c,0x81,
                        0x2e,0x64,0x04,0x91,0x35,0x64,0x5c,0x81,0x35,0x64,0x04,0x91,0x2e,0x64,0x5c,0x81,0x2e,0x64,
                        0x04,0x91,0x35,0x64,0x5c,0x81,0x35,0x64,0x04,0x91,0x2e,0x64,0x5c,0x81,0x2e,0x64,0x04,0x91,
                        0x35,0x64,0x81,0x3c,0x81,0x35,0x64,0x04,0x91,0x35,0x64,0x5c,0x81,0x35,0x64,0x04,0x91,0x2e,
                        0x64,0x5c,0x81,0x2e,0x64,0x04,0x91,0x35,0x64,0x81,0x3c,0x81,0x35,0x64,0x04,0x91,0x35,0x64,
                        0x5c,0x81,0x35,0x64,0x04,0x91,0x2e,0x64,0x5c,0x81,0x2e,0x64,0x04,0x91,0x35,0x64,0x81,0x3c,
                        0x81,0x35,0x64,0x04,0x91,0x35,0x64,0x5c,0x81,0x35,0x64,0x04,0x91,0x2e,0x64,0x5c,0x81,0x2e,
                        0x64,0x04,0x91,0x35,0x64,0x5c,0x81,0x35,0x64,0x04,0x91,0x2e,0x64,0x5c,0x81,0x2e,0x64,0x04,
                        0x91,0x35,0x64,0x5c,0x81,0x35,0x64,0x04,0x91,0x2e,0x64,0x5c,0x81,0x2e,0x64,0x04,0x91,0x33,
                        0x64,0x81,0x3c,0x81,0x33,0x64,0x04,0x91,0x3a,0x64,0x81,0x3c,0x81,0x3a,0x64,0x04,0x91,0x3a,
                        0x64,0x5c,0x81,0x3a,0x64,0x04,0x91,0x3c,0x64,0x5c,0x81,0x3c,0x64,0x04,0x91,0x3e,0x64,0x5c,
                        0x81,0x3e,0x64,0x04,0x91,0x3f,0x64,0x5c,0x81,0x3f,0x64,0x04,0x91,0x41,0x64,0x81,0x3c,0x81,
                        0x41,0x64,0x04,0x91,0x33,0x64,0x5c,0x81,0x33,0x64,0x04,0x91,0x2c,0x64,0x5c,0x81,0x2c,0x64,
                        0x04,0x91,0x33,0x64,0x5c,0x81,0x33,0x64,0x04,0x91,0x2c,0x64,0x5c,0x81,0x2c,0x64,0x04,0x91,
                        0x33,0x64,0x5c,0x81,0x33,0x64,0x04,0x91,0x2c,0x64,0x5c,0x81,0x2c,0x64,0x04,0x91,0x31,0x64,
                        0x81,0x3c,0x81,0x31,0x64,0x04,0x91,0x31,0x64,0x5c,0x81,0x31,0x64,0x04,0x91,0x2a,0x64,0x5c,
                        0x81,0x2a,0x64,0x04,0x91,0x31,0x64,0x81,0x3c,0x81,0x31,0x64,0x04,0x91,0x31,0x64,0x5c,0x81,
                        0x31,0x64,0x04,0x91,0x2a,0x64,0x5c,0x81,0x2a,0x64,0x04,0x91,0x31,0x64,0x81,0x3c,0x81,0x31,
                        0x64,0x04,0x91,0x31,0x64,0x5c,0x81,0x31,0x64,0x04,0x91,0x2a,0x64,0x5c,0x81,0x2a,0x64,0x04,
                        0x91,0x31,0x64,0x5c,0x81,0x31,0x64,0x04,0x91,0x2a,0x64,0x5c,0x81,0x2a,0x64,0x04,0x91,0x31,
                        0x64,0x5c,0x81,0x31,0x64,0x04,0x91,0x2a,0x64,0x5c,0x81,0x2a,0x64,0x04,0x91,0x30,0x64,0x81,
                        0x3c,0x81,0x30,0x64,0x04,0x91,0x3a,0x64,0x81,0x3c,0x81,0x3a,0x64,0x04,0x91,0x3a,0x64,0x5c,
                        0x81,0x3a,0x64,0x04,0x91,0x3c,0x64,0x5c,0x81,0x3c,0x64,0x04,0x91,0x3e,0x64,0x5c,0x81,0x3e,
                        0x64,0x04,0x91,0x3f,0x64,0x5c,0x81,0x3f,0x64,0x04,0x91,0x41,0x64,0x81,0x3c,0x81,0x41,0x64,
                        0x04,0x91,0x30,0x64,0x5c,0x81,0x30,0x64,0x04,0x91,0x29,0x64,0x5c,0x81,0x29,0x64,0x04,0x91,
                        0x30,0x64,0x5c,0x81,0x30,0x64,0x04,0x91,0x29,0x64,0x5c,0x81,0x29,0x64,0x04,0x91,0x30,0x64,
                        0x5c,0x81,0x30,0x64,0x04,0x91,0x29,0x64,0x5c,0x81,0x29,0x64,0x04,0x91,0x3e,0x64,0x82,0x7c,
                        0x81,0x3e,0x64,0x04,0x91,0x3e,0x64,0x7c,0x81,0x3e,0x64,0x04,0x91,0x3e,0x64,0x7c,0x81,0x3e,
                        0x64,0x04,0x91,0x3c,0x64,0x7c,0x81,0x3c,0x64,0x04,0x91,0x3e,0x64,0x82,0x1c,0x81,0x3e,0x64,
                        0x04,0x91,0x3e,0x64,0x5c,0x81,0x3e,0x64,0x04,0x91,0x3e,0x64,0x5c,0x81,0x3e,0x64,0x04,0x91,
                        0x3f,0x64,0x5c,0x81,0x3f,0x64,0x04,0x91,0x41,0x64,0x5c,0x81,0x41,0x64,0x04,0x91,0x43,0x64,
                        0x5c,0x81,0x43,0x64,0x04,0x91,0x44,0x64,0x82,0x1c,0x81,0x44,0x64,0x04,0x91,0x46,0x64,0x5c,
                        0x81,0x46,0x64,0x04,0x91,0x46,0x64,0x5c,0x81,0x46,0x64,0x04,0x91,0x48,0x64,0x5c,0x81,0x48,
                        0x64,0x04,0x91,0x4a,0x64,0x5c,0x81,0x4a,0x64,0x04,0x91,0x4b,0x64,0x5c,0x81,0x4b,0x64,0x04,
                        0x91,0x4d,0x64,0x82,0x7c,0x81,0x4d,0x64,0x04,0x91,0x44,0x64,0x7c,0x81,0x44,0x64,0x04,0x91,
                        0x46,0x64,0x7c,0x81,0x46,0x64,0x04,0x91,0x48,0x64,0x7c,0x81,0x48,0x64,0x04,0x91,0x42,0x64,
                        0x82,0x1c,0x81,0x42,0x64,0x04,0x91,0x42,0x64,0x5c,0x81,0x42,0x64,0x04,0x91,0x42,0x64,0x5c,
                        0x81,0x42,0x64,0x04,0x91,0x44,0x64,0x5c,0x81,0x44,0x64,0x04,0x91,0x46,0x64,0x5c,0x81,0x46,
                        0x64,0x04,0x91,0x48,0x64,0x5c,0x81,0x48,0x64,0x04,0x91,0x49,0x64,0x81,0x7c,0x81,0x49,0x64,
                        0x04,0x91,0x49,0x64,0x7c,0x81,0x49,0x64,0x04,0x91,0x49,0x64,0x7c,0x81,0x49,0x64,0x04,0x91,
                        0x48,0x64,0x7c,0x81,0x48,0x64,0x04,0x91,0x46,0x64,0x7c,0x81,0x46,0x64,0x04,0x91,0x49,0x64,
                        0x81,0x7c,0x81,0x49,0x64,0x04,0x91,0x46,0x64,0x7c,0x81,0x46,0x64,0x04,0x91,0x44,0x64,0x7c,
                        0x81,0x44,0x64,0x04,0x91,0x44,0x64,0x7c,0x81,0x44,0x64,0x04,0x91,0x42,0x64,0x7c,0x81,0x42,
                        0x64,0x04,0x91,0x44,0x64,0x81,0x7c,0x81,0x44,0x63,0x04,0x91,0x44,0x64,0x7c,0x81,0x44,0x64,
                        0x04,0x91,0x44,0x64,0x7c,0x81,0x44,0x64,0x04,0x91,0x42,0x64,0x7c,0x81,0x42,0x64,0x04,0x91,
                        0x44,0x64,0x7c,0x81,0x44,0x64,0x04,0x91,0x42,0x64,0x81,0x3c,0x81,0x42,0x64,0x04,0x91,0x42,
                        0x64,0x5c,0x81,0x42,0x64,0x04,0x91,0x41,0x64,0x5c,0x81,0x41,0x64,0x04,0x91,0x42,0x64,0x81,
                        0x3c,0x81,0x42,0x64,0x04,0x91,0x42,0x64,0x5c,0x81,0x42,0x64,0x04,0x91,0x44,0x64,0x5c,0x81,
                        0x44,0x64,0x04,0x91,0x46,0x64,0x82,0x7c,0x81,0x46,0x64,0x04,0x91,0x44,0x64,0x81,0x3c,0x81,
                        0x44,0x64,0x04,0x91,0x42,0x64,0x81,0x3c,0x81,0x42,0x64,0x04,0x91,0x41,0x64,0x81,0x3c,0x81,
                        0x41,0x64,0x04,0x91,0x41,0x64,0x5c,0x81,0x41,0x64,0x04,0x91,0x3f,0x64,0x5c,0x81,0x3f,0x64,
                        0x04,0x91,0x41,0x64,0x81,0x3c,0x81,0x41,0x64,0x04,0x91,0x41,0x64,0x5c,0x81,0x41,0x64,0x04,
                        0x91,0x42,0x64,0x5c,0x81,0x42,0x64,0x04,0x91,0x44,0x64,0x82,0x7c,0x81,0x44,0x64,0x04,0x91,
                        0x42,0x64,0x81,0x3c,0x81,0x42,0x64,0x04,0x91,0x41,0x64,0x81,0x3c,0x81,0x41,0x64,0x04,0x91,
                        0x40,0x64,0x82,0x7c,0x81,0x40,0x64,0x04,0x91,0x40,0x64,0x81,0x3c,0x81,0x40,0x64,0x04,0x91,
                        0x40,0x64,0x5c,0x81,0x40,0x64,0x04,0x91,0x41,0x64,0x5c,0x81,0x41,0x64,0x04,0x91,0x43,0x64,
                        0x81,0x3c,0x81,0x43,0x64,0x04,0x91,0x43,0x64,0x5c,0x81,0x43,0x64,0x04,0x91,0x45,0x64,0x5c,
                        0x81,0x45,0x64,0x04,0x91,0x46,0x64,0x81,0x3c,0x81,0x46,0x64,0x04,0x91,0x48,0x64,0x81,0x3c,
                        0x81,0x48,0x64,0x04,0x91,0x39,0x64,0x81,0x3c,0x81,0x39,0x64,0x04,0x91,0x39,0x64,0x5c,0x81,
                        0x39,0x64,0x04,0x91,0x39,0x64,0x5c,0x81,0x39,0x64,0x04,0x91,0x38,0x64,0x81,0x3c,0x81,0x38,
                        0x64,0x04,0x91,0x38,0x64,0x5c,0x81,0x38,0x64,0x04,0x91,0x38,0x64,0x5c,0x81,0x38,0x64,0x04,
                        0x91,0x37,0x64,0x81,0x3c,0x81,0x37,0x64,0x04,0x91,0x37,0x64,0x5c,0x81,0x37,0x64,0x04,0x91,
                        0x37,0x64,0x5c,0x81,0x37,0x64,0x04,0x91,0x36,0x64,0x81,0x3c,0x81,0x36,0x64,0x04,0x91,0x36,
                        0x64,0x81,0x3c,0x81,0x36,0x64,0x04,0x91,0x3e,0x64,0x82,0x7c,0x81,0x3e,0x64,0x04,0x91,0x3e,
                        0x64,0x7c,0x81,0x3e,0x64,0x04,0x91,0x3e,0x64,0x7c,0x81,0x3e,0x64,0x04,0x91,0x3c,0x64,0x7c,
                        0x81,0x3c,0x64,0x04,0x91,0x3e,0x64,0x82,0x1c,0x81,0x3e,0x64,0x04,0x91,0x3e,0x64,0x5c,0x81,
                        0x3e,0x64,0x04,0x91,0x3e,0x64,0x5c,0x81,0x3e,0x64,0x04,0x91,0x3f,0x64,0x5c,0x81,0x3f,0x64,
                        0x04,0x91,0x41,0x64,0x5c,0x81,0x41,0x64,0x04,0x91,0x43,0x64,0x5c,0x81,0x43,0x64,0x04,0x91,
                        0x44,0x64,0x82,0x1c,0x81,0x44,0x64,0x04,0x91,0x46,0x64,0x5c,0x81,0x46,0x64,0x04,0x91,0x46,
                        0x64,0x5c,0x81,0x46,0x64,0x04,0x91,0x48,0x64,0x5c,0x81,0x48,0x64,0x04,0x91,0x4a,0x64,0x5c,
                        0x81,0x4a,0x64,0x04,0x91,0x4b,0x64,0x5c,0x81,0x4b,0x64,0x04,0x91,0x4d,0x64,0x82,0x7c,0x81,
                        0x4d,0x64,0x04,0x91,0x44,0x64,0x7c,0x81,0x44,0x64,0x04,0x91,0x46,0x64,0x7c,0x81,0x46,0x64,
                        0x04,0x91,0x48,0x64,0x7c,0x81,0x48,0x64,0x04,0x91,0x49,0x64,0x88,0x7c,0x81,0x49,0x64,0x04,
                        0x91,0x4c,0x64,0x82,0x7c,0x81,0x4c,0x64,0x04,0x91,0x4b,0x64,0x82,0x7c,0x81,0x4b,0x64,0x04,
                        0x91,0x48,0x64,0x85,0x7c,0x81,0x48,0x64,0x04,0x91,0x45,0x64,0x82,0x7c,0x81,0x45,0x64,0x04,
                        0x91,0x28,0x64,0x7c,0x81,0x28,0x64,0x04,0x91,0x2e,0x64,0x7c,0x81,0x2e,0x64,0x04,0x91,0x31,
                        0x64,0x7c,0x81,0x31,0x64,0x04,0x91,0x34,0x64,0x7c,0x81,0x34,0x64,0x04,0x91,0x3a,0x64,0x7c,
                        0x81,0x3a,0x64,0x04,0x91,0x3d,0x64,0x7c,0x81,0x3d,0x64,0x04,0x91,0x40,0x64,0x85,0x7c,0x81,
                        0x40,0x64,0x04,0x91,0x41,0x64,0x82,0x7c,0x81,0x41,0x64,0x04,0x91,0x35,0x64,0x7c,0x81,0x35,
                        0x64,0x04,0x91,0x35,0x64,0x7c,0x81,0x35,0x64,0x04,0x91,0x35,0x64,0x7c,0x81,0x35,0x64,0x04,
                        0x91,0x35,0x64,0x85,0x7c,0x81,0x35,0x64,0x04,0x91,0x28,0x64,0x7c,0x81,0x28,0x64,0x04,0x91,
                        0x2e,0x64,0x7c,0x81,0x2e,0x64,0x04,0x91,0x31,0x64,0x7c,0x81,0x31,0x64,0x04,0x91,0x34,0x64,
                        0x7c,0x81,0x34,0x64,0x04,0x91,0x3a,0x64,0x7c,0x81,0x3a,0x64,0x04,0x91,0x3d,0x64,0x7c,0x81,
                        0x3d,0x64,0x04,0x91,0x40,0x64,0x85,0x7c,0x81,0x40,0x64,0x04,0x91,0x41,0x64,0x82,0x7c,0x81,
                        0x41,0x64,0x04,0x91,0x35,0x64,0x7c,0x81,0x35,0x64,0x04,0x91,0x35,0x64,0x7c,0x81,0x35,0x64,
                        0x04,0x91,0x35,0x64,0x7c,0x81,0x35,0x64,0x04,0x91,0x35,0x64,0x85,0x7c,0x81,0x35,0x64,0x04,
                        0x91,0x42,0x64,0x88,0x7c,0x81,0x42,0x64,0x04,0x91,0x47,0x64,0x82,0x7c,0x81,0x47,0x64,0x04,
                        0x91,0x46,0x64,0x82,0x7c,0x81,0x46,0x64,0x04,0x91,0x41,0x64,0x85,0x7c,0x81,0x41,0x64,0x04,
                        0x91,0x3d,0x64,0x82,0x7c,0x81,0x3d,0x64,0x04,0x91,0x40,0x64,0x82,0x7c,0x81,0x40,0x64,0x04,
                        0x91,0x40,0x64,0x81,0x3c,0x81,0x40,0x64,0x04,0x91,0x40,0x64,0x5c,0x81,0x40,0x64,0x04,0x91,
                        0x41,0x64,0x5c,0x81,0x41,0x64,0x04,0x91,0x43,0x64,0x81,0x3c,0x81,0x43,0x64,0x04,0x91,0x43,
                        0x64,0x5c,0x81,0x43,0x64,0x04,0x91,0x45,0x64,0x5c,0x81,0x45,0x64,0x04,0x91,0x46,0x64,0x81,
                        0x3c,0x81,0x46,0x64,0x04,0x91,0x48,0x64,0x81,0x3c,0x81,0x48,0x64,0x04,0x91,0x39,0x64,0x81,
                        0x3c,0x81,0x39,0x64,0x04,0x91,0x39,0x64,0x5c,0x81,0x39,0x64,0x04,0x91,0x39,0x64,0x5c,0x81,
                        0x39,0x64,0x04,0x91,0x38,0x64,0x81,0x3c,0x81,0x38,0x64,0x04,0x91,0x38,0x64,0x5c,0x81,0x38,
                        0x64,0x04,0x91,0x38,0x64,0x5c,0x81,0x38,0x64,0x04,0x91,0x37,0x64,0x81,0x3c,0x81,0x37,0x64,
                        0x04,0x91,0x37,0x64,0x5c,0x81,0x37,0x64,0x04,0x91,0x37,0x64,0x5c,0x81,0x37,0x64,0x04,0x91,
                        0x36,0x64,0x81,0x3c,0x81,0x36,0x64,0x04,0x91,0x36,0x64,0x81,0x3c,0x81,0x36,0x64,0x00,0xff,
                        0x2f,0x00,0x4d,0x54,0x72,0x6b,0x00,0x00,0x0a,0xa9,0x00,0xb2,0x00,0x00,0x00,0xc2,0x18,0x00,
                        0xb2,0x07,0x64,0x00,0xff,0x59,0x02,0xfe,0x00,0x00,0x92,0x2e,0x64,0x82,0x7c,0x82,0x2e,0x64,
                        0x04,0x92,0x35,0x64,0x82,0x7c,0x82,0x35,0x64,0x04,0x92,0x3a,0x64,0x85,0x7c,0x82,0x3a,0x64,
                        0x04,0x92,0x2c,0x64,0x82,0x7c,0x82,0x2c,0x64,0x04,0x92,0x33,0x64,0x82,0x7c,0x82,0x33,0x64,
                        0x04,0x92,0x38,0x64,0x85,0x7c,0x82,0x38,0x64,0x04,0x92,0x2a,0x64,0x82,0x7c,0x82,0x2a,0x64,
                        0x04,0x92,0x31,0x64,0x82,0x7c,0x82,0x31,0x64,0x04,0x92,0x36,0x64,0x85,0x7c,0x82,0x36,0x64,
                        0x04,0x92,0x29,0x64,0x82,0x7c,0x82,0x29,0x64,0x04,0x92,0x30,0x64,0x82,0x7c,0x82,0x30,0x64,
                        0x04,0x92,0x35,0x64,0x85,0x7c,0x82,0x35,0x64,0x04,0x92,0x2e,0x64,0x81,0x3c,0x82,0x2e,0x64,
                        0x04,0x92,0x2e,0x64,0x5c,0x82,0x2e,0x64,0x04,0x92,0x2e,0x64,0x5c,0x82,0x2e,0x64,0x04,0x92,
                        0x2e,0x64,0x81,0x3c,0x82,0x2e,0x64,0x04,0x92,0x2e,0x64,0x5c,0x82,0x2e,0x64,0x04,0x92,0x2e,
                        0x64,0x5c,0x82,0x2e,0x64,0x04,0x92,0x2e,0x64,0x81,0x3c,0x82,0x2e,0x64,0x04,0x92,0x2e,0x64,
                        0x5c,0x82,0x2e,0x64,0x04,0x92,0x2e,0x64,0x5c,0x82,0x2e,0x64,0x04,0x92,0x2e,0x64,0x81,0x3c,
                        0x82,0x2e,0x64,0x04,0x92,0x2e,0x64,0x5c,0x82,0x2e,0x64,0x04,0x92,0x2e,0x64,0x5c,0x82,0x2e,
                        0x64,0x04,0x92,0x2e,0x64,0x81,0x3c,0x82,0x2e,0x64,0x04,0x92,0x2e,0x64,0x5c,0x82,0x2e,0x64,
                        0x04,0x92,0x2e,0x64,0x5c,0x82,0x2e,0x64,0x04,0x92,0x2e,0x64,0x81,0x3c,0x82,0x2e,0x64,0x04,
                        0x92,0x2e,0x64,0x5c,0x82,0x2e,0x64,0x04,0x92,0x2e,0x64,0x5c,0x82,0x2e,0x64,0x04,0x92,0x2e,
                        0x64,0x81,0x3c,0x82,0x2e,0x64,0x04,0x92,0x2e,0x64,0x5c,0x82,0x2e,0x64,0x04,0x92,0x2e,0x64,
                        0x5c,0x82,0x2e,0x64,0x04,0x92,0x2e,0x64,0x81,0x3c,0x82,0x2e,0x64,0x04,0x92,0x2e,0x64,0x5c,
                        0x82,0x2e,0x64,0x04,0x92,0x2e,0x64,0x5c,0x82,0x2e,0x64,0x04,0x92,0x2e,0x64,0x81,0x3c,0x82,
                        0x2e,0x64,0x04,0x92,0x2e,0x64,0x5c,0x82,0x2e,0x64,0x04,0x92,0x2e,0x64,0x5c,0x82,0x2e,0x64,
                        0x04,0x92,0x2e,0x64,0x81,0x3c,0x82,0x2e,0x64,0x04,0x92,0x2e,0x64,0x5c,0x82,0x2e,0x64,0x04,
                        0x92,0x2e,0x64,0x5c,0x82,0x2e,0x64,0x04,0x92,0x2e,0x64,0x81,0x3c,0x82,0x2e,0x64,0x04,0x92,
                        0x2e,0x64,0x5c,0x82,0x2e,0x64,0x04,0x92,0x2e,0x64,0x5c,0x82,0x2e,0x64,0x04,0x92,0x2e,0x64,
                        0x81,0x3c,0x82,0x2e,0x64,0x04,0x92,0x2e,0x64,0x5c,0x82,0x2e,0x64,0x04,0x92,0x2e,0x64,0x5c,
                        0x82,0x2e,0x64,0x04,0x92,0x2c,0x64,0x81,0x3c,0x82,0x2c,0x64,0x04,0x92,0x2c,0x64,0x5c,0x82,
                        0x2c,0x64,0x04,0x92,0x2c,0x64,0x5c,0x82,0x2c,0x64,0x04,0x92,0x2c,0x64,0x81,0x3c,0x82,0x2c,
                        0x64,0x04,0x92,0x2c,0x64,0x5c,0x82,0x2c,0x64,0x04,0x92,0x2c,0x64,0x5c,0x82,0x2c,0x64,0x04,
                        0x92,0x2c,0x64,0x81,0x3c,0x82,0x2c,0x64,0x04,0x92,0x2c,0x64,0x5c,0x82,0x2c,0x64,0x04,0x92,
                        0x2c,0x64,0x5c,0x82,0x2c,0x64,0x04,0x92,0x2c,0x64,0x81,0x3c,0x82,0x2c,0x64,0x04,0x92,0x2c,
                        0x64,0x5c,0x82,0x2c,0x64,0x04,0x92,0x2c,0x64,0x5c,0x82,0x2c,0x64,0x04,0x92,0x2a,0x64,0x81,
                        0x3c,0x82,0x2a,0x64,0x04,0x92,0x2a,0x64,0x5c,0x82,0x2a,0x64,0x04,0x92,0x2a,0x64,0x5c,0x82,
                        0x2a,0x64,0x04,0x92,0x2a,0x64,0x81,0x3c,0x82,0x2a,0x64,0x04,0x92,0x2a,0x64,0x5c,0x82,0x2a,
                        0x64,0x04,0x92,0x2a,0x64,0x5c,0x82,0x2a,0x64,0x04,0x92,0x2a,0x64,0x81,0x3c,0x82,0x2a,0x64,
                        0x04,0x92,0x2a,0x64,0x5c,0x82,0x2a,0x64,0x04,0x92,0x2a,0x64,0x5c,0x82,0x2a,0x64,0x04,0x92,
                        0x2a,0x64,0x81,0x3c,0x82,0x2a,0x64,0x04,0x92,0x2a,0x64,0x5c,0x82,0x2a,0x64,0x04,0x92,0x2a,
                        0x64,0x5c,0x82,0x2a,0x64,0x04,0x92,0x29,0x64,0x81,0x3c,0x82,0x29,0x64,0x04,0x92,0x29,0x64,
                        0x5c,0x82,0x29,0x64,0x04,0x92,0x29,0x64,0x5c,0x82,0x29,0x64,0x04,0x92,0x29,0x64,0x81,0x3c,
                        0x82,0x29,0x64,0x04,0x92,0x29,0x64,0x5c,0x82,0x29,0x64,0x04,0x92,0x29,0x64,0x5c,0x82,0x29,
                        0x64,0x04,0x92,0x29,0x64,0x81,0x3c,0x82,0x29,0x64,0x04,0x92,0x29,0x64,0x5c,0x82,0x29,0x64,
                        0x04,0x92,0x29,0x64,0x5c,0x82,0x29,0x64,0x04,0x92,0x29,0x64,0x81,0x3c,0x82,0x29,0x64,0x04,
                        0x92,0x29,0x64,0x5c,0x82,0x29,0x64,0x04,0x92,0x29,0x64,0x5c,0x82,0x29,0x64,0x04,0x92,0x2e,
                        0x64,0x81,0x3c,0x82,0x2e,0x64,0x04,0x92,0x2e,0x64,0x5c,0x82,0x2e,0x64,0x04,0x92,0x2e,0x64,
                        0x5c,0x82,0x2e,0x64,0x04,0x92,0x2e,0x64,0x81,0x3c,0x82,0x2e,0x64,0x04,0x92,0x2e,0x64,0x5c,
                        0x82,0x2e,0x64,0x04,0x92,0x2e,0x64,0x5c,0x82,0x2e,0x64,0x04,0x92,0x2e,0x64,0x81,0x3c,0x82,
                        0x2e,0x64,0x04,0x92,0x2e,0x64,0x5c,0x82,0x2e,0x64,0x04,0x92,0x2e,0x64,0x5c,0x82,0x2e,0x64,
                        0x04,0x92,0x2e,0x64,0x81,0x3c,0x82,0x2e,0x64,0x04,0x92,0x2e,0x64,0x5c,0x82,0x2e,0x64,0x04,
                        0x92,0x2e,0x64,0x5c,0x82,0x2e,0x64,0x04,0x92,0x2c,0x64,0x81,0x3c,0x82,0x2c,0x64,0x04,0x92,
                        0x2c,0x64,0x5c,0x82,0x2c,0x64,0x04,0x92,0x2c,0x64,0x5c,0x82,0x2c,0x64,0x04,0x92,0x2c,0x64,
                        0x81,0x3c,0x82,0x2c,0x64,0x04,0x92,0x2c,0x64,0x5c,0x82,0x2c,0x64,0x04,0x92,0x2c,0x64,0x5c,
                        0x82,0x2c,0x64,0x04,0x92,0x2c,0x64,0x81,0x3c,0x82,0x2c,0x64,0x04,0x92,0x2c,0x64,0x5c,0x82,
                        0x2c,0x64,0x04,0x92,0x2c,0x64,0x5c,0x82,0x2c,0x64,0x04,0x92,0x2c,0x64,0x81,0x3c,0x82,0x2c,
                        0x64,0x04,0x92,0x2c,0x64,0x5c,0x82,0x2c,0x64,0x04,0x92,0x2c,0x64,0x5c,0x82,0x2c,0x64,0x04,
                        0x92,0x2a,0x64,0x81,0x3c,0x82,0x2a,0x64,0x04,0x92,0x2a,0x64,0x5c,0x82,0x2a,0x64,0x04,0x92,
                        0x2a,0x64,0x5c,0x82,0x2a,0x64,0x04,0x92,0x2a,0x64,0x81,0x3c,0x82,0x2a,0x64,0x04,0x92,0x2a,
                        0x64,0x5c,0x82,0x2a,0x64,0x04,0x92,0x2a,0x64,0x5c,0x82,0x2a,0x64,0x04,0x92,0x2a,0x64,0x81,
                        0x3c,0x82,0x2a,0x64,0x04,0x92,0x2a,0x64,0x5c,0x82,0x2a,0x64,0x04,0x92,0x2a,0x64,0x5c,0x82,
                        0x2a,0x64,0x04,0x92,0x2a,0x64,0x81,0x3c,0x82,0x2a,0x64,0x04,0x92,0x2a,0x64,0x5c,0x82,0x2a,
                        0x64,0x04,0x92,0x2a,0x64,0x5c,0x82,0x2a,0x64,0x04,0x92,0x31,0x64,0x81,0x3c,0x82,0x31,0x64,
                        0x04,0x92,0x31,0x64,0x5c,0x82,0x31,0x64,0x04,0x92,0x31,0x64,0x5c,0x82,0x31,0x64,0x04,0x92,
                        0x31,0x64,0x81,0x3c,0x82,0x31,0x64,0x04,0x92,0x31,0x64,0x5c,0x82,0x31,0x64,0x04,0x92,0x31,
                        0x64,0x5c,0x82,0x31,0x64,0x04,0x92,0x31,0x64,0x81,0x3c,0x82,0x31,0x64,0x04,0x92,0x31,0x64,
                        0x5c,0x82,0x31,0x64,0x04,0x92,0x31,0x64,0x5c,0x82,0x31,0x64,0x04,0x92,0x31,0x64,0x81,0x3c,
                        0x82,0x31,0x64,0x04,0x92,0x31,0x64,0x5c,0x82,0x31,0x64,0x04,0x92,0x31,0x64,0x5c,0x82,0x31,
                        0x64,0x04,0x92,0x2f,0x64,0x81,0x3c,0x82,0x2f,0x64,0x04,0x92,0x2f,0x64,0x5c,0x82,0x2f,0x64,
                        0x04,0x92,0x2f,0x64,0x5c,0x82,0x2f,0x64,0x04,0x92,0x2f,0x64,0x81,0x3c,0x82,0x2f,0x64,0x04,
                        0x92,0x2f,0x64,0x5c,0x82,0x2f,0x64,0x04,0x92,0x2f,0x64,0x5c,0x82,0x2f,0x64,0x04,0x92,0x2f,
                        0x64,0x81,0x3c,0x82,0x2f,0x64,0x04,0x92,0x2f,0x64,0x5c,0x82,0x2f,0x64,0x04,0x92,0x2f,0x64,
                        0x5c,0x82,0x2f,0x64,0x04,0x92,0x2f,0x64,0x81,0x3c,0x82,0x2f,0x64,0x04,0x92,0x2f,0x64,0x5c,
                        0x82,0x2f,0x64,0x04,0x92,0x2f,0x64,0x5c,0x82,0x2f,0x64,0x04,0x92,0x2e,0x64,0x81,0x3c,0x82,
                        0x2e,0x64,0x04,0x92,0x2e,0x64,0x5c,0x82,0x2e,0x64,0x04,0x92,0x2e,0x64,0x5c,0x82,0x2e,0x64,
                        0x04,0x92,0x2e,0x64,0x81,0x3c,0x82,0x2e,0x64,0x04,0x92,0x2e,0x64,0x5c,0x82,0x2e,0x64,0x04,
                        0x92,0x2e,0x64,0x5c,0x82,0x2e,0x64,0x04,0x92,0x2e,0x64,0x81,0x3c,0x82,0x2e,0x64,0x04,0x92,
                        0x2e,0x64,0x5c,0x82,0x2e,0x64,0x04,0x92,0x2e,0x64,0x5c,0x82,0x2e,0x64,0x04,0x92,0x2e,0x64,
                        0x81,0x3c,0x82,0x2e,0x64,0x04,0x92,0x2e,0x64,0x5c,0x82,0x2e,0x64,0x04,0x92,0x2e,0x64,0x5c,
                        0x82,0x2e,0x64,0x04,0x92,0x30,0x64,0x81,0x3c,0x82,0x30,0x64,0x04,0x92,0x30,0x64,0x5c,0x82,
                        0x30,0x64,0x04,0x92,0x30,0x64,0x5c,0x82,0x30,0x64,0x04,0x92,0x30,0x64,0x81,0x3c,0x82,0x30,
                        0x64,0x04,0x92,0x30,0x64,0x5c,0x82,0x30,0x64,0x04,0x92,0x30,0x64,0x5c,0x82,0x30,0x64,0x04,
                        0x92,0x30,0x64,0x81,0x3c,0x82,0x30,0x64,0x04,0x92,0x30,0x64,0x5c,0x82,0x30,0x64,0x04,0x92,
                        0x30,0x64,0x5c,0x82,0x30,0x64,0x04,0x92,0x30,0x64,0x81,0x3c,0x82,0x30,0x64,0x04,0x92,0x30,
                        0x64,0x5c,0x82,0x30,0x64,0x04,0x92,0x30,0x64,0x5c,0x82,0x30,0x64,0x04,0x92,0x35,0x64,0x81,
                        0x3c,0x82,0x35,0x64,0x04,0x92,0x29,0x64,0x5c,0x82,0x29,0x64,0x04,0x92,0x29,0x64,0x5c,0x82,
                        0x29,0x64,0x04,0x92,0x29,0x64,0x81,0x3c,0x82,0x29,0x64,0x04,0x92,0x29,0x64,0x5c,0x82,0x29,
                        0x64,0x04,0x92,0x29,0x64,0x5c,0x82,0x29,0x64,0x04,0x92,0x29,0x64,0x81,0x3c,0x82,0x29,0x64,
                        0x04,0x92,0x29,0x64,0x5c,0x82,0x29,0x64,0x04,0x92,0x29,0x64,0x5c,0x82,0x29,0x64,0x04,0x92,
                        0x29,0x64,0x81,0x3c,0x82,0x29,0x64,0x04,0x92,0x2b,0x64,0x5c,0x82,0x2b,0x64,0x04,0x92,0x2d,
                        0x64,0x5c,0x82,0x2d,0x64,0x04,0x92,0x2e,0x64,0x81,0x3c,0x82,0x2e,0x64,0x04,0x92,0x2e,0x64,
                        0x5c,0x82,0x2e,0x64,0x04,0x92,0x2e,0x64,0x5c,0x82,0x2e,0x64,0x04,0x92,0x2e,0x64,0x81,0x3c,
                        0x82,0x2e,0x64,0x04,0x92,0x2e,0x64,0x5c,0x82,0x2e,0x64,0x04,0x92,0x2e,0x64,0x5c,0x82,0x2e,
                        0x64,0x04,0x92,0x2e,0x64,0x81,0x3c,0x82,0x2e,0x64,0x04,0x92,0x2e,0x64,0x5c,0x82,0x2e,0x64,
                        0x04,0x92,0x2e,0x64,0x5c,0x82,0x2e,0x64,0x04,0x92,0x2e,0x64,0x81,0x3c,0x82,0x2e,0x64,0x04,
                        0x92,0x2e,0x64,0x5c,0x82,0x2e,0x64,0x04,0x92,0x2e,0x64,0x5c,0x82,0x2e,0x64,0x04,0x92,0x2c,
                        0x64,0x81,0x3c,0x82,0x2c,0x64,0x04,0x92,0x2c,0x64,0x5c,0x82,0x2c,0x64,0x04,0x92,0x2c,0x64,
                        0x5c,0x82,0x2c,0x64,0x04,0x92,0x2c,0x64,0x81,0x3c,0x82,0x2c,0x64,0x04,0x92,0x2c,0x64,0x5c,
                        0x82,0x2c,0x64,0x04,0x92,0x2c,0x64,0x5c,0x82,0x2c,0x64,0x04,0x92,0x2c,0x64,0x81,0x3c,0x82,
                        0x2c,0x64,0x04,0x92,0x2c,0x64,0x5c,0x82,0x2c,0x64,0x04,0x92,0x2c,0x64,0x5c,0x82,0x2c,0x64,
                        0x04,0x92,0x2c,0x64,0x81,0x3c,0x82,0x2c,0x64,0x04,0x92,0x2c,0x64,0x5c,0x82,0x2c,0x64,0x04,
                        0x92,0x2c,0x64,0x5c,0x82,0x2c,0x64,0x04,0x92,0x2a,0x64,0x81,0x3c,0x82,0x2a,0x64,0x04,0x92,
                        0x2a,0x64,0x5c,0x82,0x2a,0x64,0x04,0x92,0x2a,0x64,0x5c,0x82,0x2a,0x64,0x04,0x92,0x2a,0x64,
                        0x81,0x3c,0x82,0x2a,0x64,0x04,0x92,0x2a,0x64,0x5c,0x82,0x2a,0x64,0x04,0x92,0x2a,0x64,0x5c,
                        0x82,0x2a,0x64,0x04,0x92,0x2a,0x64,0x81,0x3c,0x82,0x2a,0x64,0x04,0x92,0x2a,0x64,0x5c,0x82,
                        0x2a,0x64,0x04,0x92,0x2a,0x64,0x5c,0x82,0x2a,0x64,0x04,0x92,0x2a,0x64,0x81,0x3c,0x82,0x2a,
                        0x64,0x04,0x92,0x2a,0x64,0x5c,0x82,0x2a,0x64,0x04,0x92,0x2a,0x64,0x5c,0x82,0x2a,0x64,0x04,
                        0x92,0x29,0x64,0x81,0x3c,0x82,0x29,0x64,0x04,0x92,0x29,0x64,0x5c,0x82,0x29,0x64,0x04,0x92,
                        0x29,0x64,0x5c,0x82,0x29,0x64,0x04,0x92,0x29,0x64,0x81,0x3c,0x82,0x29,0x64,0x04,0x92,0x29,
                        0x64,0x5c,0x82,0x29,0x64,0x04,0x92,0x29,0x64,0x5c,0x82,0x29,0x64,0x04,0x92,0x29,0x64,0x81,
                        0x3c,0x82,0x29,0x64,0x04,0x92,0x29,0x64,0x5c,0x82,0x29,0x64,0x04,0x92,0x29,0x64,0x5c,0x82,
                        0x29,0x64,0x04,0x92,0x29,0x64,0x81,0x3c,0x82,0x29,0x64,0x04,0x92,0x29,0x64,0x5c,0x82,0x29,
                        0x64,0x04,0x92,0x29,0x64,0x5c,0x82,0x29,0x64,0x04,0x92,0x28,0x64,0x81,0x3c,0x82,0x28,0x64,
                        0x04,0x92,0x28,0x64,0x5c,0x82,0x28,0x64,0x04,0x92,0x28,0x64,0x5c,0x82,0x28,0x64,0x04,0x92,
                        0x28,0x64,0x81,0x3c,0x82,0x28,0x64,0x04,0x92,0x28,0x64,0x5c,0x82,0x28,0x64,0x04,0x92,0x28,
                        0x64,0x5c,0x82,0x28,0x64,0x04,0x92,0x28,0x64,0x81,0x3c,0x82,0x28,0x64,0x04,0x92,0x28,0x64,
                        0x5c,0x82,0x28,0x64,0x04,0x92,0x28,0x64,0x5c,0x82,0x28,0x64,0x04,0x92,0x28,0x64,0x81,0x3c,
                        0x82,0x28,0x64,0x04,0x92,0x28,0x64,0x5c,0x82,0x28,0x64,0x04,0x92,0x28,0x64,0x5c,0x82,0x28,
                        0x64,0x04,0x92,0x29,0x64,0x81,0x3c,0x82,0x29,0x64,0x04,0x92,0x29,0x64,0x5c,0x82,0x29,0x64,
                        0x04,0x92,0x29,0x64,0x5c,0x82,0x29,0x64,0x04,0x92,0x29,0x64,0x81,0x3c,0x82,0x29,0x64,0x04,
                        0x92,0x29,0x64,0x5c,0x82,0x29,0x64,0x04,0x92,0x29,0x64,0x5c,0x82,0x29,0x64,0x04,0x92,0x29,
                        0x64,0x81,0x3c,0x82,0x29,0x64,0x04,0x92,0x29,0x64,0x5c,0x82,0x29,0x64,0x04,0x92,0x29,0x64,
                        0x5c,0x82,0x29,0x64,0x04,0x92,0x29,0x64,0x81,0x3c,0x82,0x29,0x64,0x04,0x92,0x29,0x64,0x5c,
                        0x82,0x29,0x64,0x04,0x92,0x29,0x64,0x5c,0x82,0x29,0x64,0x04,0x92,0x28,0x64,0x81,0x3c,0x82,
                        0x28,0x64,0x04,0x92,0x28,0x64,0x5c,0x82,0x28,0x64,0x04,0x92,0x28,0x64,0x5c,0x82,0x28,0x64,
                        0x04,0x92,0x28,0x64,0x81,0x3c,0x82,0x28,0x64,0x04,0x92,0x28,0x64,0x5c,0x82,0x28,0x64,0x04,
                        0x92,0x28,0x64,0x5c,0x82,0x28,0x64,0x04,0x92,0x28,0x64,0x81,0x3c,0x82,0x28,0x64,0x04,0x92,
                        0x28,0x64,0x5c,0x82,0x28,0x64,0x04,0x92,0x28,0x64,0x5c,0x82,0x28,0x64,0x04,0x92,0x28,0x64,
                        0x81,0x3c,0x82,0x28,0x64,0x04,0x92,0x28,0x64,0x5c,0x82,0x28,0x64,0x04,0x92,0x28,0x64,0x5c,
                        0x82,0x28,0x64,0x04,0x92,0x29,0x64,0x81,0x3c,0x82,0x29,0x64,0x04,0x92,0x29,0x64,0x5c,0x82,
                        0x29,0x64,0x04,0x92,0x29,0x64,0x5c,0x82,0x29,0x64,0x04,0x92,0x29,0x64,0x81,0x3c,0x82,0x29,
                        0x64,0x04,0x92,0x29,0x64,0x5c,0x82,0x29,0x64,0x04,0x92,0x29,0x64,0x5c,0x82,0x29,0x64,0x04,
                        0x92,0x29,0x64,0x81,0x3c,0x82,0x29,0x64,0x04,0x92,0x29,0x64,0x5c,0x82,0x29,0x64,0x04,0x92,
                        0x29,0x64,0x5c,0x82,0x29,0x64,0x04,0x92,0x29,0x64,0x81,0x3c,0x82,0x29,0x64,0x04,0x92,0x29,
                        0x64,0x5c,0x82,0x29,0x64,0x04,0x92,0x29,0x64,0x5c,0x82,0x29,0x64,0x04,0x92,0x2f,0x64,0x81,
                        0x3c,0x82,0x2f,0x64,0x04,0x92,0x2f,0x64,0x5c,0x82,0x2f,0x64,0x04,0x92,0x2f,0x64,0x5c,0x82,
                        0x2f,0x64,0x04,0x92,0x2f,0x64,0x81,0x3c,0x82,0x2f,0x64,0x04,0x92,0x2f,0x64,0x5c,0x82,0x2f,
                        0x64,0x04,0x92,0x2f,0x64,0x5c,0x82,0x2f,0x64,0x04,0x92,0x2f,0x64,0x81,0x3c,0x82,0x2f,0x64,
                        0x04,0x92,0x2f,0x64,0x5c,0x82,0x2f,0x64,0x04,0x92,0x2f,0x64,0x5c,0x82,0x2f,0x64,0x04,0x92,
                        0x2f,0x64,0x81,0x3c,0x82,0x2f,0x64,0x04,0x92,0x2f,0x64,0x5c,0x82,0x2f,0x64,0x04,0x92,0x2f,
                        0x64,0x5c,0x82,0x2f,0x64,0x04,0x92,0x2e,0x64,0x81,0x3c,0x82,0x2e,0x64,0x04,0x92,0x2e,0x64,
                        0x5c,0x82,0x2e,0x64,0x04,0x92,0x2e,0x64,0x5c,0x82,0x2e,0x64,0x04,0x92,0x2e,0x64,0x81,0x3c,
                        0x82,0x2e,0x64,0x04,0x92,0x2e,0x64,0x5c,0x82,0x2e,0x64,0x04,0x92,0x2e,0x64,0x5c,0x82,0x2e,
                        0x64,0x04,0x92,0x2e,0x64,0x81,0x3c,0x82,0x2e,0x64,0x04,0x92,0x2e,0x64,0x5c,0x82,0x2e,0x64,
                        0x04,0x92,0x2e,0x64,0x5c,0x82,0x2e,0x64,0x04,0x92,0x2e,0x64,0x81,0x3c,0x82,0x2e,0x64,0x04,
                        0x92,0x2e,0x64,0x5c,0x82,0x2e,0x64,0x04,0x92,0x2e,0x64,0x5c,0x82,0x2e,0x64,0x04,0x92,0x30,
                        0x64,0x81,0x3c,0x82,0x30,0x64,0x04,0x92,0x30,0x64,0x5c,0x82,0x30,0x64,0x04,0x92,0x30,0x64,
                        0x5c,0x82,0x30,0x64,0x04,0x92,0x30,0x64,0x81,0x3c,0x82,0x30,0x64,0x04,0x92,0x30,0x64,0x5c,
                        0x82,0x30,0x64,0x04,0x92,0x30,0x64,0x5c,0x82,0x30,0x64,0x04,0x92,0x30,0x64,0x81,0x3c,0x82,
                        0x30,0x64,0x04,0x92,0x30,0x64,0x5c,0x82,0x30,0x64,0x04,0x92,0x30,0x64,0x5c,0x82,0x30,0x64,
                        0x04,0x92,0x30,0x64,0x81,0x3c,0x82,0x30,0x64,0x04,0x92,0x30,0x64,0x5c,0x82,0x30,0x64,0x04,
                        0x92,0x30,0x64,0x5c,0x82,0x30,0x64,0x04,0x92,0x35,0x64,0x81,0x3c,0x82,0x35,0x64,0x04,0x92,
                        0x29,0x64,0x5c,0x82,0x29,0x64,0x04,0x92,0x29,0x64,0x5c,0x82,0x29,0x64,0x04,0x92,0x29,0x64,
                        0x81,0x3c,0x82,0x29,0x64,0x04,0x92,0x29,0x64,0x5c,0x82,0x29,0x64,0x04,0x92,0x29,0x64,0x5c,
                        0x82,0x29,0x64,0x04,0x92,0x29,0x64,0x81,0x3c,0x82,0x29,0x64,0x04,0x92,0x29,0x64,0x5c,0x82,
                        0x29,0x64,0x04,0x92,0x29,0x64,0x5c,0x82,0x29,0x64,0x04,0x92,0x29,0x64,0x81,0x3c,0x82,0x29,
                        0x64,0x04,0x92,0x2b,0x64,0x5c,0x82,0x2b,0x64,0x04,0x92,0x2d,0x64,0x5c,0x82,0x2d,0x64,0x00,
                        0xff,0x2f,0x00,0x4d,0x54,0x72,0x6b,0x00,0x00,0x0a,0x47,0x00,0xff,0x03,0x05,0x44,0x72,0x75,
                        0x6d,0x73,0x00,0xb9,0x00,0x00,0x00,0xc9,0x00,0x00,0xb9,0x07,0x64,0x00,0xff,0x59,0x02,0xfe,
                        0x00,0xb0,0x00,0x99,0x2a,0x64,0x81,0x3c,0x89,0x2a,0x64,0x04,0x99,0x2a,0x64,0x5c,0x89,0x2a,
                        0x64,0x04,0x99,0x2a,0x64,0x5c,0x89,0x2a,0x64,0x04,0x99,0x2a,0x64,0x81,0x3c,0x89,0x2a,0x64,
                        0x04,0x99,0x2a,0x64,0x5c,0x89,0x2a,0x64,0x04,0x99,0x2a,0x64,0x5c,0x89,0x2a,0x64,0x04,0x99,
                        0x2a,0x64,0x81,0x3c,0x89,0x2a,0x64,0x04,0x99,0x2a,0x64,0x5c,0x89,0x2a,0x64,0x04,0x99,0x2a,
                        0x64,0x5c,0x89,0x2a,0x64,0x04,0x99,0x2a,0x64,0x81,0x3c,0x89,0x2a,0x64,0x04,0x99,0x2a,0x64,
                        0x5c,0x89,0x2a,0x64,0x04,0x99,0x2a,0x64,0x5c,0x89,0x2a,0x64,0x04,0x99,0x2a,0x64,0x81,0x3c,
                        0x89,0x2a,0x64,0x04,0x99,0x2a,0x64,0x5c,0x89,0x2a,0x64,0x04,0x99,0x2a,0x64,0x5c,0x89,0x2a,
                        0x64,0x04,0x99,0x2a,0x64,0x81,0x3c,0x89,0x2a,0x64,0x04,0x99,0x2a,0x64,0x5c,0x89,0x2a,0x64,
                        0x04,0x99,0x2a,0x64,0x5c,0x89,0x2a,0x64,0x04,0x99,0x2a,0x64,0x81,0x3c,0x89,0x2a,0x64,0x04,
                        0x99,0x2a,0x64,0x5c,0x89,0x2a,0x64,0x04,0x99,0x2a,0x64,0x5c,0x89,0x2a,0x64,0x04,0x99,0x2a,
                        0x64,0x81,0x3c,0x89,0x2a,0x64,0x04,0x99,0x2a,0x64,0x5c,0x89,0x2a,0x64,0x04,0x99,0x2a,0x64,
                        0x5c,0x89,0x2a,0x64,0x04,0x99,0x2a,0x64,0x81,0x3c,0x89,0x2a,0x64,0x04,0x99,0x2a,0x64,0x5c,
                        0x89,0x2a,0x64,0x04,0x99,0x2a,0x64,0x5c,0x89,0x2a,0x64,0x04,0x99,0x2a,0x64,0x81,0x3c,0x89,
                        0x2a,0x64,0x04,0x99,0x2a,0x64,0x5c,0x89,0x2a,0x64,0x04,0x99,0x2a,0x64,0x5c,0x89,0x2a,0x64,
                        0x04,0x99,0x2a,0x64,0x81,0x3c,0x89,0x2a,0x64,0x04,0x99,0x2a,0x64,0x5c,0x89,0x2a,0x64,0x04,
                        0x99,0x2a,0x64,0x5c,0x89,0x2a,0x64,0x04,0x99,0x2a,0x64,0x81,0x3c,0x89,0x2a,0x64,0x04,0x99,
                        0x2a,0x64,0x5c,0x89,0x2a,0x64,0x04,0x99,0x2a,0x64,0x5c,0x89,0x2a,0x64,0x04,0x99,0x2a,0x64,
                        0x81,0x3c,0x89,0x2a,0x64,0x04,0x99,0x2a,0x64,0x5c,0x89,0x2a,0x64,0x04,0x99,0x2a,0x64,0x5c,
                        0x89,0x2a,0x64,0x04,0x99,0x2a,0x64,0x81,0x3c,0x89,0x2a,0x64,0x04,0x99,0x2a,0x64,0x5c,0x89,
                        0x2a,0x64,0x04,0x99,0x2a,0x64,0x5c,0x89,0x2a,0x64,0x04,0x99,0x2a,0x64,0x81,0x3c,0x89,0x2a,
                        0x64,0x04,0x99,0x2a,0x64,0x5c,0x89,0x2a,0x64,0x04,0x99,0x2a,0x64,0x5c,0x89,0x2a,0x64,0x04,
                        0x99,0x2a,0x64,0x81,0x3c,0x89,0x2a,0x64,0x04,0x99,0x2a,0x64,0x5c,0x89,0x2a,0x64,0x04,0x99,
                        0x2a,0x64,0x5c,0x89,0x2a,0x64,0x04,0x99,0x2a,0x64,0x81,0x3c,0x89,0x2a,0x64,0x04,0x99,0x2a,
                        0x64,0x5c,0x89,0x2a,0x64,0x04,0x99,0x2a,0x64,0x5c,0x89,0x2a,0x64,0x04,0x99,0x2a,0x64,0x81,
                        0x3c,0x89,0x2a,0x64,0x04,0x99,0x2a,0x64,0x5c,0x89,0x2a,0x64,0x04,0x99,0x2a,0x64,0x5c,0x89,
                        0x2a,0x64,0x04,0x99,0x2a,0x64,0x81,0x3c,0x89,0x2a,0x64,0x04,0x99,0x2a,0x64,0x5c,0x89,0x2a,
                        0x64,0x04,0x99,0x2a,0x64,0x5c,0x89,0x2a,0x64,0x04,0x99,0x2a,0x64,0x81,0x3c,0x89,0x2a,0x64,
                        0x04,0x99,0x2a,0x64,0x5c,0x89,0x2a,0x64,0x04,0x99,0x2a,0x64,0x5c,0x89,0x2a,0x64,0x04,0x99,
                        0x2a,0x64,0x81,0x3c,0x89,0x2a,0x64,0x04,0x99,0x2a,0x64,0x5c,0x89,0x2a,0x64,0x04,0x99,0x2a,
                        0x64,0x5c,0x89,0x2a,0x64,0x04,0x99,0x2a,0x64,0x81,0x3c,0x89,0x2a,0x64,0x04,0x99,0x2a,0x64,
                        0x5c,0x89,0x2a,0x64,0x04,0x99,0x2a,0x64,0x5c,0x89,0x2a,0x64,0x04,0x99,0x2a,0x64,0x81,0x3c,
                        0x89,0x2a,0x64,0x04,0x99,0x2a,0x64,0x5c,0x89,0x2a,0x64,0x04,0x99,0x2a,0x64,0x5c,0x89,0x2a,
                        0x64,0x04,0x99,0x2a,0x64,0x81,0x3c,0x89,0x2a,0x64,0x04,0x99,0x2a,0x64,0x5c,0x89,0x2a,0x64,
                        0x04,0x99,0x2a,0x64,0x5c,0x89,0x2a,0x64,0x04,0x99,0x2a,0x64,0x81,0x3c,0x89,0x2a,0x64,0x04,
                        0x99,0x2a,0x64,0x5c,0x89,0x2a,0x64,0x04,0x99,0x2a,0x64,0x5c,0x89,0x2a,0x64,0x04,0x99,0x2a,
                        0x64,0x81,0x3c,0x89,0x2a,0x64,0x04,0x99,0x2a,0x64,0x5c,0x89,0x2a,0x64,0x04,0x99,0x2a,0x64,
                        0x5c,0x89,0x2a,0x64,0x04,0x99,0x2a,0x64,0x81,0x3c,0x89,0x2a,0x64,0x04,0x99,0x2a,0x64,0x5c,
                        0x89,0x2a,0x64,0x04,0x99,0x2a,0x64,0x5c,0x89,0x2a,0x64,0x04,0x99,0x2a,0x64,0x81,0x3c,0x89,
                        0x2a,0x64,0x04,0x99,0x2a,0x64,0x5c,0x89,0x2a,0x64,0x04,0x99,0x2a,0x64,0x5c,0x89,0x2a,0x64,
                        0x04,0x99,0x2a,0x64,0x81,0x3c,0x89,0x2a,0x64,0x04,0x99,0x2a,0x64,0x5c,0x89,0x2a,0x64,0x04,
                        0x99,0x2a,0x64,0x5c,0x89,0x2a,0x64,0x04,0x99,0x2a,0x64,0x81,0x3c,0x89,0x2a,0x64,0x04,0x99,
                        0x2a,0x64,0x5c,0x89,0x2a,0x64,0x04,0x99,0x2a,0x64,0x5c,0x89,0x2a,0x64,0x04,0x99,0x2a,0x64,
                        0x81,0x3c,0x89,0x2a,0x64,0x04,0x99,0x2a,0x64,0x5c,0x89,0x2a,0x64,0x04,0x99,0x2a,0x64,0x5c,
                        0x89,0x2a,0x64,0x04,0x99,0x2a,0x64,0x81,0x3c,0x89,0x2a,0x64,0x04,0x99,0x2a,0x64,0x5c,0x89,
                        0x2a,0x64,0x04,0x99,0x2a,0x64,0x5c,0x89,0x2a,0x64,0x04,0x99,0x2a,0x64,0x81,0x3c,0x89,0x2a,
                        0x64,0x04,0x99,0x2a,0x64,0x5c,0x89,0x2a,0x64,0x04,0x99,0x2a,0x64,0x5c,0x89,0x2a,0x64,0x04,
                        0x99,0x2a,0x64,0x81,0x3c,0x89,0x2a,0x64,0x04,0x99,0x2a,0x64,0x5c,0x89,0x2a,0x64,0x04,0x99,
                        0x2a,0x64,0x5c,0x89,0x2a,0x64,0x04,0x99,0x2a,0x64,0x81,0x3c,0x89,0x2a,0x64,0x04,0x99,0x2a,
                        0x64,0x5c,0x89,0x2a,0x64,0x04,0x99,0x2a,0x64,0x5c,0x89,0x2a,0x64,0x04,0x99,0x2a,0x64,0x81,
                        0x3c,0x89,0x2a,0x64,0x04,0x99,0x2a,0x64,0x5c,0x89,0x2a,0x64,0x04,0x99,0x2a,0x64,0x5c,0x89,
                        0x2a,0x64,0x04,0x99,0x2a,0x64,0x81,0x3c,0x89,0x2a,0x64,0x04,0x99,0x2a,0x64,0x5c,0x89,0x2a,
                        0x64,0x04,0x99,0x2a,0x64,0x5c,0x89,0x2a,0x64,0x04,0x99,0x2a,0x64,0x81,0x3c,0x89,0x2a,0x64,
                        0x04,0x99,0x2a,0x64,0x5c,0x89,0x2a,0x64,0x04,0x99,0x2a,0x64,0x5c,0x89,0x2a,0x64,0x04,0x99,
                        0x2a,0x64,0x81,0x3c,0x89,0x2a,0x64,0x04,0x99,0x2a,0x64,0x5c,0x89,0x2a,0x64,0x04,0x99,0x2a,
                        0x64,0x5c,0x89,0x2a,0x64,0x04,0x99,0x2a,0x64,0x81,0x3c,0x89,0x2a,0x64,0x04,0x99,0x2a,0x64,
                        0x5c,0x89,0x2a,0x64,0x04,0x99,0x2a,0x64,0x5c,0x89,0x2a,0x64,0x04,0x99,0x2a,0x64,0x81,0x3c,
                        0x89,0x2a,0x64,0x04,0x99,0x2a,0x64,0x5c,0x89,0x2a,0x64,0x04,0x99,0x2a,0x64,0x5c,0x89,0x2a,
                        0x64,0x04,0x99,0x2a,0x64,0x81,0x3c,0x89,0x2a,0x64,0x04,0x99,0x2a,0x64,0x5c,0x89,0x2a,0x64,
                        0x04,0x99,0x2a,0x64,0x5c,0x89,0x2a,0x64,0x04,0x99,0x2a,0x64,0x81,0x3c,0x89,0x2a,0x64,0x04,
                        0x99,0x2a,0x64,0x5c,0x89,0x2a,0x64,0x04,0x99,0x2a,0x64,0x5c,0x89,0x2a,0x64,0x04,0x99,0x2a,
                        0x64,0x81,0x3c,0x89,0x2a,0x64,0x04,0x99,0x2a,0x64,0x5c,0x89,0x2a,0x64,0x04,0x99,0x2a,0x64,
                        0x5c,0x89,0x2a,0x64,0x04,0x99,0x2a,0x64,0x81,0x3c,0x89,0x2a,0x64,0x04,0x99,0x2a,0x64,0x5c,
                        0x89,0x2a,0x64,0x04,0x99,0x2a,0x64,0x5c,0x89,0x2a,0x64,0x04,0x99,0x2a,0x64,0x81,0x3c,0x89,
                        0x2a,0x64,0x04,0x99,0x2a,0x64,0x5c,0x89,0x2a,0x64,0x04,0x99,0x2a,0x64,0x5c,0x89,0x2a,0x64,
                        0x04,0x99,0x2a,0x64,0x81,0x3c,0x89,0x2a,0x64,0x04,0x99,0x2a,0x64,0x5c,0x89,0x2a,0x64,0x04,
                        0x99,0x2a,0x64,0x5c,0x89,0x2a,0x64,0x04,0x99,0x2a,0x64,0x81,0x3c,0x89,0x2a,0x64,0x04,0x99,
                        0x2a,0x64,0x5c,0x89,0x2a,0x64,0x04,0x99,0x2a,0x64,0x5c,0x89,0x2a,0x64,0x04,0x99,0x2a,0x64,
                        0x81,0x3c,0x89,0x2a,0x64,0x04,0x99,0x2a,0x64,0x5c,0x89,0x2a,0x64,0x04,0x99,0x2a,0x64,0x5c,
                        0x89,0x2a,0x64,0x04,0x99,0x2a,0x64,0x81,0x3c,0x89,0x2a,0x64,0x04,0x99,0x2a,0x64,0x5c,0x89,
                        0x2a,0x64,0x04,0x99,0x2a,0x64,0x5c,0x89,0x2a,0x64,0x04,0x99,0x2a,0x64,0x81,0x3c,0x89,0x2a,
                        0x64,0x04,0x99,0x2a,0x64,0x5c,0x89,0x2a,0x64,0x04,0x99,0x2a,0x64,0x5c,0x89,0x2a,0x64,0x04,
                        0x99,0x2a,0x64,0x81,0x3c,0x89,0x2a,0x64,0x04,0x99,0x2a,0x64,0x5c,0x89,0x2a,0x64,0x04,0x99,
                        0x2a,0x64,0x5c,0x89,0x2a,0x64,0x04,0x99,0x2a,0x64,0x81,0x3c,0x89,0x2a,0x64,0x04,0x99,0x2a,
                        0x64,0x5c,0x89,0x2a,0x64,0x04,0x99,0x2a,0x64,0x5c,0x89,0x2a,0x64,0x04,0x99,0x2a,0x64,0x81,
                        0x3c,0x89,0x2a,0x64,0x04,0x99,0x2a,0x64,0x5c,0x89,0x2a,0x64,0x04,0x99,0x2a,0x64,0x5c,0x89,
                        0x2a,0x64,0x04,0x99,0x2a,0x64,0x81,0x3c,0x89,0x2a,0x64,0x04,0x99,0x2a,0x64,0x5c,0x89,0x2a,
                        0x64,0x04,0x99,0x2a,0x64,0x5c,0x89,0x2a,0x64,0x04,0x99,0x2a,0x64,0x81,0x3c,0x89,0x2a,0x64,
                        0x04,0x99,0x2a,0x64,0x5c,0x89,0x2a,0x64,0x04,0x99,0x2a,0x64,0x5c,0x89,0x2a,0x64,0x04,0x99,
                        0x2a,0x64,0x81,0x3c,0x89,0x2a,0x64,0x04,0x99,0x2a,0x64,0x5c,0x89,0x2a,0x64,0x04,0x99,0x2a,
                        0x64,0x5c,0x89,0x2a,0x64,0x04,0x99,0x2a,0x64,0x81,0x3c,0x89,0x2a,0x64,0x04,0x99,0x2a,0x64,
                        0x5c,0x89,0x2a,0x64,0x04,0x99,0x2a,0x64,0x5c,0x89,0x2a,0x64,0x04,0x99,0x2a,0x64,0x81,0x3c,
                        0x89,0x2a,0x64,0x04,0x99,0x2a,0x64,0x5c,0x89,0x2a,0x64,0x04,0x99,0x2a,0x64,0x5c,0x89,0x2a,
                        0x64,0x04,0x99,0x2a,0x64,0x81,0x3c,0x89,0x2a,0x64,0x04,0x99,0x2a,0x64,0x5c,0x89,0x2a,0x64,
                        0x04,0x99,0x2a,0x64,0x5c,0x89,0x2a,0x64,0x04,0x99,0x2a,0x64,0x81,0x3c,0x89,0x2a,0x64,0x04,
                        0x99,0x2a,0x64,0x5c,0x89,0x2a,0x64,0x04,0x99,0x2a,0x64,0x5c,0x89,0x2a,0x64,0x04,0x99,0x2a,
                        0x64,0x81,0x3c,0x89,0x2a,0x64,0x04,0x99,0x2a,0x64,0x5c,0x89,0x2a,0x64,0x04,0x99,0x2a,0x64,
                        0x5c,0x89,0x2a,0x64,0x04,0x99,0x2a,0x64,0x81,0x3c,0x89,0x2a,0x64,0x04,0x99,0x2a,0x64,0x5c,
                        0x89,0x2a,0x64,0x04,0x99,0x2a,0x64,0x5c,0x89,0x2a,0x64,0x04,0x99,0x2a,0x64,0x81,0x3c,0x89,
                        0x2a,0x64,0x04,0x99,0x2a,0x64,0x5c,0x89,0x2a,0x64,0x04,0x99,0x2a,0x64,0x5c,0x89,0x2a,0x64,
                        0x04,0x99,0x2a,0x64,0x81,0x3c,0x89,0x2a,0x64,0x04,0x99,0x2a,0x64,0x5c,0x89,0x2a,0x64,0x04,
                        0x99,0x2a,0x64,0x5c,0x89,0x2a,0x64,0x04,0x99,0x2a,0x64,0x81,0x3c,0x89,0x2a,0x64,0x04,0x99,
                        0x2a,0x64,0x5c,0x89,0x2a,0x64,0x04,0x99,0x2a,0x64,0x5c,0x89,0x2a,0x64,0x04,0x99,0x2a,0x64,
                        0x81,0x3c,0x89,0x2a,0x64,0x04,0x99,0x2a,0x64,0x5c,0x89,0x2a,0x64,0x04,0x99,0x2a,0x64,0x5c,
                        0x89,0x2a,0x64,0x04,0x99,0x2a,0x64,0x81,0x3c,0x89,0x2a,0x64,0x04,0x99,0x2a,0x64,0x5c,0x89,
                        0x2a,0x64,0x04,0x99,0x2a,0x64,0x5c,0x89,0x2a,0x64,0x04,0x99,0x2a,0x64,0x81,0x3c,0x89,0x2a,
                        0x64,0x04,0x99,0x2a,0x64,0x5c,0x89,0x2a,0x64,0x04,0x99,0x2a,0x64,0x5c,0x89,0x2a,0x64,0x04,
                        0x99,0x2a,0x64,0x81,0x3c,0x89,0x2a,0x64,0x04,0x99,0x2a,0x64,0x5c,0x89,0x2a,0x64,0x04,0x99,
                        0x2a,0x64,0x5c,0x89,0x2a,0x64,0x04,0x99,0x2a,0x64,0x81,0x3c,0x89,0x2a,0x64,0x04,0x99,0x2a,
                        0x64,0x5c,0x89,0x2a,0x64,0x04,0x99,0x2a,0x64,0x5c,0x89,0x2a,0x64,0x04,0x99,0x2a,0x64,0x81,
                        0x3c,0x89,0x2a,0x64,0x04,0x99,0x2a,0x64,0x5c,0x89,0x2a,0x64,0x04,0x99,0x2a,0x64,0x5c,0x89,
                        0x2a,0x64,0x04,0x99,0x2a,0x64,0x81,0x3c,0x89,0x2a,0x64,0x04,0x99,0x2a,0x64,0x5c,0x89,0x2a,
                        0x64,0x04,0x99,0x2a,0x64,0x5c,0x89,0x2a,0x64,0x04,0x99,0x2a,0x64,0x81,0x3c,0x89,0x2a,0x64,
                        0x04,0x99,0x2a,0x64,0x5c,0x89,0x2a,0x64,0x04,0x99,0x2a,0x64,0x5c,0x89,0x2a,0x64,0x04,0x99,
                        0x2a,0x64,0x81,0x3c,0x89,0x2a,0x64,0x04,0x99,0x2a,0x64,0x5c,0x89,0x2a,0x64,0x04,0x99,0x2a,
                        0x64,0x5c,0x89,0x2a,0x64,0x04,0x99,0x2a,0x64,0x81,0x3c,0x89,0x2a,0x64,0x04,0x99,0x2a,0x64,
                        0x5c,0x89,0x2a,0x64,0x04,0x99,0x2a,0x64,0x5c,0x89,0x2a,0x64,0x04,0x99,0x2a,0x64,0x81,0x3c,
                        0x89,0x2a,0x64,0x04,0x99,0x2a,0x64,0x5c,0x89,0x2a,0x64,0x04,0x99,0x2a,0x64,0x5c,0x89,0x2a,
                        0x64,0x04,0x99,0x2a,0x64,0x81,0x3c,0x89,0x2a,0x64,0x04,0x99,0x2a,0x64,0x5c,0x89,0x2a,0x64,
                        0x04,0x99,0x2a,0x64,0x5c,0x89,0x2a,0x64,0x04,0x99,0x2a,0x64,0x81,0x3c,0x89,0x2a,0x64,0x04,
                        0x99,0x2a,0x64,0x5c,0x89,0x2a,0x64,0x04,0x99,0x2a,0x64,0x5c,0x89,0x2a,0x64,0x04,0x99,0x2a,
                        0x64,0x81,0x3c,0x89,0x2a,0x64,0x04,0x99,0x2a,0x64,0x5c,0x89,0x2a,0x64,0x04,0x99,0x2a,0x64,
                        0x5c,0x89,0x2a,0x64,0x04,0x99,0x2a,0x64,0x81,0x3c,0x89,0x2a,0x64,0x04,0x99,0x2a,0x64,0x5c,
                        0x89,0x2a,0x64,0x04,0x99,0x2a,0x64,0x5c,0x89,0x2a,0x64,0x04,0x99,0x2a,0x64,0x81,0x3c,0x89,
                        0x2a,0x64,0x04,0x99,0x2a,0x64,0x5c,0x89,0x2a,0x64,0x04,0x99,0x2a,0x64,0x5c,0x89,0x2a,0x64,
                        0x04,0x99,0x2a,0x64,0x81,0x3c,0x89,0x2a,0x64,0x04,0x99,0x2a,0x64,0x5c,0x89,0x2a,0x64,0x04,
                        0x99,0x2a,0x64,0x5c,0x89,0x2a,0x64,0x04,0x99,0x2a,0x64,0x81,0x3c,0x89,0x2a,0x64,0x04,0x99,
                        0x2a,0x64,0x5c,0x89,0x2a,0x64,0x04,0x99,0x2a,0x64,0x5c,0x89,0x2a,0x64,0x04,0x99,0x2a,0x64,
                        0x81,0x3c,0x89,0x2a,0x64,0x04,0x99,0x2a,0x64,0x5c,0x89,0x2a,0x64,0x04,0x99,0x2a,0x64,0x5c,
                        0x89,0x2a,0x64,0x04,0x99,0x2a,0x64,0x81,0x3c,0x89,0x2a,0x64,0x04,0x99,0x2a,0x64,0x5c,0x89,
                        0x2a,0x64,0x04,0x99,0x2a,0x64,0x5c,0x89,0x2a,0x64,0x04,0x99,0x2a,0x64,0x81,0x3c,0x89,0x2a,
                        0x64,0x04,0x99,0x2a,0x64,0x5c,0x89,0x2a,0x64,0x04,0x99,0x2a,0x64,0x5c,0x89,0x2a,0x64,0x04,
                        0x99,0x2a,0x64,0x81,0x3c,0x89,0x2a,0x64,0x04,0x99,0x2a,0x64,0x5c,0x89,0x2a,0x64,0x04,0x99,
                        0x2a,0x64,0x5c,0x89,0x2a,0x64,0x04,0x99,0x2a,0x64,0x81,0x3c,0x89,0x2a,0x64,0x04,0x99,0x2a,
                        0x64,0x5c,0x89,0x2a,0x64,0x04,0x99,0x2a,0x64,0x5c,0x89,0x2a,0x64,0x04,0x99,0x2a,0x64,0x81,
                        0x3c,0x89,0x2a,0x64,0x04,0x99,0x2a,0x64,0x5c,0x89,0x2a,0x64,0x04,0x99,0x2a,0x64,0x5c,0x89,
                        0x2a,0x64,0x04,0x99,0x2a,0x64,0x81,0x3c,0x89,0x2a,0x64,0x04,0x99,0x2a,0x64,0x5c,0x89,0x2a,
                        0x64,0x04,0x99,0x2a,0x64,0x5c,0x89,0x2a,0x64,0x04,0x99,0x2a,0x64,0x81,0x3c,0x89,0x2a,0x64,
                        0x04,0x99,0x2a,0x64,0x5c,0x89,0x2a,0x64,0x04,0x99,0x2a,0x64,0x5c,0x89,0x2a,0x64,0x04,0x99,
                        0x2a,0x64,0x81,0x3c,0x89,0x2a,0x64,0x04,0x99,0x2a,0x64,0x5c,0x89,0x2a,0x64,0x04,0x99,0x2a,
                        0x64,0x5c,0x89,0x2a,0x64,0x04,0x99,0x2a,0x64,0x81,0x3c,0x89,0x2a,0x64,0x04,0x99,0x2a,0x64,
                        0x5c,0x89,0x2a,0x64,0x04,0x99,0x2a,0x64,0x5c,0x89,0x2a,0x64,0x04,0x99,0x2a,0x64,0x81,0x3c,
                        0x89,0x2a,0x64,0x04,0x99,0x2a,0x64,0x5c,0x89,0x2a,0x64,0x04,0x99,0x2a,0x64,0x5c,0x89,0x2a,
                        0x64,0x04,0x99,0x2a,0x64,0x81,0x3c,0x89,0x2a,0x64,0x04,0x99,0x2a,0x64,0x5c,0x89,0x2a,0x64,
                        0x04,0x99,0x2a,0x64,0x5c,0x89,0x2a,0x64,0x04,0x99,0x2a,0x64,0x81,0x3c,0x89,0x2a,0x64,0x04,
                        0x99,0x2a,0x64,0x5c,0x89,0x2a,0x64,0x04,0x99,0x2a,0x64,0x5c,0x89,0x2a,0x64,0x04,0x99,0x2a,
                        0x64,0x81,0x3c,0x89,0x2a,0x64,0x04,0x99,0x2a,0x64,0x5c,0x89,0x2a,0x64,0x04,0x99,0x2a,0x64,
                        0x5c,0x89,0x2a,0x64,0x04,0x99,0x2a,0x64,0x81,0x3c,0x89,0x2a,0x64,0x04,0x99,0x2a,0x64,0x5c,
                        0x89,0x2a,0x64,0x04,0x99,0x2a,0x64,0x5c,0x89,0x2a,0x64,0x04,0x99,0x2a,0x64,0x81,0x3c,0x89,
                        0x2a,0x64,0x04,0x99,0x2a,0x64,0x5c,0x89,0x2a,0x64,0x04,0x99,0x2a,0x64,0x5c,0x89,0x2a,0x64,
                        0x04,0x99,0x2a,0x64,0x81,0x3c,0x89,0x2a,0x64,0x04,0x99,0x2a,0x64,0x5c,0x89,0x2a,0x64,0x04,
                        0x99,0x2a,0x64,0x5c,0x89,0x2a,0x64,0x04,0x99,0x2a,0x64,0x81,0x3c,0x89,0x2a,0x64,0x04,0x99,
                        0x2a,0x64,0x5c,0x89,0x2a,0x64,0x04,0x99,0x2a,0x64,0x5c,0x89,0x2a,0x64,0x04,0x99,0x2a,0x64,
                        0x81,0x3c,0x89,0x2a,0x64,0x04,0x99,0x2a,0x64,0x5c,0x89,0x2a,0x64,0x04,0x99,0x2a,0x64,0x5c,
                        0x89,0x2a,0x64,0x04,0x99,0x2a,0x64,0x81,0x3c,0x89,0x2a,0x64,0x04,0x99,0x2a,0x64,0x5c,0x89,
                        0x2a,0x64,0x04,0x99,0x2a,0x64,0x5c,0x89,0x2a,0x64,0x00,0xff,0x2f,0x00};

//// 3 tracks (no meta track) - lots of notes per track (5% extra credit - part 3)
unsigned char song4[] ={0x4d,0x54,0x68,0x64,0x00,0x00,0x00,0x06,0x00,0x01,0x00,0x03,0x01,0x80,0x4d,0x54,0x72,0x6b,
                        0x00,0x00,0x1f,0xe3,0x00,0xff,0x58,0x04,0x04,0x02,0x18,0x08,0x00,0xff,0x51,0x03,0x05,0x6a,
                        0xd5,0x00,0xff,0x03,0xf,0x47,0x61,0x6d,0x65,0x20,0x4f,0x66,0x20,0x54,0x68,0x72,0x6f,0x6e,
                        0x65,0x73,0x00,0xc0,0x50,0x00,0x90,0x43,0x32,0x00,0x90,0x48,0x32,0x00,0x90,0x4b,0x32,0x00,
                        0x90,0x4f,0x32,0x00,0x90,0x30,0x32,0x83,0x00,0x80,0x4f,0x00,0x00,0x80,0x4b,0x00,0x00,0x80,
                        0x48,0x00,0x00,0x80,0x43,0x00,0x00,0x90,0x48,0x32,0x83,0x00,0x80,0x48,0x00,0x00,0x90,0x4b,
                        0x32,0x81,0x40,0x80,0x4b,0x00,0x00,0x90,0x4d,0x32,0x81,0x40,0x80,0x4d,0x00,0x00,0x90,0x48,
                        0x32,0x00,0x90,0x4f,0x32,0x83,0x00,0x80,0x4f,0x00,0x00,0x80,0x48,0x00,0x00,0x90,0x48,0x32,
                        0x83,0x00,0x80,0x48,0x00,0x00,0x90,0x4b,0x32,0x81,0x40,0x80,0x4b,0x00,0x00,0x90,0x4d,0x32,
                        0x60,0x80,0x30,0x00,0x60,0x80,0x4d,0x00,0x00,0x90,0x48,0x32,0x00,0x90,0x4f,0x32,0x00,0x90,
                        0x30,0x32,0x83,0x00,0x80,0x4f,0x00,0x00,0x80,0x48,0x00,0x00,0x90,0x48,0x32,0x81,0x40,0x80,
                        0x30,0x00,0x00,0x90,0x30,0x32,0x81,0x40,0x80,0x48,0x00,0x00,0x90,0x4b,0x32,0x81,0x40,0x80,
                        0x4b,0x00,0x00,0x90,0x4d,0x32,0x81,0x40,0x80,0x4d,0x00,0x00,0x80,0x30,0x00,0x00,0x90,0x48,
                        0x32,0x00,0x90,0x4f,0x32,0x00,0x90,0x30,0x32,0x83,0x00,0x80,0x4f,0x00,0x00,0x80,0x48,0x00,
                        0x00,0x90,0x48,0x32,0x81,0x40,0x80,0x30,0x00,0x00,0x90,0x30,0x32,0x81,0x40,0x80,0x48,0x00,
                        0x00,0x90,0x4b,0x32,0x81,0x40,0x80,0x4b,0x00,0x00,0x90,0x4d,0x32,0x81,0x40,0x80,0x4d,0x00,
                        0x00,0x80,0x30,0x00,0x00,0x90,0x48,0x32,0x00,0x90,0x4f,0x32,0x00,0x90,0x24,0x32,0x81,0x40,
                        0x80,0x24,0x00,0x00,0x90,0x30,0x32,0x81,0x40,0x80,0x30,0x00,0x00,0x80,0x4f,0x00,0x00,0x80,
                        0x48,0x00,0x00,0x90,0x48,0x32,0x00,0x90,0x30,0x32,0x81,0x40,0x80,0x30,0x00,0x00,0x90,0x30,
                        0x32,0x81,0x40,0x80,0x30,0x00,0x00,0x80,0x48,0x00,0x00,0x90,0x4c,0x32,0x00,0x90,0x30,0x32,
                        0x81,0x40,0x80,0x30,0x00,0x00,0x80,0x4c,0x00,0x00,0x90,0x4d,0x32,0x00,0x90,0x30,0x32,0x81,
                        0x40,0x80,0x30,0x00,0x00,0x80,0x4d,0x00,0x00,0x90,0x48,0x32,0x00,0x90,0x4f,0x32,0x00,0x90,
                        0x30,0x32,0x81,0x40,0x80,0x30,0x00,0x00,0x90,0x30,0x32,0x81,0x40,0x80,0x30,0x00,0x00,0x80,
                        0x4f,0x00,0x00,0x80,0x48,0x00,0x00,0x90,0x48,0x32,0x00,0x90,0x30,0x32,0x81,0x40,0x80,0x30,
                        0x00,0x00,0x90,0x30,0x32,0x81,0x40,0x80,0x30,0x00,0x00,0x80,0x48,0x00,0x00,0x90,0x4c,0x32,
                        0x00,0x90,0x30,0x32,0x81,0x40,0x80,0x4c,0x00,0x00,0x90,0x4d,0x32,0x81,0x40,0x80,0x4d,0x00,
                        0x00,0x80,0x30,0x00,0x00,0x90,0x48,0x32,0x00,0x90,0x4f,0x32,0x00,0x90,0x24,0x32,0x81,0x40,
                        0x80,0x24,0x00,0x00,0x90,0x30,0x32,0x81,0x40,0x80,0x30,0x00,0x00,0x80,0x4f,0x00,0x00,0x80,
                        0x48,0x00,0x00,0x90,0x48,0x32,0x00,0x90,0x30,0x32,0x81,0x40,0x80,0x30,0x00,0x00,0x90,0x30,
                        0x32,0x81,0x40,0x80,0x30,0x00,0x00,0x80,0x48,0x00,0x00,0x90,0x4c,0x32,0x00,0x90,0x30,0x32,
                        0x81,0x40,0x80,0x30,0x00,0x00,0x80,0x4c,0x00,0x00,0x90,0x4d,0x32,0x00,0x90,0x30,0x32,0x81,
                        0x40,0x80,0x30,0x00,0x00,0x80,0x4d,0x00,0x00,0x90,0x48,0x32,0x00,0x90,0x4f,0x32,0x00,0x90,
                        0x30,0x32,0x81,0x40,0x80,0x30,0x00,0x00,0x90,0x30,0x32,0x81,0x40,0x80,0x30,0x00,0x00,0x80,
                        0x4f,0x00,0x00,0x80,0x48,0x00,0x00,0x90,0x48,0x32,0x00,0x90,0x30,0x32,0x81,0x40,0x80,0x30,
                        0x00,0x00,0x90,0x30,0x32,0x81,0x40,0x80,0x30,0x00,0x00,0x80,0x48,0x00,0x00,0x90,0x4c,0x32,
                        0x00,0x90,0x30,0x32,0x81,0x40,0x80,0x4c,0x00,0x00,0x90,0x4d,0x32,0x81,0x40,0x80,0x4d,0x00,
                        0x00,0x80,0x30,0x00,0x00,0x90,0x43,0x32,0x00,0x90,0x4f,0x32,0x00,0x90,0x30,0x32,0x00,0x90,
                        0x37,0x32,0x84,0x40,0x80,0x37,0x00,0x00,0x80,0x30,0x00,0x00,0x90,0x30,0x32,0x00,0x90,0x37,
                        0x32,0x83,0x60,0x80,0x4f,0x00,0x00,0x80,0x43,0x00,0x60,0x80,0x37,0x00,0x00,0x80,0x30,0x00,
                        0x00,0x90,0x3c,0x32,0x00,0x90,0x30,0x32,0x00,0x90,0x37,0x32,0x84,0x40,0x80,0x37,0x00,0x00,
                        0x80,0x30,0x00,0x00,0x90,0x30,0x32,0x00,0x90,0x37,0x32,0x83,0x60,0x80,0x3c,0x00,0x60,0x80,
                        0x37,0x00,0x00,0x80,0x30,0x00,0x00,0x90,0x3c,0x32,0x00,0x90,0x3f,0x32,0x00,0x90,0x30,0x32,
                        0x00,0x90,0x37,0x32,0x81,0x40,0x80,0x3f,0x00,0x00,0x80,0x3c,0x00,0x00,0x90,0x41,0x32,0x81,
                        0x40,0x80,0x41,0x00,0x00,0x90,0x43,0x32,0x81,0x40,0x80,0x37,0x00,0x00,0x80,0x30,0x00,0x00,
                        0x90,0x30,0x32,0x00,0x90,0x37,0x32,0x84,0x40,0x80,0x37,0x00,0x00,0x80,0x30,0x00,0x00,0x80,
                        0x43,0x00,0x00,0x90,0x3c,0x32,0x00,0x90,0x30,0x32,0x00,0x90,0x37,0x32,0x84,0x40,0x80,0x37,
                        0x00,0x00,0x80,0x30,0x00,0x00,0x90,0x30,0x32,0x00,0x90,0x37,0x32,0x81,0x40,0x80,0x3c,0x00,
                        0x00,0x90,0x3f,0x32,0x81,0x40,0x80,0x3f,0x00,0x00,0x90,0x41,0x32,0x81,0x40,0x80,0x41,0x00,
                        0x00,0x80,0x37,0x00,0x00,0x80,0x30,0x00,0x00,0x90,0x3a,0x32,0x00,0x90,0x3e,0x32,0x00,0x90,
                        0x2b,0x32,0x00,0x90,0x32,0x32,0x83,0x00,0x80,0x3e,0x00,0x00,0x80,0x3a,0x00,0x00,0x90,0x37,
                        0x32,0x81,0x40,0x80,0x32,0x00,0x00,0x80,0x2b,0x00,0x00,0x90,0x2b,0x32,0x00,0x90,0x32,0x32,
                        0x81,0x40,0x80,0x37,0x00,0x00,0x90,0x3a,0x32,0x81,0x40,0x80,0x3a,0x00,0x00,0x90,0x3c,0x32,
                        0x81,0x40,0x80,0x3c,0x00,0x00,0x80,0x32,0x00,0x00,0x80,0x2b,0x00,0x00,0x90,0x3e,0x32,0x00,
                        0x90,0x2b,0x32,0x00,0x90,0x32,0x32,0x83,0x00,0x80,0x3e,0x00,0x00,0x90,0x37,0x32,0x81,0x40,
                        0x80,0x32,0x00,0x00,0x80,0x2b,0x00,0x00,0x90,0x2b,0x32,0x00,0x90,0x32,0x32,0x81,0x40,0x80,
                        0x37,0x00,0x00,0x90,0x3a,0x32,0x81,0x40,0x80,0x3a,0x00,0x00,0x90,0x3c,0x32,0x81,0x40,0x80,
                        0x3c,0x00,0x00,0x80,0x32,0x00,0x00,0x80,0x2b,0x00,0x00,0x90,0x3e,0x32,0x00,0x90,0x2b,0x32,
                        0x00,0x90,0x32,0x32,0x83,0x00,0x80,0x3e,0x00,0x00,0x90,0x37,0x32,0x81,0x40,0x80,0x32,0x00,
                        0x00,0x80,0x2b,0x00,0x00,0x90,0x2b,0x32,0x00,0x90,0x32,0x32,0x81,0x40,0x80,0x37,0x00,0x00,
                        0x90,0x3a,0x32,0x81,0x40,0x80,0x3a,0x00,0x00,0x90,0x3c,0x32,0x81,0x40,0x80,0x3c,0x00,0x00,
                        0x80,0x32,0x00,0x00,0x80,0x2b,0x00,0x00,0x90,0x3e,0x32,0x00,0x90,0x2b,0x32,0x00,0x90,0x32,
                        0x32,0x83,0x00,0x80,0x3e,0x00,0x00,0x90,0x37,0x32,0x81,0x40,0x80,0x32,0x00,0x00,0x80,0x2b,
                        0x00,0x00,0x90,0x2b,0x32,0x00,0x90,0x32,0x32,0x81,0x40,0x80,0x37,0x00,0x00,0x90,0x3a,0x32,
                        0x81,0x40,0x80,0x3a,0x00,0x00,0x90,0x3c,0x32,0x81,0x40,0x80,0x3c,0x00,0x00,0x80,0x32,0x00,
                        0x00,0x80,0x2b,0x00,0x00,0x90,0x3a,0x32,0x00,0x90,0x41,0x32,0x00,0x90,0x2e,0x32,0x00,0x90,
                        0x35,0x32,0x84,0x40,0x80,0x35,0x00,0x00,0x80,0x2e,0x00,0x00,0x90,0x2e,0x32,0x00,0x90,0x35,
                        0x32,0x83,0x60,0x80,0x41,0x00,0x00,0x80,0x3a,0x00,0x60,0x80,0x35,0x00,0x00,0x80,0x2e,0x00,
                        0x00,0x90,0x3a,0x32,0x00,0x90,0x2e,0x32,0x00,0x90,0x35,0x32,0x84,0x40,0x80,0x35,0x00,0x00,
                        0x80,0x2e,0x00,0x00,0x90,0x2e,0x32,0x00,0x90,0x35,0x32,0x83,0x60,0x80,0x3a,0x00,0x60,0x80,
                        0x35,0x00,0x00,0x80,0x2e,0x00,0x00,0x90,0x3a,0x32,0x00,0x90,0x3f,0x32,0x00,0x90,0x2e,0x32,
                        0x00,0x90,0x35,0x32,0x81,0x40,0x80,0x3f,0x00,0x00,0x80,0x3a,0x00,0x00,0x90,0x3e,0x32,0x81,
                        0x40,0x80,0x3e,0x00,0x00,0x90,0x41,0x32,0x81,0x40,0x80,0x35,0x00,0x00,0x80,0x2e,0x00,0x00,
                        0x90,0x2e,0x32,0x00,0x90,0x35,0x32,0x84,0x40,0x80,0x35,0x00,0x00,0x80,0x2e,0x00,0x00,0x80,
                        0x41,0x00,0x00,0x90,0x3a,0x32,0x00,0x90,0x2e,0x32,0x00,0x90,0x35,0x32,0x84,0x40,0x80,0x35,
                        0x00,0x00,0x80,0x2e,0x00,0x00,0x90,0x2e,0x32,0x00,0x90,0x35,0x32,0x81,0x40,0x80,0x3a,0x00,
                        0x00,0x90,0x3f,0x32,0x81,0x40,0x80,0x3f,0x00,0x00,0x90,0x3e,0x32,0x81,0x40,0x80,0x3e,0x00,
                        0x00,0x80,0x35,0x00,0x00,0x80,0x2e,0x00,0x00,0x90,0x38,0x32,0x00,0x90,0x3c,0x32,0x00,0x90,
                        0x29,0x32,0x00,0x90,0x30,0x32,0x83,0x00,0x80,0x3c,0x00,0x00,0x80,0x38,0x00,0x00,0x90,0x35,
                        0x32,0x81,0x40,0x80,0x30,0x00,0x00,0x80,0x29,0x00,0x00,0x90,0x29,0x32,0x00,0x90,0x30,0x32,
                        0x81,0x40,0x80,0x35,0x00,0x00,0x90,0x38,0x32,0x81,0x40,0x80,0x38,0x00,0x00,0x90,0x3a,0x32,
                        0x81,0x40,0x80,0x3a,0x00,0x00,0x80,0x30,0x00,0x00,0x80,0x29,0x00,0x00,0x90,0x3c,0x32,0x00,
                        0x90,0x29,0x32,0x00,0x90,0x30,0x32,0x83,0x00,0x80,0x3c,0x00,0x00,0x90,0x35,0x32,0x81,0x40,
                        0x80,0x30,0x00,0x00,0x80,0x29,0x00,0x00,0x90,0x29,0x32,0x00,0x90,0x30,0x32,0x81,0x40,0x80,
                        0x35,0x00,0x00,0x90,0x38,0x32,0x81,0x40,0x80,0x38,0x00,0x00,0x90,0x3a,0x32,0x81,0x40,0x80,
                        0x3a,0x00,0x00,0x80,0x30,0x00,0x00,0x80,0x29,0x00,0x00,0x90,0x3c,0x32,0x00,0x90,0x29,0x32,
                        0x00,0x90,0x30,0x32,0x83,0x00,0x80,0x3c,0x00,0x00,0x90,0x35,0x32,0x81,0x40,0x80,0x30,0x00,
                        0x00,0x80,0x29,0x00,0x00,0x90,0x29,0x32,0x00,0x90,0x30,0x32,0x81,0x40,0x80,0x35,0x00,0x00,
                        0x90,0x38,0x32,0x81,0x40,0x80,0x38,0x00,0x00,0x90,0x3a,0x32,0x81,0x40,0x80,0x3a,0x00,0x00,
                        0x80,0x30,0x00,0x00,0x80,0x29,0x00,0x00,0x90,0x3c,0x32,0x00,0x90,0x29,0x32,0x00,0x90,0x30,
                        0x32,0x83,0x00,0x80,0x3c,0x00,0x00,0x90,0x35,0x32,0x81,0x40,0x80,0x30,0x00,0x00,0x80,0x29,
                        0x00,0x00,0x90,0x29,0x32,0x00,0x90,0x30,0x32,0x81,0x40,0x80,0x35,0x00,0x00,0x90,0x38,0x32,
                        0x81,0x40,0x80,0x38,0x00,0x00,0x90,0x3a,0x32,0x81,0x40,0x80,0x3a,0x00,0x00,0x80,0x30,0x00,
                        0x00,0x80,0x29,0x00,0x00,0x90,0x3c,0x32,0x00,0x90,0x43,0x32,0x00,0x90,0x24,0x32,0x00,0x90,
                        0x2b,0x32,0x00,0x90,0x30,0x32,0x84,0x40,0x80,0x30,0x00,0x00,0x80,0x2b,0x00,0x00,0x80,0x24,
                        0x00,0x00,0x90,0x24,0x32,0x00,0x90,0x2b,0x32,0x00,0x90,0x30,0x32,0x81,0x40,0x80,0x30,0x00,
                        0x00,0x80,0x2b,0x00,0x00,0x80,0x24,0x00,0x00,0x90,0x24,0x32,0x00,0x90,0x2b,0x32,0x00,0x90,
                        0x30,0x32,0x82,0x20,0x80,0x43,0x00,0x00,0x80,0x3c,0x00,0x60,0x80,0x30,0x00,0x00,0x80,0x2b,
                        0x00,0x00,0x80,0x24,0x00,0x00,0x90,0x3c,0x32,0x00,0x90,0x24,0x32,0x00,0x90,0x2b,0x32,0x00,
                        0x90,0x30,0x32,0x84,0x40,0x80,0x30,0x00,0x00,0x80,0x2b,0x00,0x00,0x80,0x24,0x00,0x00,0x90,
                        0x24,0x32,0x00,0x90,0x2b,0x32,0x00,0x90,0x30,0x32,0x81,0x40,0x80,0x30,0x00,0x00,0x80,0x2b,
                        0x00,0x00,0x80,0x24,0x00,0x00,0x90,0x24,0x32,0x00,0x90,0x2b,0x32,0x00,0x90,0x30,0x32,0x82,
                        0x20,0x80,0x3c,0x00,0x60,0x80,0x30,0x00,0x00,0x80,0x2b,0x00,0x00,0x80,0x24,0x00,0x00,0x90,
                        0x3c,0x32,0x00,0x90,0x3f,0x32,0x00,0x90,0x24,0x32,0x00,0x90,0x2b,0x32,0x00,0x90,0x30,0x32,
                        0x81,0x40,0x80,0x3f,0x00,0x00,0x80,0x3c,0x00,0x00,0x90,0x41,0x32,0x81,0x40,0x80,0x41,0x00,
                        0x00,0x90,0x43,0x32,0x81,0x40,0x80,0x30,0x00,0x00,0x80,0x2b,0x00,0x00,0x80,0x24,0x00,0x00,
                        0x90,0x24,0x32,0x00,0x90,0x2b,0x32,0x00,0x90,0x30,0x32,0x81,0x40,0x80,0x30,0x00,0x00,0x80,
                        0x2b,0x00,0x00,0x80,0x24,0x00,0x00,0x90,0x24,0x32,0x00,0x90,0x2b,0x32,0x00,0x90,0x30,0x32,
                        0x83,0x00,0x80,0x30,0x00,0x00,0x80,0x2b,0x00,0x00,0x80,0x24,0x00,0x00,0x80,0x43,0x00,0x00,
                        0x90,0x3c,0x32,0x00,0x90,0x24,0x32,0x00,0x90,0x2b,0x32,0x00,0x90,0x30,0x32,0x84,0x40,0x80,
                        0x30,0x00,0x00,0x80,0x2b,0x00,0x00,0x80,0x24,0x00,0x00,0x90,0x24,0x32,0x00,0x90,0x2b,0x32,
                        0x00,0x90,0x30,0x32,0x81,0x40,0x80,0x30,0x00,0x00,0x80,0x2b,0x00,0x00,0x80,0x24,0x00,0x00,
                        0x80,0x3c,0x00,0x00,0x90,0x3f,0x32,0x00,0x90,0x24,0x32,0x00,0x90,0x2b,0x32,0x00,0x90,0x30,
                        0x32,0x81,0x40,0x80,0x3f,0x00,0x00,0x90,0x41,0x32,0x81,0x40,0x80,0x41,0x00,0x00,0x80,0x30,
                        0x00,0x00,0x80,0x2b,0x00,0x00,0x80,0x24,0x00,0x00,0x90,0x3a,0x32,0x00,0x90,0x3e,0x32,0x00,
                        0x90,0x2b,0x32,0x00,0x90,0x32,0x32,0x00,0x90,0x37,0x32,0x83,0x00,0x80,0x3e,0x00,0x00,0x80,
                        0x3a,0x00,0x00,0x90,0x37,0x32,0x81,0x40,0x80,0x37,0x00,0x00,0x80,0x32,0x00,0x00,0x80,0x2b,
                        0x00,0x00,0x90,0x2b,0x32,0x00,0x90,0x32,0x32,0x00,0x90,0x37,0x32,0x81,0x40,0x80,0x37,0x00,
                        0x00,0x80,0x32,0x00,0x00,0x80,0x2b,0x00,0x00,0x80,0x37,0x00,0x00,0x90,0x3a,0x32,0x00,0x90,
                        0x2b,0x32,0x00,0x90,0x32,0x32,0x00,0x90,0x37,0x32,0x81,0x40,0x80,0x3a,0x00,0x00,0x90,0x3c,
                        0x32,0x81,0x40,0x80,0x3c,0x00,0x00,0x80,0x37,0x00,0x00,0x80,0x32,0x00,0x00,0x80,0x2b,0x00,
                        0x00,0x90,0x3e,0x32,0x00,0x90,0x2b,0x32,0x00,0x90,0x32,0x32,0x83,0x00,0x80,0x3e,0x00,0x00,
                        0x90,0x37,0x32,0x81,0x40,0x80,0x32,0x00,0x00,0x80,0x2b,0x00,0x00,0x90,0x2b,0x32,0x00,0x90,
                        0x32,0x32,0x81,0x40,0x80,0x32,0x00,0x00,0x80,0x2b,0x00,0x00,0x80,0x37,0x00,0x00,0x90,0x3a,
                        0x32,0x00,0x90,0x2b,0x32,0x00,0x90,0x32,0x32,0x81,0x40,0x80,0x3a,0x00,0x00,0x90,0x3c,0x32,
                        0x81,0x40,0x80,0x3c,0x00,0x00,0x80,0x32,0x00,0x00,0x80,0x2b,0x00,0x00,0x90,0x3e,0x32,0x00,
                        0x90,0x2b,0x32,0x00,0x90,0x32,0x32,0x83,0x00,0x80,0x3e,0x00,0x00,0x90,0x37,0x32,0x81,0x40,
                        0x80,0x32,0x00,0x00,0x80,0x2b,0x00,0x00,0x90,0x2b,0x32,0x00,0x90,0x32,0x32,0x81,0x40,0x80,
                        0x32,0x00,0x00,0x80,0x2b,0x00,0x00,0x80,0x37,0x00,0x00,0x90,0x3a,0x32,0x00,0x90,0x2b,0x32,
                        0x00,0x90,0x32,0x32,0x81,0x40,0x80,0x3a,0x00,0x00,0x90,0x3c,0x32,0x81,0x40,0x80,0x3c,0x00,
                        0x00,0x80,0x32,0x00,0x00,0x80,0x2b,0x00,0x00,0x90,0x3e,0x32,0x00,0x90,0x2b,0x32,0x00,0x90,
                        0x32,0x32,0x83,0x00,0x80,0x3e,0x00,0x00,0x90,0x37,0x32,0x81,0x40,0x80,0x32,0x00,0x00,0x80,
                        0x2b,0x00,0x00,0x90,0x2b,0x32,0x00,0x90,0x32,0x32,0x81,0x40,0x80,0x32,0x00,0x00,0x80,0x2b,
                        0x00,0x00,0x80,0x37,0x00,0x00,0x90,0x3a,0x32,0x00,0x90,0x2b,0x32,0x00,0x90,0x32,0x32,0x81,
                        0x40,0x80,0x3a,0x00,0x00,0x90,0x3c,0x32,0x81,0x40,0x80,0x3c,0x00,0x00,0x80,0x32,0x00,0x00,
                        0x80,0x2b,0x00,0x00,0x90,0x3a,0x32,0x00,0x90,0x41,0x32,0x00,0x90,0x2e,0x32,0x00,0x90,0x35,
                        0x32,0x84,0x40,0x80,0x35,0x00,0x00,0x80,0x2e,0x00,0x00,0x90,0x2e,0x32,0x00,0x90,0x35,0x32,
                        0x81,0x40,0x80,0x35,0x00,0x00,0x80,0x2e,0x00,0x00,0x90,0x2e,0x32,0x00,0x90,0x35,0x32,0x82,
                        0x20,0x80,0x41,0x00,0x00,0x80,0x3a,0x00,0x60,0x80,0x35,0x00,0x00,0x80,0x2e,0x00,0x00,0x90,
                        0x3a,0x32,0x00,0x90,0x2e,0x32,0x00,0x90,0x35,0x32,0x84,0x40,0x80,0x35,0x00,0x00,0x80,0x2e,
                        0x00,0x00,0x90,0x2e,0x32,0x00,0x90,0x35,0x32,0x81,0x40,0x80,0x35,0x00,0x00,0x80,0x2e,0x00,
                        0x00,0x90,0x2e,0x32,0x00,0x90,0x35,0x32,0x82,0x20,0x80,0x3a,0x00,0x60,0x80,0x35,0x00,0x00,
                        0x80,0x2e,0x00,0x00,0x90,0x3a,0x32,0x00,0x90,0x3f,0x32,0x00,0x90,0x2e,0x32,0x00,0x90,0x35,
                        0x32,0x81,0x40,0x80,0x3f,0x00,0x00,0x80,0x3a,0x00,0x00,0x90,0x3e,0x32,0x81,0x40,0x80,0x3e,
                        0x00,0x00,0x90,0x41,0x32,0x81,0x40,0x80,0x35,0x00,0x00,0x80,0x2e,0x00,0x00,0x90,0x2e,0x32,
                        0x00,0x90,0x35,0x32,0x81,0x40,0x80,0x35,0x00,0x00,0x80,0x2e,0x00,0x00,0x90,0x2e,0x32,0x00,
                        0x90,0x35,0x32,0x83,0x00,0x80,0x35,0x00,0x00,0x80,0x2e,0x00,0x00,0x80,0x41,0x00,0x00,0x90,
                        0x3a,0x32,0x00,0x90,0x2e,0x32,0x00,0x90,0x35,0x32,0x84,0x40,0x80,0x35,0x00,0x00,0x80,0x2e,
                        0x00,0x00,0x90,0x2e,0x32,0x00,0x90,0x35,0x32,0x81,0x40,0x80,0x35,0x00,0x00,0x80,0x2e,0x00,
                        0x00,0x80,0x3a,0x00,0x00,0x90,0x3f,0x32,0x00,0x90,0x2e,0x32,0x00,0x90,0x35,0x32,0x81,0x40,
                        0x80,0x3f,0x00,0x00,0x90,0x3e,0x32,0x81,0x40,0x80,0x3e,0x00,0x00,0x80,0x35,0x00,0x00,0x80,
                        0x2e,0x00,0x00,0x90,0x3c,0x32,0x00,0x90,0x24,0x32,0x00,0x90,0x2b,0x32,0x00,0x90,0x30,0x32,
                        0x83,0x00,0x80,0x3c,0x00,0x00,0x90,0x37,0x32,0x81,0x40,0x80,0x30,0x00,0x00,0x80,0x2b,0x00,
                        0x00,0x80,0x24,0x00,0x00,0x90,0x24,0x32,0x00,0x90,0x2b,0x32,0x00,0x90,0x30,0x32,0x81,0x40,
                        0x80,0x30,0x00,0x00,0x80,0x2b,0x00,0x00,0x80,0x24,0x00,0x00,0x80,0x37,0x00,0x00,0x90,0x38,
                        0x32,0x00,0x90,0x24,0x32,0x00,0x90,0x2b,0x32,0x00,0x90,0x30,0x32,0x81,0x40,0x80,0x38,0x00,
                        0x00,0x90,0x3a,0x32,0x81,0x40,0x80,0x3a,0x00,0x00,0x80,0x30,0x00,0x00,0x80,0x2b,0x00,0x00,
                        0x80,0x24,0x00,0x00,0x90,0x3c,0x32,0x00,0x90,0x24,0x32,0x00,0x90,0x2b,0x32,0x00,0x90,0x30,
                        0x32,0x83,0x00,0x80,0x3c,0x00,0x00,0x90,0x37,0x32,0x81,0x40,0x80,0x30,0x00,0x00,0x80,0x2b,
                        0x00,0x00,0x80,0x24,0x00,0x00,0x90,0x24,0x32,0x00,0x90,0x2b,0x32,0x00,0x90,0x30,0x32,0x81,
                        0x40,0x80,0x30,0x00,0x00,0x80,0x2b,0x00,0x00,0x80,0x24,0x00,0x00,0x80,0x37,0x00,0x00,0x90,
                        0x38,0x32,0x00,0x90,0x24,0x32,0x00,0x90,0x2b,0x32,0x00,0x90,0x30,0x32,0x81,0x40,0x80,0x38,
                        0x00,0x00,0x90,0x3a,0x32,0x81,0x40,0x80,0x3a,0x00,0x00,0x80,0x30,0x00,0x00,0x80,0x2b,0x00,
                        0x00,0x80,0x24,0x00,0x00,0x90,0x3c,0x32,0x00,0x90,0x24,0x32,0x00,0x90,0x2b,0x32,0x00,0x90,
                        0x30,0x32,0x83,0x00,0x80,0x3c,0x00,0x00,0x90,0x37,0x32,0x81,0x40,0x80,0x30,0x00,0x00,0x80,
                        0x2b,0x00,0x00,0x80,0x24,0x00,0x00,0x90,0x24,0x32,0x00,0x90,0x2b,0x32,0x00,0x90,0x30,0x32,
                        0x81,0x40,0x80,0x30,0x00,0x00,0x80,0x2b,0x00,0x00,0x80,0x24,0x00,0x00,0x80,0x37,0x00,0x00,
                        0x90,0x38,0x32,0x00,0x90,0x24,0x32,0x00,0x90,0x2b,0x32,0x00,0x90,0x30,0x32,0x81,0x40,0x80,
                        0x38,0x00,0x00,0x90,0x3a,0x32,0x81,0x40,0x80,0x3a,0x00,0x00,0x80,0x30,0x00,0x00,0x80,0x2b,
                        0x00,0x00,0x80,0x24,0x00,0x00,0x90,0x3c,0x32,0x00,0x90,0x24,0x32,0x00,0x90,0x2b,0x32,0x00,
                        0x90,0x30,0x32,0x83,0x00,0x80,0x3c,0x00,0x00,0x90,0x37,0x32,0x81,0x40,0x80,0x30,0x00,0x00,
                        0x80,0x2b,0x00,0x00,0x80,0x24,0x00,0x00,0x90,0x24,0x32,0x00,0x90,0x2b,0x32,0x00,0x90,0x30,
                        0x32,0x81,0x40,0x80,0x30,0x00,0x00,0x80,0x2b,0x00,0x00,0x80,0x24,0x00,0x00,0x80,0x37,0x00,
                        0x00,0x90,0x38,0x32,0x00,0x90,0x24,0x32,0x00,0x90,0x2b,0x32,0x00,0x90,0x30,0x32,0x81,0x40,
                        0x80,0x38,0x00,0x00,0x90,0x3a,0x32,0x81,0x40,0x80,0x3a,0x00,0x00,0x80,0x30,0x00,0x00,0x80,
                        0x2b,0x00,0x00,0x80,0x24,0x00,0x00,0x90,0x43,0x32,0x00,0x90,0x48,0x32,0x00,0x90,0x4b,0x32,
                        0x00,0x90,0x4f,0x32,0x00,0x90,0x24,0x32,0x81,0x40,0x80,0x24,0x00,0x00,0x90,0x2b,0x32,0x81,
                        0x40,0x80,0x2b,0x00,0x00,0x90,0x30,0x32,0x81,0x40,0x80,0x30,0x00,0x00,0x90,0x33,0x32,0x81,
                        0x40,0x80,0x33,0x00,0x00,0x90,0x37,0x32,0x83,0x00,0x80,0x37,0x00,0x00,0x80,0x4f,0x00,0x00,
                        0x80,0x4b,0x00,0x00,0x80,0x48,0x00,0x00,0x80,0x43,0x00,0x00,0x90,0x3c,0x32,0x00,0x90,0x43,
                        0x32,0x00,0x90,0x48,0x32,0x00,0x90,0x24,0x32,0x81,0x40,0x80,0x24,0x00,0x00,0x90,0x2b,0x32,
                        0x81,0x40,0x80,0x2b,0x00,0x00,0x90,0x30,0x32,0x81,0x40,0x80,0x30,0x00,0x00,0x90,0x33,0x32,
                        0x81,0x40,0x80,0x33,0x00,0x00,0x90,0x37,0x32,0x82,0x20,0x80,0x48,0x00,0x00,0x80,0x43,0x00,
                        0x00,0x80,0x3c,0x00,0x60,0x80,0x37,0x00,0x00,0x90,0x3f,0x32,0x00,0x90,0x4b,0x32,0x00,0x90,
                        0x24,0x32,0x81,0x40,0x80,0x24,0x00,0x00,0x80,0x4b,0x00,0x00,0x80,0x3f,0x00,0x00,0x90,0x41,
                        0x32,0x00,0x90,0x4d,0x32,0x00,0x90,0x2b,0x32,0x81,0x40,0x80,0x2b,0x00,0x00,0x80,0x4d,0x00,
                        0x00,0x80,0x41,0x00,0x00,0x90,0x43,0x32,0x00,0x90,0x4f,0x32,0x00,0x90,0x30,0x32,0x81,0x40,
                        0x80,0x30,0x00,0x00,0x90,0x33,0x32,0x81,0x40,0x80,0x33,0x00,0x00,0x90,0x37,0x32,0x83,0x00,
                        0x80,0x37,0x00,0x00,0x80,0x4f,0x00,0x00,0x80,0x43,0x00,0x00,0x90,0x3c,0x32,0x00,0x90,0x43,
                        0x32,0x00,0x90,0x48,0x32,0x00,0x90,0x24,0x32,0x81,0x40,0x80,0x24,0x00,0x00,0x90,0x2b,0x32,
                        0x81,0x40,0x80,0x2b,0x00,0x00,0x90,0x30,0x32,0x81,0x40,0x80,0x30,0x00,0x00,0x90,0x33,0x32,
                        0x81,0x40,0x80,0x33,0x00,0x00,0x80,0x48,0x00,0x00,0x80,0x43,0x00,0x00,0x80,0x3c,0x00,0x00,
                        0x90,0x3f,0x32,0x00,0x90,0x4b,0x32,0x00,0x90,0x37,0x32,0x81,0x40,0x80,0x4b,0x00,0x00,0x80,
                        0x3f,0x00,0x00,0x90,0x41,0x32,0x00,0x90,0x4d,0x32,0x81,0x40,0x80,0x4d,0x00,0x00,0x80,0x41,
                        0x00,0x00,0x80,0x37,0x00,0x00,0x90,0x3e,0x32,0x00,0x90,0x46,0x32,0x00,0x90,0x4a,0x32,0x00,
                        0x90,0x2b,0x32,0x81,0x40,0x80,0x2b,0x00,0x00,0x90,0x32,0x32,0x81,0x40,0x80,0x32,0x00,0x00,
                        0x90,0x37,0x32,0x81,0x40,0x80,0x37,0x00,0x00,0x90,0x32,0x32,0x81,0x40,0x80,0x32,0x00,0x00,
                        0x80,0x3e,0x00,0x00,0x90,0x3a,0x32,0x00,0x90,0x37,0x32,0x81,0x40,0x80,0x37,0x00,0x00,0x80,
                        0x3a,0x00,0x00,0x90,0x3c,0x32,0x00,0x90,0x32,0x32,0x81,0x40,0x80,0x32,0x00,0x00,0x80,0x3c,
                        0x00,0x00,0x90,0x3e,0x32,0x00,0x90,0x2b,0x32,0x81,0x40,0x80,0x2b,0x00,0x00,0x90,0x32,0x32,
                        0x81,0x40,0x80,0x32,0x00,0x00,0x90,0x37,0x32,0x81,0x40,0x80,0x37,0x00,0x00,0x90,0x32,0x32,
                        0x81,0x40,0x80,0x32,0x00,0x00,0x80,0x3e,0x00,0x00,0x90,0x3a,0x32,0x00,0x90,0x37,0x32,0x81,
                        0x40,0x80,0x37,0x00,0x00,0x80,0x3a,0x00,0x00,0x90,0x3c,0x32,0x00,0x90,0x32,0x32,0x81,0x40,
                        0x80,0x32,0x00,0x00,0x80,0x3c,0x00,0x00,0x90,0x3e,0x32,0x00,0x90,0x2b,0x32,0x81,0x40,0x80,
                        0x2b,0x00,0x00,0x90,0x32,0x32,0x81,0x40,0x80,0x32,0x00,0x00,0x90,0x37,0x32,0x81,0x40,0x80,
                        0x37,0x00,0x00,0x90,0x32,0x32,0x81,0x40,0x80,0x32,0x00,0x00,0x80,0x3e,0x00,0x00,0x90,0x3a,
                        0x32,0x00,0x90,0x37,0x32,0x81,0x40,0x80,0x37,0x00,0x00,0x80,0x3a,0x00,0x00,0x90,0x3c,0x32,
                        0x00,0x90,0x32,0x32,0x81,0x40,0x80,0x32,0x00,0x00,0x80,0x3c,0x00,0x00,0x90,0x3e,0x32,0x00,
                        0x90,0x2b,0x32,0x81,0x40,0x80,0x2b,0x00,0x00,0x90,0x32,0x32,0x81,0x40,0x80,0x32,0x00,0x00,
                        0x90,0x37,0x32,0x81,0x40,0x80,0x37,0x00,0x00,0x90,0x32,0x32,0x81,0x40,0x80,0x32,0x00,0x00,
                        0x80,0x3e,0x00,0x00,0x90,0x3a,0x32,0x00,0x90,0x37,0x32,0x81,0x40,0x80,0x37,0x00,0x00,0x80,
                        0x3a,0x00,0x00,0x80,0x4a,0x00,0x00,0x80,0x46,0x00,0x00,0x90,0x3c,0x32,0x00,0x90,0x32,0x32,
                        0x81,0x40,0x80,0x32,0x00,0x00,0x80,0x3c,0x00,0x00,0x90,0x41,0x32,0x00,0x90,0x46,0x32,0x00,
                        0x90,0x4d,0x32,0x00,0x90,0x2e,0x32,0x81,0x40,0x80,0x2e,0x00,0x00,0x90,0x35,0x32,0x81,0x40,
                        0x80,0x35,0x00,0x00,0x90,0x3a,0x32,0x81,0x40,0x80,0x3a,0x00,0x00,0x90,0x35,0x32,0x81,0x40,
                        0x80,0x35,0x00,0x00,0x90,0x3a,0x32,0x81,0x40,0x80,0x3a,0x00,0x00,0x90,0x35,0x32,0x81,0x40,
                        0x80,0x35,0x00,0x00,0x80,0x4d,0x00,0x00,0x80,0x46,0x00,0x00,0x80,0x41,0x00,0x00,0x90,0x3a,
                        0x32,0x00,0x90,0x41,0x32,0x00,0x90,0x46,0x32,0x00,0x90,0x2e,0x32,0x81,0x40,0x80,0x2e,0x00,
                        0x00,0x90,0x35,0x32,0x81,0x40,0x80,0x35,0x00,0x00,0x90,0x3a,0x32,0x81,0x40,0x80,0x3a,0x00,
                        0x00,0x90,0x35,0x32,0x81,0x40,0x80,0x35,0x00,0x00,0x90,0x3a,0x32,0x81,0x40,0x80,0x3a,0x00,
                        0x00,0x90,0x35,0x32,0x60,0x80,0x46,0x00,0x00,0x80,0x41,0x00,0x00,0x80,0x3a,0x00,0x60,0x80,
                        0x35,0x00,0x00,0x90,0x3e,0x32,0x00,0x90,0x46,0x32,0x00,0x90,0x4a,0x32,0x00,0x90,0x2e,0x32,
                        0x81,0x40,0x80,0x2e,0x00,0x00,0x90,0x35,0x32,0x81,0x40,0x80,0x35,0x00,0x00,0x90,0x3a,0x32,
                        0x81,0x40,0x80,0x3a,0x00,0x00,0x80,0x4a,0x00,0x00,0x80,0x46,0x00,0x00,0x80,0x3e,0x00,0x00,
                        0x90,0x3f,0x32,0x00,0x90,0x46,0x32,0x00,0x90,0x4b,0x32,0x00,0x90,0x35,0x32,0x81,0x40,0x80,
                        0x35,0x00,0x00,0x90,0x3a,0x32,0x81,0x40,0x80,0x3a,0x00,0x00,0x90,0x35,0x32,0x81,0x40,0x80,
                        0x35,0x00,0x00,0x80,0x4b,0x00,0x00,0x80,0x46,0x00,0x00,0x80,0x3f,0x00,0x00,0x90,0x3e,0x32,
                        0x00,0x90,0x46,0x32,0x00,0x90,0x4a,0x32,0x00,0x90,0x2e,0x32,0x81,0x40,0x80,0x2e,0x00,0x00,
                        0x90,0x35,0x32,0x81,0x40,0x80,0x35,0x00,0x00,0x90,0x3a,0x32,0x81,0x40,0x80,0x3a,0x00,0x00,
                        0x80,0x4a,0x00,0x00,0x80,0x46,0x00,0x00,0x80,0x3e,0x00,0x00,0x90,0x3a,0x32,0x00,0x90,0x41,
                        0x32,0x00,0x90,0x46,0x32,0x00,0x90,0x35,0x32,0x81,0x40,0x80,0x35,0x00,0x00,0x90,0x3a,0x32,
                        0x81,0x40,0x80,0x3a,0x00,0x00,0x90,0x35,0x32,0x81,0x40,0x80,0x35,0x00,0x00,0x80,0x46,0x00,
                        0x00,0x80,0x41,0x00,0x00,0x80,0x3a,0x00,0x00,0x90,0x3c,0x32,0x00,0x90,0x3f,0x32,0x00,0x90,
                        0x48,0x32,0x00,0x90,0x24,0x32,0x81,0x40,0x80,0x24,0x00,0x00,0x90,0x2b,0x32,0x81,0x40,0x80,
                        0x2b,0x00,0x00,0x80,0x3c,0x00,0x00,0x90,0x37,0x32,0x00,0x90,0x30,0x32,0x81,0x40,0x80,0x30,
                        0x00,0x00,0x90,0x2b,0x32,0x81,0x40,0x80,0x2b,0x00,0x00,0x80,0x37,0x00,0x00,0x90,0x38,0x32,
                        0x00,0x90,0x30,0x32,0x81,0x40,0x80,0x30,0x00,0x00,0x80,0x38,0x00,0x00,0x90,0x3a,0x32,0x00,
                        0x90,0x2b,0x32,0x81,0x40,0x80,0x2b,0x00,0x00,0x80,0x3a,0x00,0x00,0x90,0x3c,0x32,0x00,0x90,
                        0x24,0x32,0x81,0x40,0x80,0x24,0x00,0x00,0x90,0x2b,0x32,0x81,0x40,0x80,0x2b,0x00,0x00,0x80,
                        0x3c,0x00,0x00,0x90,0x37,0x32,0x00,0x90,0x30,0x32,0x81,0x40,0x80,0x30,0x00,0x00,0x90,0x2b,
                        0x32,0x81,0x40,0x80,0x2b,0x00,0x00,0x80,0x37,0x00,0x00,0x90,0x38,0x32,0x00,0x90,0x30,0x32,
                        0x81,0x40,0x80,0x30,0x00,0x00,0x80,0x38,0x00,0x00,0x90,0x3a,0x32,0x00,0x90,0x2b,0x32,0x81,
                        0x40,0x80,0x2b,0x00,0x00,0x80,0x3a,0x00,0x00,0x90,0x3c,0x32,0x00,0x90,0x24,0x32,0x81,0x40,
                        0x80,0x24,0x00,0x00,0x90,0x2b,0x32,0x81,0x40,0x80,0x2b,0x00,0x00,0x80,0x3c,0x00,0x00,0x90,
                        0x37,0x32,0x00,0x90,0x30,0x32,0x81,0x40,0x80,0x30,0x00,0x00,0x90,0x2b,0x32,0x81,0x40,0x80,
                        0x2b,0x00,0x00,0x80,0x37,0x00,0x00,0x90,0x38,0x32,0x00,0x90,0x30,0x32,0x81,0x40,0x80,0x30,
                        0x00,0x00,0x80,0x38,0x00,0x00,0x90,0x3a,0x32,0x00,0x90,0x2b,0x32,0x81,0x40,0x80,0x2b,0x00,
                        0x00,0x80,0x3a,0x00,0x00,0x90,0x3c,0x32,0x00,0x90,0x24,0x32,0x81,0x40,0x80,0x24,0x00,0x00,
                        0x90,0x2b,0x32,0x81,0x40,0x80,0x2b,0x00,0x00,0x80,0x3c,0x00,0x00,0x90,0x37,0x32,0x00,0x90,
                        0x30,0x32,0x81,0x40,0x80,0x30,0x00,0x00,0x90,0x2b,0x32,0x81,0x40,0x80,0x2b,0x00,0x00,0x80,
                        0x37,0x00,0x00,0x90,0x38,0x32,0x00,0x90,0x30,0x32,0x81,0x40,0x80,0x30,0x00,0x00,0x80,0x38,
                        0x00,0x00,0x80,0x48,0x00,0x00,0x80,0x3f,0x00,0x00,0x90,0x3a,0x32,0x00,0x90,0x2b,0x32,0x81,
                        0x40,0x80,0x2b,0x00,0x00,0x80,0x3a,0x00,0x00,0x90,0x3c,0x32,0x00,0x90,0x48,0x32,0x00,0x90,
                        0x2c,0x32,0x00,0x90,0x33,0x32,0x83,0x00,0x80,0x3c,0x00,0x00,0x90,0x33,0x32,0x81,0x40,0x80,
                        0x33,0x00,0x00,0x80,0x2c,0x00,0x00,0x90,0x2c,0x32,0x00,0x90,0x33,0x32,0x81,0x40,0x80,0x33,
                        0x00,0x00,0x90,0x38,0x32,0x81,0x40,0x80,0x38,0x00,0x00,0x90,0x3a,0x32,0x81,0x40,0x80,0x3a,
                        0x00,0x00,0x80,0x33,0x00,0x00,0x80,0x2c,0x00,0x00,0x90,0x3c,0x32,0x00,0x90,0x2c,0x32,0x00,
                        0x90,0x33,0x32,0x83,0x00,0x80,0x3c,0x00,0x00,0x90,0x33,0x32,0x81,0x40,0x80,0x33,0x00,0x00,
                        0x80,0x2c,0x00,0x00,0x90,0x2c,0x32,0x00,0x90,0x33,0x32,0x81,0x40,0x80,0x33,0x00,0x00,0x90,
                        0x38,0x32,0x81,0x40,0x80,0x38,0x00,0x00,0x90,0x3c,0x32,0x60,0x80,0x48,0x00,0x60,0x80,0x3c,
                        0x00,0x00,0x80,0x33,0x00,0x00,0x80,0x2c,0x00,0x00,0x90,0x3a,0x32,0x00,0x90,0x3f,0x32,0x00,
                        0x90,0x46,0x32,0x00,0x90,0x27,0x32,0x00,0x90,0x2e,0x32,0x83,0x00,0x80,0x3a,0x00,0x00,0x90,
                        0x33,0x32,0x81,0x40,0x80,0x2e,0x00,0x00,0x80,0x27,0x00,0x00,0x90,0x27,0x32,0x00,0x90,0x2e,
                        0x32,0x81,0x40,0x80,0x33,0x00,0x00,0x90,0x37,0x32,0x81,0x40,0x80,0x37,0x00,0x00,0x90,0x38,
                        0x32,0x81,0x40,0x80,0x38,0x00,0x00,0x80,0x2e,0x00,0x00,0x80,0x27,0x00,0x00,0x90,0x3a,0x32,
                        0x00,0x90,0x27,0x32,0x00,0x90,0x2e,0x32,0x83,0x00,0x80,0x3a,0x00,0x00,0x90,0x33,0x32,0x81,
                        0x40,0x80,0x2e,0x00,0x00,0x80,0x27,0x00,0x00,0x90,0x27,0x32,0x00,0x90,0x2e,0x32,0x81,0x40,
                        0x80,0x33,0x00,0x00,0x90,0x37,0x32,0x81,0x40,0x80,0x37,0x00,0x00,0x90,0x38,0x32,0x60,0x80,
                        0x46,0x00,0x00,0x80,0x3f,0x00,0x60,0x80,0x38,0x00,0x00,0x80,0x2e,0x00,0x00,0x80,0x27,0x00,
                        0x00,0x90,0x38,0x32,0x00,0x90,0x41,0x32,0x00,0x90,0x44,0x32,0x00,0x90,0x29,0x32,0x00,0x90,
                        0x30,0x32,0x83,0x00,0x80,0x38,0x00,0x00,0x90,0x30,0x32,0x81,0x40,0x80,0x30,0x00,0x00,0x80,
                        0x29,0x00,0x00,0x90,0x29,0x32,0x00,0x90,0x30,0x32,0x81,0x40,0x80,0x30,0x00,0x00,0x90,0x35,
                        0x32,0x81,0x40,0x80,0x35,0x00,0x00,0x90,0x37,0x32,0x81,0x40,0x80,0x37,0x00,0x00,0x80,0x30,
                        0x00,0x00,0x80,0x29,0x00,0x00,0x90,0x38,0x32,0x00,0x90,0x29,0x32,0x00,0x90,0x30,0x32,0x83,
                        0x00,0x80,0x38,0x00,0x00,0x90,0x30,0x32,0x81,0x40,0x80,0x30,0x00,0x00,0x80,0x29,0x00,0x00,
                        0x90,0x29,0x32,0x00,0x90,0x30,0x32,0x81,0x40,0x80,0x30,0x00,0x00,0x90,0x35,0x32,0x81,0x40,
                        0x80,0x35,0x00,0x00,0x90,0x38,0x32,0x60,0x80,0x44,0x00,0x00,0x80,0x41,0x00,0x60,0x80,0x38,
                        0x00,0x00,0x80,0x30,0x00,0x00,0x80,0x29,0x00,0x00,0x90,0x37,0x32,0x00,0x90,0x3c,0x32,0x00,
                        0x90,0x3f,0x32,0x00,0x90,0x43,0x32,0x00,0x90,0x24,0x32,0x00,0x90,0x2b,0x32,0x83,0x00,0x80,
                        0x37,0x00,0x00,0x90,0x30,0x32,0x81,0x40,0x80,0x2b,0x00,0x00,0x80,0x24,0x00,0x00,0x90,0x24,
                        0x32,0x00,0x90,0x2b,0x32,0x81,0x40,0x80,0x30,0x00,0x00,0x90,0x33,0x32,0x81,0x40,0x80,0x33,
                        0x00,0x00,0x90,0x35,0x32,0x81,0x40,0x80,0x35,0x00,0x00,0x80,0x2b,0x00,0x00,0x80,0x24,0x00,
                        0x00,0x90,0x37,0x32,0x00,0x90,0x24,0x32,0x00,0x90,0x2b,0x32,0x83,0x00,0x80,0x37,0x00,0x00,
                        0x90,0x30,0x32,0x81,0x40,0x80,0x2b,0x00,0x00,0x80,0x24,0x00,0x00,0x90,0x24,0x32,0x00,0x90,
                        0x2b,0x32,0x81,0x40,0x80,0x30,0x00,0x00,0x90,0x33,0x32,0x81,0x40,0x80,0x33,0x00,0x00,0x90,
                        0x35,0x32,0x60,0x80,0x43,0x00,0x00,0x80,0x3f,0x00,0x00,0x80,0x3c,0x00,0x60,0x80,0x35,0x00,
                        0x00,0x80,0x2b,0x00,0x00,0x80,0x24,0x00,0x00,0x90,0x33,0x32,0x00,0x90,0x3f,0x32,0x00,0x90,
                        0x20,0x32,0x00,0x90,0x27,0x32,0x83,0x00,0x80,0x33,0x00,0x00,0x90,0x2c,0x32,0x81,0x40,0x80,
                        0x27,0x00,0x00,0x80,0x20,0x00,0x00,0x90,0x20,0x32,0x00,0x90,0x27,0x32,0x81,0x40,0x80,0x2c,
                        0x00,0x00,0x90,0x30,0x32,0x81,0x40,0x80,0x30,0x00,0x00,0x90,0x32,0x32,0x81,0x40,0x80,0x32,
                        0x00,0x00,0x80,0x27,0x00,0x00,0x80,0x20,0x00,0x00,0x90,0x33,0x32,0x00,0x90,0x20,0x32,0x00,
                        0x90,0x27,0x32,0x83,0x00,0x80,0x33,0x00,0x00,0x90,0x2c,0x32,0x81,0x40,0x80,0x27,0x00,0x00,
                        0x80,0x20,0x00,0x00,0x90,0x20,0x32,0x00,0x90,0x27,0x32,0x81,0x40,0x80,0x2c,0x00,0x00,0x90,
                        0x30,0x32,0x81,0x40,0x80,0x30,0x00,0x00,0x90,0x32,0x32,0x60,0x80,0x3f,0x00,0x60,0x80,0x32,
                        0x00,0x00,0x80,0x27,0x00,0x00,0x80,0x20,0x00,0x00,0x90,0x33,0x32,0x00,0x90,0x3f,0x32,0x00,
                        0x90,0x29,0x32,0x00,0x90,0x30,0x32,0x83,0x00,0x80,0x33,0x00,0x00,0x90,0x30,0x32,0x81,0x40,
                        0x80,0x30,0x00,0x00,0x80,0x29,0x00,0x00,0x90,0x29,0x32,0x00,0x90,0x30,0x32,0x81,0x40,0x80,
                        0x30,0x00,0x00,0x80,0x3f,0x00,0x00,0x90,0x33,0x32,0x00,0x90,0x3f,0x32,0x83,0x00,0x80,0x3f,
                        0x00,0x00,0x80,0x33,0x00,0x00,0x80,0x30,0x00,0x00,0x80,0x29,0x00,0x00,0x90,0x35,0x32,0x00,
                        0x90,0x41,0x32,0x00,0x90,0x29,0x32,0x00,0x90,0x30,0x32,0x83,0x00,0x80,0x35,0x00,0x00,0x90,
                        0x32,0x32,0x81,0x40,0x80,0x30,0x00,0x00,0x80,0x29,0x00,0x00,0x90,0x29,0x32,0x00,0x90,0x30,
                        0x32,0x81,0x40,0x80,0x32,0x00,0x00,0x80,0x41,0x00,0x00,0x90,0x35,0x32,0x00,0x90,0x41,0x32,
                        0x83,0x00,0x80,0x41,0x00,0x00,0x80,0x35,0x00,0x00,0x80,0x30,0x00,0x00,0x80,0x29,0x00,0x00,
                        0x90,0x37,0x32,0x00,0x90,0x3c,0x32,0x00,0x90,0x43,0x32,0x00,0x90,0x24,0x32,0x00,0x90,0x2b,
                        0x32,0x00,0x90,0x30,0x32,0x83,0x00,0x80,0x3c,0x00,0x00,0x80,0x37,0x00,0x00,0x90,0x37,0x32,
                        0x81,0x40,0x80,0x30,0x00,0x00,0x80,0x2b,0x00,0x00,0x80,0x24,0x00,0x00,0x90,0x24,0x32,0x00,
                        0x90,0x2b,0x32,0x00,0x90,0x30,0x32,0x81,0x40,0x80,0x30,0x00,0x00,0x80,0x2b,0x00,0x00,0x80,
                        0x24,0x00,0x00,0x80,0x37,0x00,0x00,0x90,0x38,0x32,0x00,0x90,0x24,0x32,0x00,0x90,0x2b,0x32,
                        0x00,0x90,0x30,0x32,0x81,0x40,0x80,0x38,0x00,0x00,0x90,0x3a,0x32,0x81,0x40,0x80,0x3a,0x00,
                        0x00,0x80,0x30,0x00,0x00,0x80,0x2b,0x00,0x00,0x80,0x24,0x00,0x00,0x90,0x3c,0x32,0x00,0x90,
                        0x24,0x32,0x00,0x90,0x2b,0x32,0x00,0x90,0x30,0x32,0x83,0x00,0x80,0x3c,0x00,0x00,0x90,0x37,
                        0x32,0x81,0x40,0x80,0x30,0x00,0x00,0x80,0x2b,0x00,0x00,0x80,0x24,0x00,0x00,0x90,0x24,0x32,
                        0x00,0x90,0x2b,0x32,0x00,0x90,0x30,0x32,0x81,0x40,0x80,0x30,0x00,0x00,0x80,0x2b,0x00,0x00,
                        0x80,0x24,0x00,0x00,0x80,0x37,0x00,0x00,0x90,0x38,0x32,0x00,0x90,0x24,0x32,0x00,0x90,0x2b,
                        0x32,0x00,0x90,0x30,0x32,0x81,0x40,0x80,0x38,0x00,0x00,0x90,0x3a,0x32,0x81,0x40,0x80,0x3a,
                        0x00,0x00,0x80,0x30,0x00,0x00,0x80,0x2b,0x00,0x00,0x80,0x24,0x00,0x00,0x90,0x3c,0x32,0x00,
                        0x90,0x24,0x32,0x00,0x90,0x2b,0x32,0x00,0x90,0x30,0x32,0x83,0x00,0x80,0x3c,0x00,0x00,0x90,
                        0x37,0x32,0x81,0x40,0x80,0x30,0x00,0x00,0x80,0x2b,0x00,0x00,0x80,0x24,0x00,0x00,0x90,0x24,
                        0x32,0x00,0x90,0x2b,0x32,0x00,0x90,0x30,0x32,0x81,0x40,0x80,0x30,0x00,0x00,0x80,0x2b,0x00,
                        0x00,0x80,0x24,0x00,0x00,0x80,0x37,0x00,0x00,0x90,0x38,0x32,0x00,0x90,0x24,0x32,0x00,0x90,
                        0x2b,0x32,0x00,0x90,0x30,0x32,0x81,0x40,0x80,0x38,0x00,0x00,0x90,0x3a,0x32,0x81,0x40,0x80,
                        0x3a,0x00,0x00,0x80,0x30,0x00,0x00,0x80,0x2b,0x00,0x00,0x80,0x24,0x00,0x00,0x90,0x3c,0x32,
                        0x00,0x90,0x24,0x32,0x00,0x90,0x2b,0x32,0x00,0x90,0x30,0x32,0x83,0x00,0x80,0x3c,0x00,0x00,
                        0x90,0x37,0x32,0x81,0x40,0x80,0x30,0x00,0x00,0x80,0x2b,0x00,0x00,0x80,0x24,0x00,0x00,0x90,
                        0x24,0x32,0x00,0x90,0x2b,0x32,0x00,0x90,0x30,0x32,0x81,0x40,0x80,0x30,0x00,0x00,0x80,0x2b,
                        0x00,0x00,0x80,0x24,0x00,0x00,0x80,0x37,0x00,0x00,0x90,0x38,0x32,0x00,0x90,0x24,0x32,0x00,
                        0x90,0x2b,0x32,0x00,0x90,0x30,0x32,0x81,0x40,0x80,0x38,0x00,0x00,0x80,0x43,0x00,0x00,0x90,
                        0x3a,0x32,0x81,0x40,0x80,0x3a,0x00,0x00,0x80,0x30,0x00,0x00,0x80,0x2b,0x00,0x00,0x80,0x24,
                        0x00,0x00,0x90,0x48,0x32,0x00,0x90,0x48,0x32,0x00,0x90,0x4b,0x32,0x00,0x90,0x50,0x32,0x00,
                        0x90,0x54,0x32,0x00,0x90,0x2c,0x32,0x00,0x90,0x33,0x32,0x00,0x90,0x38,0x32,0x83,0x00,0x80,
                        0x48,0x00,0x00,0x90,0x3f,0x32,0x81,0x40,0x80,0x38,0x00,0x00,0x80,0x33,0x00,0x00,0x80,0x2c,
                        0x00,0x00,0x90,0x2c,0x32,0x00,0x90,0x33,0x32,0x00,0x90,0x38,0x32,0x81,0x40,0x80,0x38,0x00,
                        0x00,0x80,0x33,0x00,0x00,0x80,0x2c,0x00,0x00,0x80,0x3f,0x00,0x00,0x90,0x44,0x32,0x00,0x90,
                        0x2c,0x32,0x00,0x90,0x33,0x32,0x00,0x90,0x38,0x32,0x81,0x40,0x80,0x38,0x00,0x00,0x80,0x33,
                        0x00,0x00,0x80,0x2c,0x00,0x00,0x80,0x44,0x00,0x00,0x90,0x46,0x32,0x00,0x90,0x2c,0x32,0x00,
                        0x90,0x33,0x32,0x00,0x90,0x38,0x32,0x81,0x40,0x80,0x38,0x00,0x00,0x80,0x33,0x00,0x00,0x80,
                        0x2c,0x00,0x00,0x80,0x46,0x00,0x00,0x90,0x48,0x32,0x00,0x90,0x2c,0x32,0x00,0x90,0x33,0x32,
                        0x00,0x90,0x38,0x32,0x83,0x00,0x80,0x48,0x00,0x00,0x90,0x3f,0x32,0x81,0x40,0x80,0x38,0x00,
                        0x00,0x80,0x33,0x00,0x00,0x80,0x2c,0x00,0x00,0x90,0x2c,0x32,0x00,0x90,0x33,0x32,0x00,0x90,
                        0x38,0x32,0x81,0x40,0x80,0x38,0x00,0x00,0x80,0x33,0x00,0x00,0x80,0x2c,0x00,0x00,0x80,0x3f,
                        0x00,0x00,0x90,0x44,0x32,0x00,0x90,0x2c,0x32,0x00,0x90,0x33,0x32,0x00,0x90,0x38,0x32,0x81,
                        0x40,0x80,0x38,0x00,0x00,0x80,0x33,0x00,0x00,0x80,0x2c,0x00,0x00,0x80,0x44,0x00,0x00,0x90,
                        0x46,0x32,0x00,0x90,0x2c,0x32,0x00,0x90,0x33,0x32,0x00,0x90,0x38,0x32,0x60,0x80,0x54,0x00,
                        0x00,0x80,0x50,0x00,0x00,0x80,0x4b,0x00,0x00,0x80,0x48,0x00,0x60,0x80,0x38,0x00,0x00,0x80,
                        0x33,0x00,0x00,0x80,0x2c,0x00,0x00,0x80,0x46,0x00,0x00,0x90,0x46,0x32,0x00,0x90,0x46,0x32,
                        0x00,0x90,0x4b,0x32,0x00,0x90,0x52,0x32,0x00,0x90,0x24,0x32,0x00,0x90,0x2b,0x32,0x00,0x90,
                        0x30,0x32,0x83,0x00,0x80,0x46,0x00,0x00,0x90,0x3f,0x32,0x81,0x40,0x80,0x30,0x00,0x00,0x80,
                        0x2b,0x00,0x00,0x80,0x24,0x00,0x00,0x90,0x24,0x32,0x00,0x90,0x2b,0x32,0x00,0x90,0x30,0x32,
                        0x81,0x40,0x80,0x30,0x00,0x00,0x80,0x2b,0x00,0x00,0x80,0x24,0x00,0x00,0x80,0x3f,0x00,0x00,
                        0x90,0x43,0x32,0x00,0x90,0x24,0x32,0x00,0x90,0x2b,0x32,0x00,0x90,0x30,0x32,0x81,0x40,0x80,
                        0x30,0x00,0x00,0x80,0x2b,0x00,0x00,0x80,0x24,0x00,0x00,0x80,0x43,0x00,0x00,0x90,0x44,0x32,
                        0x00,0x90,0x24,0x32,0x00,0x90,0x2b,0x32,0x00,0x90,0x30,0x32,0x81,0x40,0x80,0x30,0x00,0x00,
                        0x80,0x2b,0x00,0x00,0x80,0x24,0x00,0x00,0x80,0x44,0x00,0x00,0x90,0x46,0x32,0x00,0x90,0x24,
                        0x32,0x00,0x90,0x2b,0x32,0x00,0x90,0x30,0x32,0x83,0x00,0x80,0x46,0x00,0x00,0x90,0x3f,0x32,
                        0x81,0x40,0x80,0x30,0x00,0x00,0x80,0x2b,0x00,0x00,0x80,0x24,0x00,0x00,0x90,0x24,0x32,0x00,
                        0x90,0x2b,0x32,0x00,0x90,0x30,0x32,0x81,0x40,0x80,0x30,0x00,0x00,0x80,0x2b,0x00,0x00,0x80,
                        0x24,0x00,0x00,0x80,0x3f,0x00,0x00,0x90,0x44,0x32,0x00,0x90,0x24,0x32,0x00,0x90,0x2b,0x32,
                        0x00,0x90,0x30,0x32,0x81,0x40,0x80,0x30,0x00,0x00,0x80,0x2b,0x00,0x00,0x80,0x24,0x00,0x00,
                        0x80,0x44,0x00,0x00,0x90,0x46,0x32,0x00,0x90,0x24,0x32,0x00,0x90,0x2b,0x32,0x00,0x90,0x30,
                        0x32,0x60,0x80,0x52,0x00,0x00,0x80,0x4b,0x00,0x00,0x80,0x46,0x00,0x60,0x80,0x30,0x00,0x00,
                        0x80,0x2b,0x00,0x00,0x80,0x24,0x00,0x00,0x80,0x46,0x00,0x00,0x90,0x44,0x32,0x00,0x90,0x44,
                        0x32,0x00,0x90,0x4d,0x32,0x00,0x90,0x50,0x32,0x00,0x90,0x29,0x32,0x00,0x90,0x30,0x32,0x00,
                        0x90,0x35,0x32,0x83,0x00,0x80,0x44,0x00,0x00,0x90,0x3c,0x32,0x81,0x40,0x80,0x35,0x00,0x00,
                        0x80,0x30,0x00,0x00,0x80,0x29,0x00,0x00,0x90,0x29,0x32,0x00,0x90,0x30,0x32,0x00,0x90,0x35,
                        0x32,0x81,0x40,0x80,0x35,0x00,0x00,0x80,0x30,0x00,0x00,0x80,0x29,0x00,0x00,0x80,0x3c,0x00,
                        0x00,0x90,0x41,0x32,0x00,0x90,0x29,0x32,0x00,0x90,0x30,0x32,0x00,0x90,0x35,0x32,0x81,0x40,
                        0x80,0x35,0x00,0x00,0x80,0x30,0x00,0x00,0x80,0x29,0x00,0x00,0x80,0x41,0x00,0x00,0x90,0x43,
                        0x32,0x00,0x90,0x29,0x32,0x00,0x90,0x30,0x32,0x00,0x90,0x35,0x32,0x81,0x40,0x80,0x35,0x00,
                        0x00,0x80,0x30,0x00,0x00,0x80,0x29,0x00,0x00,0x80,0x43,0x00,0x00,0x90,0x44,0x32,0x00,0x90,
                        0x29,0x32,0x00,0x90,0x30,0x32,0x00,0x90,0x35,0x32,0x83,0x00,0x80,0x44,0x00,0x00,0x90,0x3c,
                        0x32,0x81,0x40,0x80,0x35,0x00,0x00,0x80,0x30,0x00,0x00,0x80,0x29,0x00,0x00,0x90,0x29,0x32,
                        0x00,0x90,0x30,0x32,0x00,0x90,0x35,0x32,0x81,0x40,0x80,0x35,0x00,0x00,0x80,0x30,0x00,0x00,
                        0x80,0x29,0x00,0x00,0x80,0x3c,0x00,0x00,0x90,0x41,0x32,0x00,0x90,0x29,0x32,0x00,0x90,0x30,
                        0x32,0x00,0x90,0x35,0x32,0x81,0x40,0x80,0x35,0x00,0x00,0x80,0x30,0x00,0x00,0x80,0x29,0x00,
                        0x00,0x80,0x41,0x00,0x00,0x90,0x43,0x32,0x00,0x90,0x29,0x32,0x00,0x90,0x30,0x32,0x00,0x90,
                        0x35,0x32,0x60,0x80,0x50,0x00,0x00,0x80,0x4d,0x00,0x00,0x80,0x44,0x00,0x60,0x80,0x35,0x00,
                        0x00,0x80,0x30,0x00,0x00,0x80,0x29,0x00,0x00,0x80,0x43,0x00,0x00,0x90,0x43,0x32,0x00,0x90,
                        0x48,0x32,0x00,0x90,0x4b,0x32,0x00,0x90,0x4f,0x32,0x00,0x90,0x24,0x32,0x00,0x90,0x2b,0x32,
                        0x00,0x90,0x30,0x32,0x83,0x00,0x80,0x43,0x00,0x00,0x90,0x3c,0x32,0x81,0x40,0x80,0x30,0x00,
                        0x00,0x80,0x2b,0x00,0x00,0x80,0x24,0x00,0x00,0x90,0x24,0x32,0x00,0x90,0x2b,0x32,0x00,0x90,
                        0x30,0x32,0x81,0x40,0x80,0x30,0x00,0x00,0x80,0x2b,0x00,0x00,0x80,0x24,0x00,0x00,0x80,0x3c,
                        0x00,0x00,0x90,0x3f,0x32,0x00,0x90,0x24,0x32,0x00,0x90,0x2b,0x32,0x00,0x90,0x30,0x32,0x81,
                        0x40,0x80,0x30,0x00,0x00,0x80,0x2b,0x00,0x00,0x80,0x24,0x00,0x00,0x80,0x3f,0x00,0x00,0x90,
                        0x41,0x32,0x00,0x90,0x24,0x32,0x00,0x90,0x2b,0x32,0x00,0x90,0x30,0x32,0x81,0x40,0x80,0x30,
                        0x00,0x00,0x80,0x2b,0x00,0x00,0x80,0x24,0x00,0x00,0x80,0x41,0x00,0x00,0x90,0x43,0x32,0x00,
                        0x90,0x24,0x32,0x00,0x90,0x2b,0x32,0x00,0x90,0x30,0x32,0x83,0x00,0x80,0x43,0x00,0x00,0x90,
                        0x3c,0x32,0x81,0x40,0x80,0x30,0x00,0x00,0x80,0x2b,0x00,0x00,0x80,0x24,0x00,0x00,0x90,0x24,
                        0x32,0x00,0x90,0x2b,0x32,0x00,0x90,0x30,0x32,0x81,0x40,0x80,0x30,0x00,0x00,0x80,0x2b,0x00,
                        0x00,0x80,0x24,0x00,0x00,0x80,0x3c,0x00,0x00,0x90,0x3f,0x32,0x00,0x90,0x24,0x32,0x00,0x90,
                        0x2b,0x32,0x00,0x90,0x30,0x32,0x81,0x40,0x80,0x30,0x00,0x00,0x80,0x2b,0x00,0x00,0x80,0x24,
                        0x00,0x00,0x80,0x3f,0x00,0x00,0x90,0x41,0x32,0x00,0x90,0x24,0x32,0x00,0x90,0x2b,0x32,0x00,
                        0x90,0x30,0x32,0x60,0x80,0x4f,0x00,0x00,0x80,0x4b,0x00,0x00,0x80,0x48,0x00,0x60,0x80,0x30,
                        0x00,0x00,0x80,0x2b,0x00,0x00,0x80,0x24,0x00,0x00,0x80,0x41,0x00,0x00,0x90,0x3f,0x32,0x00,
                        0x90,0x3f,0x32,0x00,0x90,0x4b,0x32,0x00,0x90,0x2c,0x32,0x00,0x90,0x33,0x32,0x83,0x00,0x80,
                        0x3f,0x00,0x00,0x90,0x38,0x32,0x81,0x40,0x80,0x33,0x00,0x00,0x80,0x2c,0x00,0x00,0x90,0x2c,
                        0x32,0x00,0x90,0x33,0x32,0x81,0x40,0x80,0x33,0x00,0x00,0x80,0x2c,0x00,0x00,0x80,0x38,0x00,
                        0x00,0x90,0x3c,0x32,0x00,0x90,0x2c,0x32,0x00,0x90,0x33,0x32,0x81,0x40,0x80,0x3c,0x00,0x00,
                        0x90,0x3e,0x32,0x81,0x40,0x80,0x3e,0x00,0x00,0x80,0x33,0x00,0x00,0x80,0x2c,0x00,0x00,0x90,
                        0x3f,0x32,0x00,0x90,0x2c,0x32,0x00,0x90,0x33,0x32,0x83,0x00,0x80,0x3f,0x00,0x00,0x90,0x38,
                        0x32,0x81,0x40,0x80,0x33,0x00,0x00,0x80,0x2c,0x00,0x00,0x90,0x2c,0x32,0x00,0x90,0x33,0x32,
                        0x81,0x40,0x80,0x33,0x00,0x00,0x80,0x2c,0x00,0x00,0x80,0x38,0x00,0x00,0x90,0x3c,0x32,0x00,
                        0x90,0x2c,0x32,0x00,0x90,0x33,0x32,0x81,0x40,0x80,0x3c,0x00,0x00,0x90,0x3e,0x32,0x60,0x80,
                        0x4b,0x00,0x00,0x80,0x3f,0x00,0x60,0x80,0x3e,0x00,0x00,0x80,0x33,0x00,0x00,0x80,0x2c,0x00,
                        0x00,0x90,0x3f,0x32,0x00,0x90,0x4b,0x32,0x00,0x90,0x29,0x32,0x00,0x90,0x30,0x32,0x83,0x00,
                        0x80,0x4b,0x00,0x00,0x80,0x3f,0x00,0x00,0x90,0x3c,0x32,0x81,0x40,0x80,0x30,0x00,0x00,0x80,
                        0x29,0x00,0x00,0x90,0x29,0x32,0x00,0x90,0x30,0x32,0x81,0x40,0x80,0x30,0x00,0x00,0x80,0x29,
                        0x00,0x00,0x80,0x3c,0x00,0x00,0x90,0x3f,0x32,0x00,0x90,0x4b,0x32,0x00,0x90,0x29,0x32,0x00,
                        0x90,0x30,0x32,0x83,0x00,0x80,0x30,0x00,0x00,0x80,0x29,0x00,0x00,0x80,0x4b,0x00,0x00,0x80,
                        0x3f,0x00,0x00,0x90,0x3e,0x32,0x00,0x90,0x4a,0x32,0x00,0x90,0x2b,0x32,0x00,0x90,0x32,0x32,
                        0x83,0x00,0x80,0x4a,0x00,0x00,0x80,0x3e,0x00,0x00,0x90,0x3a,0x32,0x81,0x40,0x80,0x32,0x00,
                        0x00,0x80,0x2b,0x00,0x00,0x90,0x2b,0x32,0x00,0x90,0x32,0x32,0x81,0x40,0x80,0x32,0x00,0x00,
                        0x80,0x2b,0x00,0x00,0x80,0x3a,0x00,0x00,0x90,0x3e,0x32,0x00,0x90,0x4a,0x32,0x00,0x90,0x2b,
                        0x32,0x00,0x90,0x32,0x32,0x83,0x00,0x80,0x32,0x00,0x00,0x80,0x2b,0x00,0x00,0x80,0x4a,0x00,
                        0x00,0x80,0x3e,0x00,0x00,0x90,0x3c,0x32,0x00,0x90,0x48,0x32,0x00,0x90,0x24,0x32,0x00,0x90,
                        0x2b,0x32,0x00,0x90,0x30,0x32,0x83,0x00,0x80,0x48,0x00,0x00,0x80,0x3c,0x00,0x00,0x90,0x37,
                        0x32,0x81,0x40,0x80,0x30,0x00,0x00,0x80,0x2b,0x00,0x00,0x80,0x24,0x00,0x00,0x90,0x24,0x32,
                        0x00,0x90,0x2b,0x32,0x00,0x90,0x30,0x32,0x81,0x40,0x80,0x30,0x00,0x00,0x80,0x2b,0x00,0x00,
                        0x80,0x24,0x00,0x00,0x80,0x37,0x00,0x00,0x90,0x38,0x32,0x00,0x90,0x24,0x32,0x00,0x90,0x2b,
                        0x32,0x00,0x90,0x30,0x32,0x81,0x40,0x80,0x30,0x00,0x00,0x80,0x2b,0x00,0x00,0x80,0x24,0x00,
                        0x00,0x80,0x38,0x00,0x00,0x90,0x3a,0x32,0x00,0x90,0x24,0x32,0x00,0x90,0x2b,0x32,0x00,0x90,
                        0x30,0x32,0x81,0x40,0x80,0x30,0x00,0x00,0x80,0x2b,0x00,0x00,0x80,0x24,0x00,0x00,0x80,0x3a,
                        0x00,0x00,0x90,0x3c,0x32,0x00,0x90,0x24,0x32,0x00,0x90,0x2b,0x32,0x00,0x90,0x30,0x32,0x83,
                        0x00,0x80,0x3c,0x00,0x00,0x90,0x37,0x32,0x81,0x40,0x80,0x30,0x00,0x00,0x80,0x2b,0x00,0x00,
                        0x80,0x24,0x00,0x00,0x90,0x24,0x32,0x00,0x90,0x2b,0x32,0x00,0x90,0x30,0x32,0x81,0x40,0x80,
                        0x30,0x00,0x00,0x80,0x2b,0x00,0x00,0x80,0x24,0x00,0x00,0x80,0x37,0x00,0x00,0x90,0x38,0x32,
                        0x00,0x90,0x24,0x32,0x00,0x90,0x2b,0x32,0x00,0x90,0x30,0x32,0x81,0x40,0x80,0x30,0x00,0x00,
                        0x80,0x2b,0x00,0x00,0x80,0x24,0x00,0x00,0x80,0x38,0x00,0x00,0x90,0x3a,0x32,0x00,0x90,0x24,
                        0x32,0x00,0x90,0x2b,0x32,0x00,0x90,0x30,0x32,0x81,0x40,0x80,0x30,0x00,0x00,0x80,0x2b,0x00,
                        0x00,0x80,0x24,0x00,0x00,0x80,0x3a,0x00,0x00,0x90,0x3c,0x32,0x00,0x90,0x48,0x32,0x00,0x90,
                        0x24,0x32,0x00,0x90,0x2b,0x32,0x00,0x90,0x30,0x32,0x83,0x00,0x80,0x48,0x00,0x00,0x80,0x3c,
                        0x00,0x00,0x90,0x37,0x32,0x00,0x90,0x43,0x32,0x81,0x40,0x80,0x30,0x00,0x00,0x80,0x2b,0x00,
                        0x00,0x80,0x24,0x00,0x00,0x90,0x24,0x32,0x00,0x90,0x2b,0x32,0x00,0x90,0x30,0x32,0x81,0x40,
                        0x80,0x30,0x00,0x00,0x80,0x2b,0x00,0x00,0x80,0x24,0x00,0x00,0x80,0x43,0x00,0x00,0x80,0x37,
                        0x00,0x00,0x90,0x38,0x32,0x00,0x90,0x44,0x32,0x00,0x90,0x24,0x32,0x00,0x90,0x2b,0x32,0x00,
                        0x90,0x30,0x32,0x81,0x40,0x80,0x30,0x00,0x00,0x80,0x2b,0x00,0x00,0x80,0x24,0x00,0x00,0x80,
                        0x44,0x00,0x00,0x80,0x38,0x00,0x00,0x90,0x3a,0x32,0x00,0x90,0x46,0x32,0x00,0x90,0x24,0x32,
                        0x00,0x90,0x2b,0x32,0x00,0x90,0x30,0x32,0x81,0x40,0x80,0x30,0x00,0x00,0x80,0x2b,0x00,0x00,
                        0x80,0x24,0x00,0x00,0x80,0x46,0x00,0x00,0x80,0x3a,0x00,0x00,0x90,0x3c,0x32,0x00,0x90,0x48,
                        0x32,0x00,0x90,0x24,0x32,0x00,0x90,0x2b,0x32,0x00,0x90,0x30,0x32,0x83,0x00,0x80,0x48,0x00,
                        0x00,0x80,0x3c,0x00,0x00,0x90,0x37,0x32,0x00,0x90,0x43,0x32,0x81,0x40,0x80,0x30,0x00,0x00,
                        0x80,0x2b,0x00,0x00,0x80,0x24,0x00,0x00,0x90,0x24,0x32,0x00,0x90,0x2b,0x32,0x00,0x90,0x30,
                        0x32,0x81,0x40,0x80,0x30,0x00,0x00,0x80,0x2b,0x00,0x00,0x80,0x24,0x00,0x00,0x80,0x43,0x00,
                        0x00,0x80,0x37,0x00,0x00,0x90,0x38,0x32,0x00,0x90,0x44,0x32,0x00,0x90,0x24,0x32,0x00,0x90,
                        0x2b,0x32,0x00,0x90,0x30,0x32,0x81,0x40,0x80,0x30,0x00,0x00,0x80,0x2b,0x00,0x00,0x80,0x24,
                        0x00,0x00,0x80,0x44,0x00,0x00,0x80,0x38,0x00,0x00,0x90,0x3a,0x32,0x00,0x90,0x46,0x32,0x00,
                        0x90,0x24,0x32,0x00,0x90,0x2b,0x32,0x00,0x90,0x30,0x32,0x81,0x40,0x80,0x30,0x00,0x00,0x80,
                        0x2b,0x00,0x00,0x80,0x24,0x00,0x00,0x80,0x46,0x00,0x00,0x80,0x3a,0x00,0x00,0x90,0x48,0x32,
                        0x00,0x90,0x3c,0x32,0x00,0x90,0x48,0x32,0x00,0x90,0x24,0x32,0x00,0x90,0x2b,0x32,0x00,0x90,
                        0x30,0x32,0x83,0x00,0x80,0x48,0x00,0x00,0x90,0x4f,0x32,0x83,0x00,0x80,0x4f,0x00,0x00,0x90,
                        0x50,0x32,0x81,0x40,0x80,0x50,0x00,0x00,0x90,0x52,0x32,0x81,0x40,0x80,0x52,0x00,0x00,0x90,
                        0x54,0x32,0x83,0x00,0x80,0x54,0x00,0x00,0x90,0x4f,0x32,0x83,0x00,0x80,0x4f,0x00,0x00,0x90,
                        0x50,0x32,0x81,0x40,0x80,0x50,0x00,0x00,0x90,0x52,0x32,0x81,0x40,0x80,0x52,0x00,0x00,0x90,
                        0x54,0x32,0x83,0x00,0x80,0x54,0x00,0x00,0x90,0x4f,0x32,0x83,0x00,0x80,0x4f,0x00,0x00,0x90,
                        0x50,0x32,0x81,0x40,0x80,0x50,0x00,0x00,0x90,0x52,0x32,0x81,0x40,0x80,0x52,0x00,0x00,0x90,
                        0x54,0x32,0x87,0x40,0x80,0x30,0x00,0x00,0x80,0x2b,0x00,0x00,0x80,0x24,0x00,0x00,0x80,0x48,
                        0x00,0x00,0x80,0x3c,0x00,0x60,0x80,0x54,0x00,0x00,0xff,0x2f,0x00,0x4d,0x54,0x72,0x6b,0x00,
                        0x00,0x25,0x78,0x00,0xff,0x03,0x0e,0x38,0x2d,0x42,0x69,0x74,0x20,0x54,0x72,0x69,0x61,0x6e,
                        0x67,0x6c,0x65,0x00,0xc1,0x57,0x00,0x91,0x37,0x32,0x00,0x91,0x24,0x32,0x00,0x91,0x2b,0x32,
                        0x00,0x91,0x43,0x32,0x00,0x91,0x3c,0x32,0x83,0x00,0x81,0x43,0x00,0x00,0x81,0x37,0x00,0x00,
                        0x91,0x30,0x32,0x00,0x91,0x3c,0x32,0x83,0x00,0x81,0x3c,0x00,0x00,0x81,0x30,0x00,0x00,0x91,
                        0x33,0x32,0x00,0x91,0x3f,0x32,0x81,0x40,0x81,0x3f,0x00,0x00,0x81,0x33,0x00,0x00,0x91,0x35,
                        0x32,0x00,0x91,0x41,0x32,0x81,0x40,0x81,0x41,0x00,0x00,0x81,0x35,0x00,0x00,0x91,0x37,0x32,
                        0x00,0x91,0x43,0x32,0x83,0x00,0x81,0x43,0x00,0x00,0x81,0x37,0x00,0x00,0x91,0x30,0x32,0x00,
                        0x91,0x3c,0x32,0x83,0x00,0x81,0x3c,0x00,0x00,0x81,0x30,0x00,0x00,0x91,0x33,0x32,0x00,0x91,
                        0x3f,0x32,0x81,0x40,0x81,0x3f,0x00,0x00,0x81,0x33,0x00,0x00,0x91,0x35,0x32,0x00,0x91,0x41,
                        0x32,0x60,0x81,0x2b,0x00,0x00,0x81,0x24,0x00,0x60,0x81,0x41,0x00,0x00,0x81,0x35,0x00,0x00,
                        0x81,0x3c,0x00,0x00,0x91,0x37,0x32,0x00,0x91,0x24,0x32,0x00,0x91,0x2b,0x32,0x00,0x91,0x43,
                        0x32,0x00,0x91,0x3c,0x32,0x83,0x00,0x81,0x43,0x00,0x00,0x81,0x37,0x00,0x00,0x91,0x30,0x32,
                        0x00,0x91,0x3c,0x32,0x83,0x00,0x81,0x3c,0x00,0x00,0x81,0x30,0x00,0x00,0x91,0x33,0x32,0x00,
                        0x91,0x3f,0x32,0x81,0x40,0x81,0x3f,0x00,0x00,0x81,0x33,0x00,0x00,0x91,0x35,0x32,0x00,0x91,
                        0x41,0x32,0x81,0x40,0x81,0x41,0x00,0x00,0x81,0x35,0x00,0x00,0x91,0x37,0x32,0x00,0x91,0x43,
                        0x32,0x83,0x00,0x81,0x43,0x00,0x00,0x81,0x37,0x00,0x00,0x91,0x30,0x32,0x00,0x91,0x3c,0x32,
                        0x83,0x00,0x81,0x3c,0x00,0x00,0x81,0x30,0x00,0x00,0x91,0x33,0x32,0x00,0x91,0x3f,0x32,0x81,
                        0x40,0x81,0x3f,0x00,0x00,0x81,0x33,0x00,0x00,0x91,0x35,0x32,0x00,0x91,0x41,0x32,0x60,0x81,
                        0x2b,0x00,0x00,0x81,0x24,0x00,0x60,0x81,0x41,0x00,0x00,0x81,0x35,0x00,0x00,0x81,0x3c,0x00,
                        0x00,0x91,0x37,0x32,0x00,0x91,0x24,0x32,0x00,0x91,0x2b,0x32,0x00,0x91,0x43,0x32,0x00,0x91,
                        0x3c,0x32,0x83,0x00,0x81,0x43,0x00,0x00,0x81,0x37,0x00,0x00,0x91,0x30,0x32,0x00,0x91,0x3c,
                        0x32,0x83,0x00,0x81,0x3c,0x00,0x00,0x81,0x30,0x00,0x00,0x91,0x34,0x32,0x00,0x91,0x40,0x32,
                        0x81,0x40,0x81,0x40,0x00,0x00,0x81,0x34,0x00,0x00,0x91,0x35,0x32,0x00,0x91,0x41,0x32,0x81,
                        0x40,0x81,0x41,0x00,0x00,0x81,0x35,0x00,0x00,0x91,0x37,0x32,0x00,0x91,0x43,0x32,0x83,0x00,
                        0x81,0x43,0x00,0x00,0x81,0x37,0x00,0x00,0x91,0x30,0x32,0x00,0x91,0x3c,0x32,0x83,0x00,0x81,
                        0x3c,0x00,0x00,0x81,0x30,0x00,0x00,0x91,0x34,0x32,0x00,0x91,0x40,0x32,0x81,0x40,0x81,0x40,
                        0x00,0x00,0x81,0x34,0x00,0x00,0x91,0x35,0x32,0x00,0x91,0x41,0x32,0x60,0x81,0x2b,0x00,0x00,
                        0x81,0x24,0x00,0x60,0x81,0x41,0x00,0x00,0x81,0x35,0x00,0x00,0x81,0x3c,0x00,0x00,0x91,0x37,
                        0x32,0x00,0x91,0x24,0x32,0x00,0x91,0x2b,0x32,0x00,0x91,0x43,0x32,0x00,0x91,0x3c,0x32,0x83,
                        0x00,0x81,0x43,0x00,0x00,0x81,0x37,0x00,0x00,0x91,0x30,0x32,0x00,0x91,0x3c,0x32,0x83,0x00,
                        0x81,0x3c,0x00,0x00,0x81,0x30,0x00,0x00,0x91,0x34,0x32,0x00,0x91,0x40,0x32,0x81,0x40,0x81,
                        0x40,0x00,0x00,0x81,0x34,0x00,0x00,0x91,0x35,0x32,0x00,0x91,0x41,0x32,0x81,0x40,0x81,0x41,
                        0x00,0x00,0x81,0x35,0x00,0x00,0x91,0x37,0x32,0x00,0x91,0x43,0x32,0x83,0x00,0x81,0x43,0x00,
                        0x00,0x81,0x37,0x00,0x00,0x91,0x30,0x32,0x00,0x91,0x3c,0x32,0x83,0x00,0x81,0x3c,0x00,0x00,
                        0x81,0x30,0x00,0x00,0x91,0x34,0x32,0x00,0x91,0x40,0x32,0x81,0x40,0x81,0x40,0x00,0x00,0x81,
                        0x34,0x00,0x00,0x91,0x35,0x32,0x00,0x91,0x41,0x32,0x60,0x81,0x2b,0x00,0x00,0x81,0x24,0x00,
                        0x60,0x81,0x41,0x00,0x00,0x81,0x35,0x00,0x00,0x81,0x3c,0x00,0x00,0x91,0x37,0x32,0x00,0x91,
                        0x37,0x32,0x00,0x91,0x24,0x32,0x00,0x91,0x2b,0x32,0x00,0x91,0x3c,0x32,0x00,0x91,0x43,0x32,
                        0x83,0x00,0x81,0x37,0x00,0x00,0x91,0x30,0x32,0x83,0x00,0x81,0x30,0x00,0x00,0x91,0x33,0x32,
                        0x81,0x40,0x81,0x33,0x00,0x00,0x91,0x35,0x32,0x81,0x40,0x81,0x35,0x00,0x00,0x81,0x43,0x00,
                        0x00,0x81,0x3c,0x00,0x00,0x81,0x37,0x00,0x00,0x91,0x30,0x32,0x00,0x91,0x37,0x32,0x00,0x91,
                        0x3c,0x32,0x00,0x91,0x3c,0x32,0x83,0x00,0x81,0x37,0x00,0x00,0x91,0x30,0x32,0x83,0x00,0x81,
                        0x30,0x00,0x00,0x81,0x30,0x00,0x00,0x91,0x33,0x32,0x00,0x91,0x33,0x32,0x81,0x40,0x81,0x33,
                        0x00,0x00,0x81,0x33,0x00,0x00,0x91,0x35,0x32,0x00,0x91,0x35,0x32,0x60,0x81,0x2b,0x00,0x00,
                        0x81,0x24,0x00,0x60,0x81,0x35,0x00,0x00,0x81,0x35,0x00,0x00,0x81,0x3c,0x00,0x00,0x81,0x3c,
                        0x00,0x00,0x91,0x37,0x32,0x00,0x91,0x37,0x32,0x00,0x91,0x24,0x32,0x00,0x91,0x2b,0x32,0x00,
                        0x91,0x3c,0x32,0x00,0x91,0x3f,0x32,0x81,0x40,0x81,0x3f,0x00,0x00,0x91,0x41,0x32,0x81,0x40,
                        0x81,0x41,0x00,0x00,0x81,0x37,0x00,0x00,0x91,0x30,0x32,0x00,0x91,0x43,0x32,0x83,0x00,0x81,
                        0x30,0x00,0x00,0x91,0x33,0x32,0x81,0x40,0x81,0x33,0x00,0x00,0x91,0x35,0x32,0x81,0x40,0x81,
                        0x35,0x00,0x00,0x81,0x43,0x00,0x00,0x81,0x3c,0x00,0x00,0x81,0x37,0x00,0x00,0x91,0x30,0x32,
                        0x00,0x91,0x37,0x32,0x00,0x91,0x3c,0x32,0x00,0x91,0x3c,0x32,0x83,0x00,0x81,0x37,0x00,0x00,
                        0x91,0x30,0x32,0x83,0x00,0x81,0x30,0x00,0x00,0x81,0x3c,0x00,0x00,0x81,0x30,0x00,0x00,0x91,
                        0x33,0x32,0x00,0x91,0x33,0x32,0x00,0x91,0x3f,0x32,0x81,0x40,0x81,0x3f,0x00,0x00,0x81,0x33,
                        0x00,0x00,0x81,0x33,0x00,0x00,0x91,0x35,0x32,0x00,0x91,0x35,0x32,0x00,0x91,0x41,0x32,0x60,
                        0x81,0x2b,0x00,0x00,0x81,0x24,0x00,0x60,0x81,0x41,0x00,0x00,0x81,0x35,0x00,0x00,0x81,0x35,
                        0x00,0x00,0x81,0x3c,0x00,0x00,0x91,0x32,0x32,0x00,0x91,0x32,0x32,0x00,0x91,0x2b,0x32,0x00,
                        0x91,0x32,0x32,0x00,0x91,0x3e,0x32,0x00,0x91,0x3a,0x32,0x00,0x91,0x41,0x32,0x83,0x00,0x81,
                        0x3e,0x00,0x00,0x81,0x32,0x00,0x00,0x91,0x2b,0x32,0x00,0x91,0x37,0x32,0x83,0x00,0x81,0x37,
                        0x00,0x00,0x81,0x2b,0x00,0x00,0x91,0x2e,0x32,0x00,0x91,0x3a,0x32,0x81,0x40,0x81,0x3a,0x00,
                        0x00,0x81,0x2e,0x00,0x00,0x91,0x30,0x32,0x00,0x91,0x3c,0x32,0x81,0x40,0x81,0x3c,0x00,0x00,
                        0x81,0x30,0x00,0x00,0x81,0x41,0x00,0x00,0x81,0x3a,0x00,0x00,0x91,0x32,0x32,0x00,0x91,0x3e,
                        0x32,0x00,0x91,0x3a,0x32,0x00,0x91,0x41,0x32,0x83,0x00,0x81,0x3e,0x00,0x00,0x81,0x32,0x00,
                        0x00,0x91,0x2b,0x32,0x00,0x91,0x37,0x32,0x83,0x00,0x81,0x37,0x00,0x00,0x81,0x2b,0x00,0x00,
                        0x91,0x2e,0x32,0x00,0x91,0x3a,0x32,0x81,0x40,0x81,0x3a,0x00,0x00,0x81,0x2e,0x00,0x00,0x91,
                        0x30,0x32,0x00,0x91,0x3c,0x32,0x60,0x81,0x32,0x00,0x00,0x81,0x2b,0x00,0x60,0x81,0x3c,0x00,
                        0x00,0x81,0x30,0x00,0x00,0x81,0x41,0x00,0x00,0x81,0x3a,0x00,0x00,0x91,0x32,0x32,0x00,0x91,
                        0x2b,0x32,0x00,0x91,0x32,0x32,0x00,0x91,0x3e,0x32,0x00,0x91,0x3a,0x32,0x00,0x91,0x41,0x32,
                        0x83,0x00,0x81,0x3e,0x00,0x00,0x81,0x32,0x00,0x00,0x91,0x2b,0x32,0x00,0x91,0x37,0x32,0x83,
                        0x00,0x81,0x37,0x00,0x00,0x81,0x2b,0x00,0x00,0x91,0x2e,0x32,0x00,0x91,0x3a,0x32,0x81,0x40,
                        0x81,0x3a,0x00,0x00,0x81,0x2e,0x00,0x00,0x91,0x30,0x32,0x00,0x91,0x3c,0x32,0x81,0x40,0x81,
                        0x3c,0x00,0x00,0x81,0x30,0x00,0x00,0x81,0x41,0x00,0x00,0x81,0x3a,0x00,0x00,0x91,0x32,0x32,
                        0x00,0x91,0x3e,0x32,0x00,0x91,0x4a,0x32,0x83,0x00,0x81,0x4a,0x00,0x00,0x81,0x3e,0x00,0x00,
                        0x81,0x32,0x00,0x00,0x91,0x2b,0x32,0x00,0x91,0x37,0x32,0x00,0x91,0x4a,0x32,0x83,0x00,0x81,
                        0x4a,0x00,0x00,0x81,0x37,0x00,0x00,0x81,0x2b,0x00,0x00,0x91,0x2e,0x32,0x00,0x91,0x3a,0x32,
                        0x00,0x91,0x4a,0x32,0x81,0x40,0x81,0x2e,0x00,0x00,0x91,0x30,0x32,0x60,0x81,0x32,0x00,0x00,
                        0x81,0x2b,0x00,0x60,0x81,0x30,0x00,0x00,0x81,0x4a,0x00,0x00,0x81,0x3a,0x00,0x00,0x81,0x32,
                        0x00,0x00,0x91,0x35,0x32,0x00,0x91,0x35,0x32,0x00,0x91,0x22,0x32,0x00,0x91,0x29,0x32,0x00,
                        0x91,0x4d,0x32,0x00,0x91,0x3a,0x32,0x83,0x00,0x81,0x35,0x00,0x00,0x91,0x2e,0x32,0x83,0x00,
                        0x81,0x2e,0x00,0x00,0x91,0x32,0x32,0x81,0x40,0x81,0x32,0x00,0x00,0x91,0x33,0x32,0x81,0x40,
                        0x81,0x33,0x00,0x00,0x81,0x3a,0x00,0x00,0x81,0x4d,0x00,0x00,0x81,0x35,0x00,0x00,0x91,0x2e,
                        0x32,0x00,0x91,0x35,0x32,0x00,0x91,0x46,0x32,0x00,0x91,0x3a,0x32,0x83,0x00,0x81,0x35,0x00,
                        0x00,0x91,0x2e,0x32,0x83,0x00,0x81,0x2e,0x00,0x00,0x81,0x2e,0x00,0x00,0x91,0x33,0x32,0x00,
                        0x91,0x32,0x32,0x81,0x40,0x81,0x32,0x00,0x00,0x81,0x33,0x00,0x00,0x91,0x32,0x32,0x00,0x91,
                        0x33,0x32,0x60,0x81,0x29,0x00,0x00,0x81,0x22,0x00,0x60,0x81,0x33,0x00,0x00,0x81,0x32,0x00,
                        0x00,0x81,0x3a,0x00,0x00,0x81,0x46,0x00,0x00,0x91,0x35,0x32,0x00,0x91,0x35,0x32,0x00,0x91,
                        0x22,0x32,0x00,0x91,0x29,0x32,0x00,0x91,0x4b,0x32,0x00,0x91,0x3a,0x32,0x81,0x40,0x81,0x4b,
                        0x00,0x00,0x91,0x4a,0x32,0x81,0x40,0x81,0x4a,0x00,0x00,0x81,0x35,0x00,0x00,0x91,0x2e,0x32,
                        0x00,0x91,0x4d,0x32,0x83,0x00,0x81,0x2e,0x00,0x00,0x91,0x32,0x32,0x81,0x40,0x81,0x32,0x00,
                        0x00,0x91,0x33,0x32,0x81,0x40,0x81,0x33,0x00,0x00,0x81,0x4d,0x00,0x00,0x81,0x3a,0x00,0x00,
                        0x81,0x35,0x00,0x00,0x91,0x2e,0x32,0x00,0x91,0x35,0x32,0x00,0x91,0x46,0x32,0x00,0x91,0x3a,
                        0x32,0x83,0x00,0x81,0x35,0x00,0x00,0x91,0x2e,0x32,0x83,0x00,0x81,0x2e,0x00,0x00,0x81,0x2e,
                        0x00,0x00,0x91,0x33,0x32,0x00,0x91,0x32,0x32,0x81,0x40,0x81,0x32,0x00,0x00,0x81,0x33,0x00,
                        0x00,0x91,0x32,0x32,0x00,0x91,0x33,0x32,0x60,0x81,0x29,0x00,0x00,0x81,0x22,0x00,0x60,0x81,
                        0x33,0x00,0x00,0x81,0x32,0x00,0x00,0x81,0x3a,0x00,0x00,0x81,0x46,0x00,0x00,0x91,0x30,0x32,
                        0x00,0x91,0x30,0x32,0x00,0x91,0x29,0x32,0x00,0x91,0x30,0x32,0x00,0x91,0x4b,0x32,0x00,0x91,
                        0x48,0x32,0x81,0x40,0x81,0x4b,0x00,0x00,0x91,0x4a,0x32,0x81,0x40,0x81,0x4a,0x00,0x00,0x81,
                        0x48,0x00,0x00,0x81,0x30,0x00,0x00,0x91,0x29,0x32,0x00,0x91,0x48,0x32,0x00,0x91,0x41,0x32,
                        0x83,0x00,0x81,0x41,0x00,0x00,0x81,0x29,0x00,0x00,0x91,0x2c,0x32,0x00,0x91,0x44,0x32,0x81,
                        0x40,0x81,0x44,0x00,0x00,0x81,0x2c,0x00,0x00,0x91,0x2e,0x32,0x00,0x91,0x46,0x32,0x81,0x40,
                        0x81,0x46,0x00,0x00,0x81,0x2e,0x00,0x00,0x91,0x30,0x32,0x00,0x91,0x48,0x32,0x83,0x00,0x81,
                        0x48,0x00,0x00,0x81,0x30,0x00,0x00,0x91,0x29,0x32,0x00,0x91,0x41,0x32,0x83,0x00,0x81,0x41,
                        0x00,0x00,0x81,0x29,0x00,0x00,0x91,0x2c,0x32,0x00,0x91,0x44,0x32,0x81,0x40,0x81,0x44,0x00,
                        0x00,0x81,0x2c,0x00,0x00,0x91,0x2e,0x32,0x00,0x91,0x46,0x32,0x60,0x81,0x30,0x00,0x00,0x81,
                        0x29,0x00,0x60,0x81,0x46,0x00,0x00,0x81,0x2e,0x00,0x00,0x91,0x30,0x32,0x00,0x91,0x29,0x32,
                        0x00,0x91,0x30,0x32,0x00,0x91,0x48,0x32,0x83,0x00,0x81,0x48,0x00,0x00,0x81,0x30,0x00,0x00,
                        0x91,0x29,0x32,0x00,0x91,0x41,0x32,0x83,0x00,0x81,0x41,0x00,0x00,0x81,0x29,0x00,0x00,0x91,
                        0x2c,0x32,0x00,0x91,0x44,0x32,0x81,0x40,0x81,0x44,0x00,0x00,0x81,0x2c,0x00,0x00,0x91,0x2e,
                        0x32,0x00,0x91,0x46,0x32,0x81,0x40,0x81,0x46,0x00,0x00,0x81,0x2e,0x00,0x00,0x91,0x30,0x32,
                        0x00,0x91,0x48,0x32,0x83,0x00,0x81,0x48,0x00,0x00,0x81,0x30,0x00,0x00,0x91,0x29,0x32,0x00,
                        0x91,0x41,0x32,0x82,0x20,0x81,0x30,0x00,0x00,0x81,0x29,0x00,0x60,0x81,0x41,0x00,0x00,0x81,
                        0x29,0x00,0x00,0x91,0x2c,0x32,0x00,0x91,0x29,0x32,0x00,0x91,0x30,0x32,0x00,0x91,0x44,0x32,
                        0x81,0x40,0x81,0x44,0x00,0x00,0x81,0x30,0x00,0x00,0x81,0x29,0x00,0x00,0x81,0x2c,0x00,0x00,
                        0x91,0x2e,0x32,0x00,0x91,0x46,0x32,0x81,0x40,0x81,0x46,0x00,0x00,0x81,0x2e,0x00,0x00,0x81,
                        0x48,0x00,0x00,0x81,0x30,0x00,0x00,0x91,0x30,0x32,0x00,0x91,0x37,0x32,0x00,0x91,0x37,0x32,
                        0x00,0x91,0x24,0x32,0x00,0x91,0x2b,0x32,0x00,0x91,0x43,0x32,0x00,0x91,0x3c,0x32,0x83,0x00,
                        0x81,0x37,0x00,0x00,0x91,0x30,0x32,0x83,0x00,0x81,0x30,0x00,0x00,0x81,0x2b,0x00,0x00,0x81,
                        0x24,0x00,0x00,0x91,0x33,0x32,0x00,0x91,0x24,0x32,0x00,0x91,0x2b,0x32,0x81,0x40,0x81,0x2b,
                        0x00,0x00,0x81,0x24,0x00,0x00,0x81,0x33,0x00,0x00,0x91,0x35,0x32,0x81,0x40,0x81,0x35,0x00,
                        0x00,0x81,0x3c,0x00,0x00,0x81,0x43,0x00,0x00,0x81,0x37,0x00,0x00,0x81,0x30,0x00,0x00,0x91,
                        0x24,0x32,0x00,0x91,0x30,0x32,0x00,0x91,0x37,0x32,0x00,0x91,0x24,0x32,0x00,0x91,0x2b,0x32,
                        0x00,0x91,0x3c,0x32,0x00,0x91,0x3c,0x32,0x83,0x00,0x81,0x37,0x00,0x00,0x91,0x30,0x32,0x83,
                        0x00,0x81,0x30,0x00,0x00,0x81,0x2b,0x00,0x00,0x81,0x24,0x00,0x00,0x81,0x30,0x00,0x00,0x81,
                        0x24,0x00,0x00,0x91,0x33,0x32,0x00,0x91,0x33,0x32,0x00,0x91,0x24,0x32,0x00,0x91,0x2b,0x32,
                        0x81,0x40,0x81,0x2b,0x00,0x00,0x81,0x24,0x00,0x00,0x81,0x33,0x00,0x00,0x81,0x33,0x00,0x00,
                        0x91,0x35,0x32,0x00,0x91,0x35,0x32,0x81,0x40,0x81,0x35,0x00,0x00,0x81,0x35,0x00,0x00,0x81,
                        0x3c,0x00,0x00,0x81,0x3c,0x00,0x00,0x91,0x30,0x32,0x00,0x91,0x37,0x32,0x00,0x91,0x37,0x32,
                        0x00,0x91,0x24,0x32,0x00,0x91,0x2b,0x32,0x00,0x91,0x3f,0x32,0x00,0x91,0x3c,0x32,0x81,0x40,
                        0x81,0x3f,0x00,0x00,0x91,0x41,0x32,0x81,0x40,0x81,0x41,0x00,0x00,0x81,0x37,0x00,0x00,0x91,
                        0x30,0x32,0x00,0x91,0x43,0x32,0x83,0x00,0x81,0x30,0x00,0x00,0x81,0x2b,0x00,0x00,0x81,0x24,
                        0x00,0x00,0x91,0x33,0x32,0x00,0x91,0x24,0x32,0x00,0x91,0x2b,0x32,0x81,0x40,0x81,0x2b,0x00,
                        0x00,0x81,0x24,0x00,0x00,0x81,0x33,0x00,0x00,0x91,0x35,0x32,0x81,0x40,0x81,0x35,0x00,0x00,
                        0x81,0x43,0x00,0x00,0x81,0x3c,0x00,0x00,0x81,0x37,0x00,0x00,0x81,0x30,0x00,0x00,0x91,0x24,
                        0x32,0x00,0x91,0x30,0x32,0x00,0x91,0x37,0x32,0x00,0x91,0x24,0x32,0x00,0x91,0x2b,0x32,0x00,
                        0x91,0x3c,0x32,0x00,0x91,0x3c,0x32,0x83,0x00,0x81,0x37,0x00,0x00,0x91,0x30,0x32,0x83,0x00,
                        0x81,0x30,0x00,0x00,0x81,0x3c,0x00,0x00,0x81,0x2b,0x00,0x00,0x81,0x24,0x00,0x00,0x81,0x30,
                        0x00,0x00,0x81,0x24,0x00,0x00,0x91,0x33,0x32,0x00,0x91,0x33,0x32,0x00,0x91,0x24,0x32,0x00,
                        0x91,0x2b,0x32,0x00,0x91,0x3f,0x32,0x81,0x40,0x81,0x3f,0x00,0x00,0x81,0x2b,0x00,0x00,0x81,
                        0x24,0x00,0x00,0x81,0x33,0x00,0x00,0x81,0x33,0x00,0x00,0x91,0x35,0x32,0x00,0x91,0x35,0x32,
                        0x00,0x91,0x41,0x32,0x81,0x40,0x81,0x41,0x00,0x00,0x81,0x35,0x00,0x00,0x81,0x35,0x00,0x00,
                        0x81,0x3c,0x00,0x00,0x91,0x32,0x32,0x00,0x91,0x3e,0x32,0x00,0x91,0x32,0x32,0x00,0x91,0x2b,
                        0x32,0x00,0x91,0x32,0x32,0x00,0x91,0x3e,0x32,0x00,0x91,0x3e,0x32,0x83,0x00,0x81,0x3e,0x00,
                        0x00,0x81,0x32,0x00,0x00,0x91,0x2b,0x32,0x00,0x91,0x37,0x32,0x83,0x00,0x81,0x37,0x00,0x00,
                        0x81,0x2b,0x00,0x00,0x81,0x32,0x00,0x00,0x81,0x2b,0x00,0x00,0x91,0x2e,0x32,0x00,0x91,0x2b,
                        0x32,0x00,0x91,0x32,0x32,0x00,0x91,0x3a,0x32,0x81,0x40,0x81,0x3a,0x00,0x00,0x81,0x32,0x00,
                        0x00,0x81,0x2b,0x00,0x00,0x81,0x2e,0x00,0x00,0x91,0x30,0x32,0x00,0x91,0x3c,0x32,0x81,0x40,
                        0x81,0x3c,0x00,0x00,0x81,0x30,0x00,0x00,0x91,0x32,0x32,0x00,0x91,0x2b,0x32,0x00,0x91,0x32,
                        0x32,0x00,0x91,0x3e,0x32,0x83,0x00,0x81,0x3e,0x00,0x00,0x81,0x32,0x00,0x00,0x91,0x2b,0x32,
                        0x00,0x91,0x37,0x32,0x83,0x00,0x81,0x37,0x00,0x00,0x81,0x2b,0x00,0x00,0x81,0x32,0x00,0x00,
                        0x81,0x2b,0x00,0x00,0x91,0x2e,0x32,0x00,0x91,0x2b,0x32,0x00,0x91,0x32,0x32,0x00,0x91,0x3a,
                        0x32,0x81,0x40,0x81,0x3a,0x00,0x00,0x81,0x32,0x00,0x00,0x81,0x2b,0x00,0x00,0x81,0x2e,0x00,
                        0x00,0x91,0x30,0x32,0x00,0x91,0x3c,0x32,0x81,0x40,0x81,0x3c,0x00,0x00,0x81,0x30,0x00,0x00,
                        0x91,0x32,0x32,0x00,0x91,0x2b,0x32,0x00,0x91,0x32,0x32,0x00,0x91,0x3e,0x32,0x83,0x00,0x81,
                        0x3e,0x00,0x00,0x81,0x32,0x00,0x00,0x91,0x2b,0x32,0x00,0x91,0x37,0x32,0x83,0x00,0x81,0x37,
                        0x00,0x00,0x81,0x2b,0x00,0x00,0x81,0x32,0x00,0x00,0x81,0x2b,0x00,0x00,0x91,0x2e,0x32,0x00,
                        0x91,0x2b,0x32,0x00,0x91,0x32,0x32,0x00,0x91,0x3a,0x32,0x81,0x40,0x81,0x3a,0x00,0x00,0x81,
                        0x32,0x00,0x00,0x81,0x2b,0x00,0x00,0x81,0x2e,0x00,0x00,0x91,0x30,0x32,0x00,0x91,0x3c,0x32,
                        0x81,0x40,0x81,0x3c,0x00,0x00,0x81,0x30,0x00,0x00,0x91,0x32,0x32,0x00,0x91,0x2b,0x32,0x00,
                        0x91,0x32,0x32,0x00,0x91,0x3e,0x32,0x83,0x00,0x81,0x3e,0x00,0x00,0x81,0x32,0x00,0x00,0x91,
                        0x2b,0x32,0x00,0x91,0x37,0x32,0x83,0x00,0x81,0x37,0x00,0x00,0x81,0x2b,0x00,0x00,0x81,0x32,
                        0x00,0x00,0x81,0x2b,0x00,0x00,0x91,0x2e,0x32,0x00,0x91,0x2b,0x32,0x00,0x91,0x32,0x32,0x00,
                        0x91,0x3a,0x32,0x81,0x40,0x81,0x32,0x00,0x00,0x81,0x2b,0x00,0x00,0x81,0x2e,0x00,0x00,0x91,
                        0x30,0x32,0x81,0x40,0x81,0x30,0x00,0x00,0x81,0x3a,0x00,0x00,0x81,0x3e,0x00,0x00,0x81,0x3e,
                        0x00,0x00,0x81,0x32,0x00,0x00,0x91,0x2e,0x32,0x00,0x91,0x35,0x32,0x00,0x91,0x35,0x32,0x00,
                        0x91,0x22,0x32,0x00,0x91,0x29,0x32,0x00,0x91,0x41,0x32,0x00,0x91,0x3a,0x32,0x83,0x00,0x81,
                        0x35,0x00,0x00,0x91,0x2e,0x32,0x83,0x00,0x81,0x2e,0x00,0x00,0x81,0x29,0x00,0x00,0x81,0x22,
                        0x00,0x00,0x91,0x32,0x32,0x00,0x91,0x22,0x32,0x00,0x91,0x29,0x32,0x81,0x40,0x81,0x29,0x00,
                        0x00,0x81,0x22,0x00,0x00,0x81,0x32,0x00,0x00,0x91,0x33,0x32,0x81,0x40,0x81,0x33,0x00,0x00,
                        0x81,0x3a,0x00,0x00,0x81,0x41,0x00,0x00,0x81,0x35,0x00,0x00,0x81,0x2e,0x00,0x00,0x91,0x27,
                        0x32,0x00,0x91,0x2e,0x32,0x00,0x91,0x35,0x32,0x00,0x91,0x22,0x32,0x00,0x91,0x29,0x32,0x00,
                        0x91,0x3a,0x32,0x00,0x91,0x3a,0x32,0x83,0x00,0x81,0x35,0x00,0x00,0x91,0x2e,0x32,0x83,0x00,
                        0x81,0x2e,0x00,0x00,0x81,0x29,0x00,0x00,0x81,0x22,0x00,0x00,0x81,0x2e,0x00,0x00,0x81,0x27,
                        0x00,0x00,0x91,0x33,0x32,0x00,0x91,0x32,0x32,0x00,0x91,0x22,0x32,0x00,0x91,0x29,0x32,0x81,
                        0x40,0x81,0x29,0x00,0x00,0x81,0x22,0x00,0x00,0x81,0x32,0x00,0x00,0x81,0x33,0x00,0x00,0x91,
                        0x32,0x32,0x00,0x91,0x33,0x32,0x81,0x40,0x81,0x33,0x00,0x00,0x81,0x32,0x00,0x00,0x81,0x3a,
                        0x00,0x00,0x81,0x3a,0x00,0x00,0x91,0x2e,0x32,0x00,0x91,0x35,0x32,0x00,0x91,0x35,0x32,0x00,
                        0x91,0x22,0x32,0x00,0x91,0x29,0x32,0x00,0x91,0x3f,0x32,0x00,0x91,0x3a,0x32,0x81,0x40,0x81,
                        0x3f,0x00,0x00,0x91,0x3e,0x32,0x81,0x40,0x81,0x3e,0x00,0x00,0x81,0x35,0x00,0x00,0x91,0x2e,
                        0x32,0x00,0x91,0x41,0x32,0x83,0x00,0x81,0x2e,0x00,0x00,0x81,0x29,0x00,0x00,0x81,0x22,0x00,
                        0x00,0x91,0x32,0x32,0x00,0x91,0x22,0x32,0x00,0x91,0x29,0x32,0x81,0x40,0x81,0x29,0x00,0x00,
                        0x81,0x22,0x00,0x00,0x81,0x32,0x00,0x00,0x91,0x33,0x32,0x81,0x40,0x81,0x33,0x00,0x00,0x81,
                        0x41,0x00,0x00,0x81,0x3a,0x00,0x00,0x81,0x35,0x00,0x00,0x81,0x2e,0x00,0x00,0x91,0x27,0x32,
                        0x00,0x91,0x2e,0x32,0x00,0x91,0x35,0x32,0x00,0x91,0x22,0x32,0x00,0x91,0x29,0x32,0x00,0x91,
                        0x3a,0x32,0x00,0x91,0x3a,0x32,0x83,0x00,0x81,0x35,0x00,0x00,0x91,0x2e,0x32,0x83,0x00,0x81,
                        0x2e,0x00,0x00,0x81,0x29,0x00,0x00,0x81,0x22,0x00,0x00,0x81,0x2e,0x00,0x00,0x81,0x27,0x00,
                        0x00,0x91,0x33,0x32,0x00,0x91,0x32,0x32,0x00,0x91,0x22,0x32,0x00,0x91,0x29,0x32,0x81,0x40,
                        0x81,0x29,0x00,0x00,0x81,0x22,0x00,0x00,0x81,0x32,0x00,0x00,0x81,0x33,0x00,0x00,0x91,0x32,
                        0x32,0x00,0x91,0x33,0x32,0x81,0x40,0x81,0x33,0x00,0x00,0x81,0x32,0x00,0x00,0x81,0x3a,0x00,
                        0x00,0x81,0x3a,0x00,0x00,0x91,0x24,0x32,0x00,0x91,0x30,0x32,0x00,0x91,0x30,0x32,0x00,0x91,
                        0x24,0x32,0x00,0x91,0x2b,0x32,0x00,0x91,0x3f,0x32,0x00,0x91,0x41,0x32,0x81,0x40,0x81,0x3f,
                        0x00,0x00,0x91,0x3e,0x32,0x81,0x40,0x81,0x3e,0x00,0x00,0x81,0x30,0x00,0x00,0x91,0x29,0x32,
                        0x00,0x91,0x3c,0x32,0x83,0x00,0x81,0x29,0x00,0x00,0x81,0x2b,0x00,0x00,0x81,0x24,0x00,0x00,
                        0x91,0x2c,0x32,0x00,0x91,0x24,0x32,0x00,0x91,0x2b,0x32,0x81,0x40,0x81,0x2b,0x00,0x00,0x81,
                        0x24,0x00,0x00,0x81,0x2c,0x00,0x00,0x91,0x2e,0x32,0x81,0x40,0x81,0x2e,0x00,0x00,0x81,0x3c,
                        0x00,0x00,0x81,0x41,0x00,0x00,0x91,0x30,0x32,0x00,0x91,0x24,0x32,0x00,0x91,0x2b,0x32,0x00,
                        0x91,0x3c,0x32,0x00,0x91,0x41,0x32,0x83,0x00,0x81,0x30,0x00,0x00,0x91,0x29,0x32,0x83,0x00,
                        0x81,0x29,0x00,0x00,0x81,0x2b,0x00,0x00,0x81,0x24,0x00,0x00,0x91,0x2c,0x32,0x00,0x91,0x24,
                        0x32,0x00,0x91,0x2b,0x32,0x81,0x40,0x81,0x2b,0x00,0x00,0x81,0x24,0x00,0x00,0x81,0x2c,0x00,
                        0x00,0x91,0x2e,0x32,0x81,0x40,0x81,0x2e,0x00,0x00,0x81,0x41,0x00,0x00,0x91,0x30,0x32,0x00,
                        0x91,0x24,0x32,0x00,0x91,0x2b,0x32,0x00,0x91,0x41,0x32,0x83,0x00,0x81,0x30,0x00,0x00,0x91,
                        0x29,0x32,0x83,0x00,0x81,0x29,0x00,0x00,0x81,0x2b,0x00,0x00,0x81,0x24,0x00,0x00,0x91,0x2c,
                        0x32,0x00,0x91,0x24,0x32,0x00,0x91,0x2b,0x32,0x81,0x40,0x81,0x2b,0x00,0x00,0x81,0x24,0x00,
                        0x00,0x81,0x2c,0x00,0x00,0x91,0x2e,0x32,0x81,0x40,0x81,0x2e,0x00,0x00,0x81,0x41,0x00,0x00,
                        0x91,0x30,0x32,0x00,0x91,0x24,0x32,0x00,0x91,0x2b,0x32,0x00,0x91,0x41,0x32,0x83,0x00,0x81,
                        0x41,0x00,0x00,0x81,0x30,0x00,0x00,0x91,0x29,0x32,0x00,0x91,0x41,0x32,0x83,0x00,0x81,0x41,
                        0x00,0x00,0x81,0x29,0x00,0x00,0x81,0x2b,0x00,0x00,0x81,0x24,0x00,0x00,0x91,0x2c,0x32,0x00,
                        0x91,0x24,0x32,0x00,0x91,0x2b,0x32,0x00,0x91,0x41,0x32,0x81,0x40,0x81,0x2b,0x00,0x00,0x81,
                        0x24,0x00,0x00,0x81,0x2c,0x00,0x00,0x91,0x2e,0x32,0x81,0x40,0x81,0x2e,0x00,0x00,0x81,0x41,
                        0x00,0x00,0x81,0x3c,0x00,0x00,0x81,0x30,0x00,0x00,0x81,0x24,0x00,0x00,0x91,0x37,0x32,0x00,
                        0x91,0x37,0x32,0x00,0x91,0x24,0x32,0x00,0x91,0x43,0x32,0x00,0x91,0x43,0x32,0x81,0x40,0x81,
                        0x24,0x00,0x00,0x91,0x2b,0x32,0x81,0x40,0x81,0x2b,0x00,0x00,0x81,0x43,0x00,0x00,0x81,0x37,
                        0x00,0x00,0x91,0x30,0x32,0x00,0x91,0x30,0x32,0x00,0x91,0x3c,0x32,0x81,0x40,0x81,0x30,0x00,
                        0x00,0x91,0x33,0x32,0x81,0x40,0x81,0x33,0x00,0x00,0x81,0x3c,0x00,0x00,0x81,0x30,0x00,0x00,
                        0x91,0x33,0x32,0x00,0x91,0x37,0x32,0x00,0x91,0x3f,0x32,0x81,0x40,0x81,0x3f,0x00,0x00,0x81,
                        0x33,0x00,0x00,0x91,0x35,0x32,0x00,0x91,0x41,0x32,0x81,0x40,0x81,0x41,0x00,0x00,0x81,0x35,
                        0x00,0x00,0x81,0x37,0x00,0x00,0x81,0x43,0x00,0x00,0x81,0x37,0x00,0x00,0x91,0x30,0x32,0x00,
                        0x91,0x37,0x32,0x00,0x91,0x24,0x32,0x00,0x91,0x3c,0x32,0x00,0x91,0x43,0x32,0x81,0x40,0x81,
                        0x24,0x00,0x00,0x91,0x2b,0x32,0x81,0x40,0x81,0x2b,0x00,0x00,0x81,0x43,0x00,0x00,0x81,0x37,
                        0x00,0x00,0x91,0x30,0x32,0x00,0x91,0x30,0x32,0x00,0x91,0x3c,0x32,0x81,0x40,0x81,0x30,0x00,
                        0x00,0x91,0x33,0x32,0x81,0x40,0x81,0x33,0x00,0x00,0x81,0x3c,0x00,0x00,0x81,0x30,0x00,0x00,
                        0x81,0x30,0x00,0x00,0x91,0x33,0x32,0x00,0x91,0x33,0x32,0x00,0x91,0x37,0x32,0x00,0x91,0x3f,
                        0x32,0x81,0x40,0x81,0x3f,0x00,0x00,0x81,0x33,0x00,0x00,0x81,0x33,0x00,0x00,0x91,0x35,0x32,
                        0x00,0x91,0x35,0x32,0x00,0x91,0x41,0x32,0x81,0x40,0x81,0x41,0x00,0x00,0x81,0x35,0x00,0x00,
                        0x81,0x35,0x00,0x00,0x81,0x37,0x00,0x00,0x81,0x3c,0x00,0x00,0x91,0x37,0x32,0x00,0x91,0x37,
                        0x32,0x00,0x91,0x24,0x32,0x00,0x91,0x3f,0x32,0x00,0x91,0x43,0x32,0x81,0x40,0x81,0x3f,0x00,
                        0x00,0x81,0x24,0x00,0x00,0x91,0x2b,0x32,0x00,0x91,0x41,0x32,0x81,0x40,0x81,0x41,0x00,0x00,
                        0x81,0x2b,0x00,0x00,0x81,0x43,0x00,0x00,0x81,0x37,0x00,0x00,0x91,0x30,0x32,0x00,0x91,0x30,
                        0x32,0x00,0x91,0x43,0x32,0x00,0x91,0x3c,0x32,0x81,0x40,0x81,0x30,0x00,0x00,0x91,0x33,0x32,
                        0x81,0x40,0x81,0x33,0x00,0x00,0x81,0x3c,0x00,0x00,0x81,0x30,0x00,0x00,0x91,0x33,0x32,0x00,
                        0x91,0x37,0x32,0x00,0x91,0x3f,0x32,0x81,0x40,0x81,0x3f,0x00,0x00,0x81,0x33,0x00,0x00,0x91,
                        0x35,0x32,0x00,0x91,0x41,0x32,0x81,0x40,0x81,0x41,0x00,0x00,0x81,0x35,0x00,0x00,0x81,0x37,
                        0x00,0x00,0x81,0x43,0x00,0x00,0x81,0x37,0x00,0x00,0x91,0x30,0x32,0x00,0x91,0x37,0x32,0x00,
                        0x91,0x24,0x32,0x00,0x91,0x3c,0x32,0x00,0x91,0x43,0x32,0x81,0x40,0x81,0x24,0x00,0x00,0x91,
                        0x2b,0x32,0x81,0x40,0x81,0x2b,0x00,0x00,0x81,0x43,0x00,0x00,0x81,0x37,0x00,0x00,0x91,0x30,
                        0x32,0x00,0x91,0x30,0x32,0x00,0x91,0x3c,0x32,0x81,0x40,0x81,0x30,0x00,0x00,0x91,0x33,0x32,
                        0x81,0x40,0x81,0x33,0x00,0x00,0x81,0x3c,0x00,0x00,0x81,0x30,0x00,0x00,0x81,0x3c,0x00,0x00,
                        0x81,0x30,0x00,0x00,0x91,0x33,0x32,0x00,0x91,0x33,0x32,0x00,0x91,0x37,0x32,0x00,0x91,0x3f,
                        0x32,0x00,0x91,0x3f,0x32,0x81,0x40,0x81,0x3f,0x00,0x00,0x81,0x3f,0x00,0x00,0x81,0x33,0x00,
                        0x00,0x81,0x33,0x00,0x00,0x91,0x35,0x32,0x00,0x91,0x35,0x32,0x00,0x91,0x41,0x32,0x00,0x91,
                        0x41,0x32,0x81,0x40,0x81,0x41,0x00,0x00,0x81,0x41,0x00,0x00,0x81,0x35,0x00,0x00,0x81,0x35,
                        0x00,0x00,0x81,0x37,0x00,0x00,0x91,0x32,0x32,0x00,0x91,0x32,0x32,0x00,0x91,0x2b,0x32,0x00,
                        0x91,0x4a,0x32,0x00,0x91,0x37,0x32,0x00,0x91,0x3e,0x32,0x81,0x40,0x81,0x2b,0x00,0x00,0x91,
                        0x32,0x32,0x81,0x40,0x81,0x32,0x00,0x00,0x81,0x4a,0x00,0x00,0x81,0x32,0x00,0x00,0x91,0x2b,
                        0x32,0x00,0x91,0x37,0x32,0x00,0x91,0x43,0x32,0x81,0x40,0x81,0x37,0x00,0x00,0x91,0x32,0x32,
                        0x81,0x40,0x81,0x32,0x00,0x00,0x81,0x43,0x00,0x00,0x81,0x2b,0x00,0x00,0x91,0x2e,0x32,0x00,
                        0x91,0x37,0x32,0x00,0x91,0x46,0x32,0x81,0x40,0x81,0x46,0x00,0x00,0x81,0x37,0x00,0x00,0x81,
                        0x2e,0x00,0x00,0x91,0x30,0x32,0x00,0x91,0x32,0x32,0x00,0x91,0x48,0x32,0x81,0x40,0x81,0x48,
                        0x00,0x00,0x81,0x32,0x00,0x00,0x81,0x30,0x00,0x00,0x81,0x3e,0x00,0x00,0x81,0x37,0x00,0x00,
                        0x91,0x32,0x32,0x00,0x91,0x2b,0x32,0x00,0x91,0x4a,0x32,0x00,0x91,0x37,0x32,0x00,0x91,0x3e,
                        0x32,0x81,0x40,0x81,0x2b,0x00,0x00,0x91,0x32,0x32,0x81,0x40,0x81,0x32,0x00,0x00,0x81,0x4a,
                        0x00,0x00,0x81,0x32,0x00,0x00,0x91,0x2b,0x32,0x00,0x91,0x37,0x32,0x00,0x91,0x43,0x32,0x81,
                        0x40,0x81,0x37,0x00,0x00,0x91,0x32,0x32,0x81,0x40,0x81,0x32,0x00,0x00,0x81,0x43,0x00,0x00,
                        0x81,0x2b,0x00,0x00,0x91,0x2e,0x32,0x00,0x91,0x37,0x32,0x00,0x91,0x46,0x32,0x81,0x40,0x81,
                        0x46,0x00,0x00,0x81,0x37,0x00,0x00,0x81,0x2e,0x00,0x00,0x91,0x30,0x32,0x00,0x91,0x32,0x32,
                        0x00,0x91,0x48,0x32,0x81,0x40,0x81,0x48,0x00,0x00,0x81,0x32,0x00,0x00,0x81,0x30,0x00,0x00,
                        0x81,0x3e,0x00,0x00,0x81,0x37,0x00,0x00,0x91,0x32,0x32,0x00,0x91,0x2b,0x32,0x00,0x91,0x4a,
                        0x32,0x00,0x91,0x37,0x32,0x00,0x91,0x3e,0x32,0x81,0x40,0x81,0x2b,0x00,0x00,0x91,0x32,0x32,
                        0x81,0x40,0x81,0x32,0x00,0x00,0x81,0x4a,0x00,0x00,0x81,0x32,0x00,0x00,0x91,0x2b,0x32,0x00,
                        0x91,0x37,0x32,0x00,0x91,0x43,0x32,0x81,0x40,0x81,0x37,0x00,0x00,0x91,0x32,0x32,0x81,0x40,
                        0x81,0x32,0x00,0x00,0x81,0x43,0x00,0x00,0x81,0x2b,0x00,0x00,0x91,0x2e,0x32,0x00,0x91,0x37,
                        0x32,0x00,0x91,0x46,0x32,0x81,0x40,0x81,0x46,0x00,0x00,0x81,0x37,0x00,0x00,0x81,0x2e,0x00,
                        0x00,0x91,0x30,0x32,0x00,0x91,0x32,0x32,0x00,0x91,0x48,0x32,0x81,0x40,0x81,0x48,0x00,0x00,
                        0x81,0x32,0x00,0x00,0x81,0x30,0x00,0x00,0x81,0x3e,0x00,0x00,0x81,0x37,0x00,0x00,0x91,0x32,
                        0x32,0x00,0x91,0x2b,0x32,0x00,0x91,0x4a,0x32,0x00,0x91,0x37,0x32,0x81,0x40,0x81,0x2b,0x00,
                        0x00,0x91,0x32,0x32,0x81,0x40,0x81,0x32,0x00,0x00,0x81,0x37,0x00,0x00,0x81,0x4a,0x00,0x00,
                        0x81,0x32,0x00,0x00,0x91,0x2b,0x32,0x00,0x91,0x37,0x32,0x00,0x91,0x43,0x32,0x00,0x91,0x37,
                        0x32,0x81,0x40,0x81,0x37,0x00,0x00,0x91,0x32,0x32,0x81,0x40,0x81,0x32,0x00,0x00,0x81,0x37,
                        0x00,0x00,0x81,0x43,0x00,0x00,0x81,0x2b,0x00,0x00,0x91,0x2e,0x32,0x00,0x91,0x37,0x32,0x00,
                        0x91,0x46,0x32,0x00,0x91,0x37,0x32,0x81,0x40,0x81,0x37,0x00,0x00,0x81,0x2e,0x00,0x00,0x91,
                        0x30,0x32,0x00,0x91,0x32,0x32,0x81,0x40,0x81,0x32,0x00,0x00,0x81,0x30,0x00,0x00,0x81,0x37,
                        0x00,0x00,0x81,0x46,0x00,0x00,0x81,0x32,0x00,0x00,0x91,0x35,0x32,0x00,0x91,0x35,0x32,0x00,
                        0x91,0x2e,0x32,0x00,0x91,0x4a,0x32,0x00,0x91,0x41,0x32,0x81,0x40,0x81,0x2e,0x00,0x00,0x91,
                        0x35,0x32,0x81,0x40,0x81,0x35,0x00,0x00,0x81,0x4a,0x00,0x00,0x81,0x35,0x00,0x00,0x91,0x2e,
                        0x32,0x00,0x91,0x3a,0x32,0x00,0x91,0x41,0x32,0x81,0x40,0x81,0x3a,0x00,0x00,0x91,0x35,0x32,
                        0x81,0x40,0x81,0x35,0x00,0x00,0x81,0x41,0x00,0x00,0x81,0x2e,0x00,0x00,0x91,0x32,0x32,0x00,
                        0x91,0x3a,0x32,0x00,0x91,0x46,0x32,0x81,0x40,0x81,0x46,0x00,0x00,0x81,0x3a,0x00,0x00,0x81,
                        0x32,0x00,0x00,0x91,0x33,0x32,0x00,0x91,0x35,0x32,0x00,0x91,0x48,0x32,0x81,0x40,0x81,0x48,
                        0x00,0x00,0x81,0x35,0x00,0x00,0x81,0x33,0x00,0x00,0x81,0x41,0x00,0x00,0x81,0x35,0x00,0x00,
                        0x91,0x2e,0x32,0x00,0x91,0x35,0x32,0x00,0x91,0x2e,0x32,0x00,0x91,0x4a,0x32,0x00,0x91,0x3a,
                        0x32,0x81,0x40,0x81,0x2e,0x00,0x00,0x91,0x35,0x32,0x81,0x40,0x81,0x35,0x00,0x00,0x81,0x4a,
                        0x00,0x00,0x81,0x35,0x00,0x00,0x91,0x2e,0x32,0x00,0x91,0x3a,0x32,0x00,0x91,0x41,0x32,0x81,
                        0x40,0x81,0x3a,0x00,0x00,0x91,0x35,0x32,0x81,0x40,0x81,0x35,0x00,0x00,0x81,0x41,0x00,0x00,
                        0x81,0x2e,0x00,0x00,0x91,0x32,0x32,0x00,0x91,0x3a,0x32,0x00,0x91,0x46,0x32,0x81,0x40,0x81,
                        0x46,0x00,0x00,0x81,0x3a,0x00,0x00,0x81,0x32,0x00,0x00,0x91,0x33,0x32,0x00,0x91,0x35,0x32,
                        0x00,0x91,0x48,0x32,0x81,0x40,0x81,0x48,0x00,0x00,0x81,0x35,0x00,0x00,0x81,0x33,0x00,0x00,
                        0x81,0x3a,0x00,0x00,0x81,0x2e,0x00,0x00,0x91,0x32,0x32,0x00,0x91,0x35,0x32,0x00,0x91,0x2e,
                        0x32,0x00,0x91,0x4a,0x32,0x00,0x91,0x3e,0x32,0x81,0x40,0x81,0x2e,0x00,0x00,0x91,0x35,0x32,
                        0x81,0x40,0x81,0x35,0x00,0x00,0x81,0x4a,0x00,0x00,0x81,0x35,0x00,0x00,0x91,0x2e,0x32,0x00,
                        0x91,0x3a,0x32,0x00,0x91,0x41,0x32,0x81,0x40,0x81,0x3a,0x00,0x00,0x81,0x3e,0x00,0x00,0x91,
                        0x35,0x32,0x00,0x91,0x3f,0x32,0x81,0x40,0x81,0x35,0x00,0x00,0x81,0x41,0x00,0x00,0x81,0x2e,
                        0x00,0x00,0x81,0x32,0x00,0x00,0x91,0x33,0x32,0x00,0x91,0x32,0x32,0x00,0x91,0x3a,0x32,0x00,
                        0x91,0x46,0x32,0x81,0x40,0x81,0x46,0x00,0x00,0x81,0x3a,0x00,0x00,0x81,0x32,0x00,0x00,0x91,
                        0x33,0x32,0x00,0x91,0x35,0x32,0x00,0x91,0x48,0x32,0x81,0x40,0x81,0x48,0x00,0x00,0x81,0x35,
                        0x00,0x00,0x81,0x33,0x00,0x00,0x81,0x33,0x00,0x00,0x81,0x3f,0x00,0x00,0x91,0x32,0x32,0x00,
                        0x91,0x35,0x32,0x00,0x91,0x2e,0x32,0x00,0x91,0x4a,0x32,0x00,0x91,0x3e,0x32,0x81,0x40,0x81,
                        0x2e,0x00,0x00,0x91,0x35,0x32,0x81,0x40,0x81,0x35,0x00,0x00,0x81,0x4a,0x00,0x00,0x81,0x35,
                        0x00,0x00,0x91,0x2e,0x32,0x00,0x91,0x3a,0x32,0x00,0x91,0x41,0x32,0x81,0x40,0x81,0x3a,0x00,
                        0x00,0x81,0x3e,0x00,0x00,0x91,0x35,0x32,0x00,0x91,0x3a,0x32,0x81,0x40,0x81,0x35,0x00,0x00,
                        0x81,0x41,0x00,0x00,0x81,0x2e,0x00,0x00,0x81,0x32,0x00,0x00,0x91,0x2e,0x32,0x00,0x91,0x32,
                        0x32,0x00,0x91,0x3a,0x32,0x00,0x91,0x46,0x32,0x81,0x40,0x81,0x46,0x00,0x00,0x81,0x3a,0x00,
                        0x00,0x81,0x32,0x00,0x00,0x91,0x33,0x32,0x00,0x91,0x35,0x32,0x00,0x91,0x48,0x32,0x81,0x40,
                        0x81,0x48,0x00,0x00,0x81,0x35,0x00,0x00,0x81,0x33,0x00,0x00,0x81,0x2e,0x00,0x00,0x81,0x3a,
                        0x00,0x00,0x91,0x30,0x32,0x00,0x91,0x30,0x32,0x00,0x91,0x24,0x32,0x00,0x91,0x54,0x32,0x00,
                        0x91,0x3c,0x32,0x81,0x40,0x81,0x24,0x00,0x00,0x91,0x2b,0x32,0x81,0x40,0x81,0x2b,0x00,0x00,
                        0x81,0x54,0x00,0x00,0x81,0x30,0x00,0x00,0x91,0x29,0x32,0x00,0x91,0x30,0x32,0x00,0x91,0x4f,
                        0x32,0x81,0x40,0x81,0x30,0x00,0x00,0x91,0x2b,0x32,0x81,0x40,0x81,0x2b,0x00,0x00,0x81,0x4f,
                        0x00,0x00,0x81,0x29,0x00,0x00,0x91,0x2c,0x32,0x00,0x91,0x30,0x32,0x00,0x91,0x50,0x32,0x81,
                        0x40,0x81,0x50,0x00,0x00,0x81,0x30,0x00,0x00,0x81,0x2c,0x00,0x00,0x91,0x2e,0x32,0x00,0x91,
                        0x2b,0x32,0x00,0x91,0x52,0x32,0x81,0x40,0x81,0x52,0x00,0x00,0x81,0x2b,0x00,0x00,0x81,0x2e,
                        0x00,0x00,0x91,0x30,0x32,0x00,0x91,0x24,0x32,0x00,0x91,0x54,0x32,0x81,0x40,0x81,0x24,0x00,
                        0x00,0x91,0x2b,0x32,0x81,0x40,0x81,0x2b,0x00,0x00,0x81,0x54,0x00,0x00,0x81,0x30,0x00,0x00,
                        0x91,0x29,0x32,0x00,0x91,0x30,0x32,0x00,0x91,0x4f,0x32,0x81,0x40,0x81,0x30,0x00,0x00,0x91,
                        0x2b,0x32,0x81,0x40,0x81,0x2b,0x00,0x00,0x81,0x4f,0x00,0x00,0x81,0x29,0x00,0x00,0x91,0x2c,
                        0x32,0x00,0x91,0x30,0x32,0x00,0x91,0x50,0x32,0x81,0x40,0x81,0x50,0x00,0x00,0x81,0x30,0x00,
                        0x00,0x81,0x2c,0x00,0x00,0x91,0x2e,0x32,0x00,0x91,0x2b,0x32,0x00,0x91,0x52,0x32,0x81,0x40,
                        0x81,0x52,0x00,0x00,0x81,0x2b,0x00,0x00,0x81,0x2e,0x00,0x00,0x91,0x30,0x32,0x00,0x91,0x24,
                        0x32,0x00,0x91,0x54,0x32,0x81,0x40,0x81,0x24,0x00,0x00,0x91,0x2b,0x32,0x81,0x40,0x81,0x2b,
                        0x00,0x00,0x81,0x54,0x00,0x00,0x81,0x30,0x00,0x00,0x91,0x29,0x32,0x00,0x91,0x30,0x32,0x00,
                        0x91,0x4f,0x32,0x81,0x40,0x81,0x30,0x00,0x00,0x91,0x2b,0x32,0x81,0x40,0x81,0x2b,0x00,0x00,
                        0x81,0x4f,0x00,0x00,0x81,0x29,0x00,0x00,0x91,0x2c,0x32,0x00,0x91,0x30,0x32,0x00,0x91,0x50,
                        0x32,0x81,0x40,0x81,0x50,0x00,0x00,0x81,0x30,0x00,0x00,0x81,0x2c,0x00,0x00,0x91,0x2e,0x32,
                        0x00,0x91,0x2b,0x32,0x00,0x91,0x52,0x32,0x81,0x40,0x81,0x52,0x00,0x00,0x81,0x2b,0x00,0x00,
                        0x81,0x2e,0x00,0x00,0x91,0x30,0x32,0x00,0x91,0x24,0x32,0x00,0x91,0x2b,0x32,0x00,0x91,0x54,
                        0x32,0x83,0x00,0x81,0x54,0x00,0x00,0x81,0x2b,0x00,0x00,0x81,0x24,0x00,0x00,0x81,0x30,0x00,
                        0x00,0x91,0x29,0x32,0x00,0x91,0x24,0x32,0x00,0x91,0x2b,0x32,0x00,0x91,0x4f,0x32,0x83,0x00,
                        0x81,0x4f,0x00,0x00,0x81,0x2b,0x00,0x00,0x81,0x24,0x00,0x00,0x81,0x29,0x00,0x00,0x91,0x2c,
                        0x32,0x00,0x91,0x24,0x32,0x00,0x91,0x2b,0x32,0x00,0x91,0x50,0x32,0x81,0x40,0x81,0x50,0x00,
                        0x00,0x81,0x2b,0x00,0x00,0x81,0x24,0x00,0x00,0x81,0x2c,0x00,0x00,0x91,0x2e,0x32,0x00,0x91,
                        0x52,0x32,0x81,0x40,0x81,0x52,0x00,0x00,0x81,0x2e,0x00,0x00,0x81,0x3c,0x00,0x00,0x81,0x30,
                        0x00,0x00,0x91,0x3c,0x32,0x00,0x91,0x3c,0x32,0x00,0x91,0x2c,0x32,0x00,0x91,0x33,0x32,0x00,
                        0x91,0x48,0x32,0x00,0x91,0x44,0x32,0x00,0x91,0x48,0x32,0x83,0x00,0x81,0x48,0x00,0x00,0x81,
                        0x3c,0x00,0x00,0x91,0x33,0x32,0x00,0x91,0x3f,0x32,0x83,0x00,0x81,0x3f,0x00,0x00,0x81,0x33,
                        0x00,0x00,0x81,0x33,0x00,0x00,0x81,0x2c,0x00,0x00,0x91,0x38,0x32,0x00,0x91,0x2c,0x32,0x00,
                        0x91,0x33,0x32,0x00,0x91,0x44,0x32,0x81,0x40,0x81,0x44,0x00,0x00,0x81,0x33,0x00,0x00,0x81,
                        0x2c,0x00,0x00,0x81,0x38,0x00,0x00,0x91,0x3a,0x32,0x00,0x91,0x46,0x32,0x81,0x40,0x81,0x46,
                        0x00,0x00,0x81,0x3a,0x00,0x00,0x81,0x44,0x00,0x00,0x91,0x3c,0x32,0x00,0x91,0x2c,0x32,0x00,
                        0x91,0x33,0x32,0x00,0x91,0x48,0x32,0x00,0x91,0x44,0x32,0x83,0x00,0x81,0x48,0x00,0x00,0x81,
                        0x3c,0x00,0x00,0x91,0x33,0x32,0x00,0x91,0x3f,0x32,0x83,0x00,0x81,0x3f,0x00,0x00,0x81,0x33,
                        0x00,0x00,0x81,0x33,0x00,0x00,0x81,0x2c,0x00,0x00,0x91,0x38,0x32,0x00,0x91,0x2c,0x32,0x00,
                        0x91,0x33,0x32,0x00,0x91,0x46,0x32,0x81,0x40,0x81,0x46,0x00,0x00,0x81,0x33,0x00,0x00,0x81,
                        0x2c,0x00,0x00,0x81,0x38,0x00,0x00,0x91,0x3c,0x32,0x00,0x91,0x48,0x32,0x81,0x40,0x81,0x48,
                        0x00,0x00,0x81,0x3c,0x00,0x00,0x81,0x44,0x00,0x00,0x81,0x48,0x00,0x00,0x81,0x3c,0x00,0x00,
                        0x91,0x3a,0x32,0x00,0x91,0x3a,0x32,0x00,0x91,0x27,0x32,0x00,0x91,0x2e,0x32,0x00,0x91,0x46,
                        0x32,0x00,0x91,0x3f,0x32,0x00,0x91,0x46,0x32,0x83,0x00,0x81,0x46,0x00,0x00,0x81,0x3a,0x00,
                        0x00,0x91,0x33,0x32,0x00,0x91,0x3f,0x32,0x83,0x00,0x81,0x3f,0x00,0x00,0x81,0x33,0x00,0x00,
                        0x81,0x2e,0x00,0x00,0x81,0x27,0x00,0x00,0x91,0x37,0x32,0x00,0x91,0x27,0x32,0x00,0x91,0x2e,
                        0x32,0x00,0x91,0x43,0x32,0x81,0x40,0x81,0x43,0x00,0x00,0x81,0x2e,0x00,0x00,0x81,0x27,0x00,
                        0x00,0x81,0x37,0x00,0x00,0x91,0x38,0x32,0x00,0x91,0x44,0x32,0x81,0x40,0x81,0x44,0x00,0x00,
                        0x81,0x38,0x00,0x00,0x81,0x3f,0x00,0x00,0x91,0x3a,0x32,0x00,0x91,0x27,0x32,0x00,0x91,0x2e,
                        0x32,0x00,0x91,0x46,0x32,0x00,0x91,0x3f,0x32,0x83,0x00,0x81,0x46,0x00,0x00,0x81,0x3a,0x00,
                        0x00,0x91,0x33,0x32,0x00,0x91,0x3f,0x32,0x83,0x00,0x81,0x3f,0x00,0x00,0x81,0x33,0x00,0x00,
                        0x81,0x2e,0x00,0x00,0x81,0x27,0x00,0x00,0x91,0x37,0x32,0x00,0x91,0x27,0x32,0x00,0x91,0x2e,
                        0x32,0x00,0x91,0x43,0x32,0x81,0x40,0x81,0x43,0x00,0x00,0x81,0x2e,0x00,0x00,0x81,0x27,0x00,
                        0x00,0x81,0x37,0x00,0x00,0x91,0x3a,0x32,0x00,0x91,0x46,0x32,0x81,0x40,0x81,0x46,0x00,0x00,
                        0x81,0x3a,0x00,0x00,0x81,0x3f,0x00,0x00,0x81,0x46,0x00,0x00,0x81,0x3a,0x00,0x00,0x91,0x30,
                        0x32,0x00,0x91,0x38,0x32,0x00,0x91,0x29,0x32,0x00,0x91,0x30,0x32,0x00,0x91,0x43,0x32,0x00,
                        0x91,0x3c,0x32,0x83,0x00,0x81,0x43,0x00,0x00,0x81,0x38,0x00,0x00,0x91,0x30,0x32,0x00,0x91,
                        0x3c,0x32,0x83,0x00,0x81,0x3c,0x00,0x00,0x81,0x30,0x00,0x00,0x81,0x30,0x00,0x00,0x81,0x29,
                        0x00,0x00,0x91,0x35,0x32,0x00,0x91,0x29,0x32,0x00,0x91,0x30,0x32,0x00,0x91,0x41,0x32,0x81,
                        0x40,0x81,0x41,0x00,0x00,0x81,0x30,0x00,0x00,0x81,0x29,0x00,0x00,0x81,0x35,0x00,0x00,0x91,
                        0x37,0x32,0x00,0x91,0x43,0x32,0x81,0x40,0x81,0x43,0x00,0x00,0x81,0x37,0x00,0x00,0x91,0x38,
                        0x32,0x00,0x91,0x29,0x32,0x00,0x91,0x30,0x32,0x00,0x91,0x44,0x32,0x83,0x00,0x81,0x44,0x00,
                        0x00,0x81,0x38,0x00,0x00,0x91,0x30,0x32,0x00,0x91,0x3c,0x32,0x83,0x00,0x81,0x3c,0x00,0x00,
                        0x81,0x30,0x00,0x00,0x81,0x30,0x00,0x00,0x81,0x29,0x00,0x00,0x91,0x35,0x32,0x00,0x91,0x29,
                        0x32,0x00,0x91,0x30,0x32,0x00,0x91,0x41,0x32,0x81,0x40,0x81,0x41,0x00,0x00,0x81,0x30,0x00,
                        0x00,0x81,0x29,0x00,0x00,0x81,0x35,0x00,0x00,0x91,0x38,0x32,0x00,0x91,0x44,0x32,0x81,0x40,
                        0x81,0x44,0x00,0x00,0x81,0x38,0x00,0x00,0x81,0x3c,0x00,0x00,0x81,0x30,0x00,0x00,0x91,0x37,
                        0x32,0x00,0x91,0x37,0x32,0x00,0x91,0x24,0x32,0x00,0x91,0x2b,0x32,0x00,0x91,0x43,0x32,0x00,
                        0x91,0x43,0x32,0x83,0x00,0x81,0x43,0x00,0x00,0x81,0x37,0x00,0x00,0x91,0x30,0x32,0x00,0x91,
                        0x3c,0x32,0x83,0x00,0x81,0x3c,0x00,0x00,0x81,0x30,0x00,0x00,0x81,0x2b,0x00,0x00,0x81,0x24,
                        0x00,0x00,0x91,0x33,0x32,0x00,0x91,0x24,0x32,0x00,0x91,0x2b,0x32,0x00,0x91,0x3f,0x32,0x81,
                        0x40,0x81,0x3f,0x00,0x00,0x81,0x2b,0x00,0x00,0x81,0x24,0x00,0x00,0x81,0x33,0x00,0x00,0x91,
                        0x35,0x32,0x00,0x91,0x41,0x32,0x81,0x40,0x81,0x41,0x00,0x00,0x81,0x35,0x00,0x00,0x91,0x37,
                        0x32,0x00,0x91,0x24,0x32,0x00,0x91,0x2b,0x32,0x00,0x91,0x43,0x32,0x83,0x00,0x81,0x43,0x00,
                        0x00,0x81,0x37,0x00,0x00,0x91,0x30,0x32,0x00,0x91,0x3c,0x32,0x83,0x00,0x81,0x3c,0x00,0x00,
                        0x81,0x30,0x00,0x00,0x81,0x2b,0x00,0x00,0x81,0x24,0x00,0x00,0x91,0x33,0x32,0x00,0x91,0x24,
                        0x32,0x00,0x91,0x2b,0x32,0x00,0x91,0x3f,0x32,0x81,0x40,0x81,0x3f,0x00,0x00,0x81,0x2b,0x00,
                        0x00,0x81,0x24,0x00,0x00,0x81,0x33,0x00,0x00,0x91,0x35,0x32,0x00,0x91,0x41,0x32,0x81,0x40,
                        0x81,0x41,0x00,0x00,0x81,0x35,0x00,0x00,0x81,0x43,0x00,0x00,0x81,0x37,0x00,0x00,0x91,0x2c,
                        0x32,0x00,0x91,0x33,0x32,0x00,0x91,0x20,0x32,0x00,0x91,0x27,0x32,0x00,0x91,0x3f,0x32,0x00,
                        0x91,0x44,0x32,0x83,0x00,0x81,0x3f,0x00,0x00,0x81,0x33,0x00,0x00,0x91,0x2c,0x32,0x00,0x91,
                        0x38,0x32,0x83,0x00,0x81,0x38,0x00,0x00,0x81,0x2c,0x00,0x00,0x81,0x27,0x00,0x00,0x81,0x20,
                        0x00,0x00,0x91,0x30,0x32,0x00,0x91,0x20,0x32,0x00,0x91,0x27,0x32,0x00,0x91,0x3f,0x32,0x81,
                        0x40,0x81,0x3f,0x00,0x00,0x81,0x27,0x00,0x00,0x81,0x20,0x00,0x00,0x81,0x30,0x00,0x00,0x91,
                        0x32,0x32,0x00,0x91,0x3e,0x32,0x81,0x40,0x81,0x3e,0x00,0x00,0x81,0x32,0x00,0x00,0x91,0x33,
                        0x32,0x00,0x91,0x20,0x32,0x00,0x91,0x27,0x32,0x00,0x91,0x3f,0x32,0x83,0x00,0x81,0x3f,0x00,
                        0x00,0x81,0x33,0x00,0x00,0x91,0x2c,0x32,0x00,0x91,0x38,0x32,0x83,0x00,0x81,0x38,0x00,0x00,
                        0x81,0x2c,0x00,0x00,0x81,0x27,0x00,0x00,0x81,0x20,0x00,0x00,0x91,0x30,0x32,0x00,0x91,0x20,
                        0x32,0x00,0x91,0x27,0x32,0x00,0x91,0x3c,0x32,0x81,0x40,0x81,0x3c,0x00,0x00,0x81,0x27,0x00,
                        0x00,0x81,0x20,0x00,0x00,0x81,0x30,0x00,0x00,0x91,0x32,0x32,0x00,0x91,0x3e,0x32,0x81,0x40,
                        0x81,0x3e,0x00,0x00,0x81,0x32,0x00,0x00,0x81,0x44,0x00,0x00,0x81,0x2c,0x00,0x00,0x91,0x33,
                        0x32,0x00,0x91,0x33,0x32,0x00,0x91,0x20,0x32,0x00,0x91,0x27,0x32,0x00,0x91,0x3f,0x32,0x00,
                        0x91,0x3f,0x32,0x81,0x40,0x81,0x27,0x00,0x00,0x81,0x20,0x00,0x81,0x40,0x81,0x3f,0x00,0x00,
                        0x81,0x33,0x00,0x00,0x91,0x2c,0x32,0x00,0x91,0x20,0x32,0x00,0x91,0x27,0x32,0x00,0x91,0x38,
                        0x32,0x81,0x40,0x81,0x27,0x00,0x00,0x81,0x20,0x00,0x81,0x40,0x81,0x38,0x00,0x00,0x81,0x2c,
                        0x00,0x00,0x91,0x30,0x32,0x00,0x91,0x20,0x32,0x00,0x91,0x27,0x32,0x00,0x91,0x3e,0x32,0x81,
                        0x40,0x81,0x3e,0x00,0x00,0x81,0x27,0x00,0x00,0x81,0x20,0x00,0x00,0x81,0x30,0x00,0x00,0x91,
                        0x33,0x32,0x00,0x91,0x3f,0x32,0x81,0x40,0x81,0x3f,0x00,0x00,0x81,0x33,0x00,0x00,0x81,0x3f,
                        0x00,0x00,0x81,0x33,0x00,0x00,0x91,0x35,0x32,0x00,0x91,0x35,0x32,0x00,0x91,0x1f,0x32,0x00,
                        0x91,0x26,0x32,0x00,0x91,0x41,0x32,0x00,0x91,0x41,0x32,0x81,0x40,0x81,0x26,0x00,0x00,0x81,
                        0x1f,0x00,0x81,0x40,0x81,0x41,0x00,0x00,0x81,0x35,0x00,0x00,0x91,0x2e,0x32,0x00,0x91,0x1f,
                        0x32,0x00,0x91,0x26,0x32,0x00,0x91,0x3a,0x32,0x81,0x40,0x81,0x26,0x00,0x00,0x81,0x1f,0x00,
                        0x81,0x40,0x81,0x3a,0x00,0x00,0x81,0x2e,0x00,0x00,0x91,0x33,0x32,0x00,0x91,0x1f,0x32,0x00,
                        0x91,0x26,0x32,0x00,0x91,0x3f,0x32,0x81,0x40,0x81,0x3f,0x00,0x00,0x81,0x26,0x00,0x00,0x81,
                        0x1f,0x00,0x00,0x81,0x33,0x00,0x00,0x91,0x32,0x32,0x00,0x91,0x41,0x32,0x81,0x40,0x81,0x41,
                        0x00,0x00,0x81,0x32,0x00,0x00,0x81,0x41,0x00,0x00,0x81,0x35,0x00,0x00,0x91,0x37,0x32,0x00,
                        0x91,0x30,0x32,0x00,0x91,0x24,0x32,0x00,0x91,0x2b,0x32,0x00,0x91,0x43,0x32,0x00,0x91,0x43,
                        0x32,0x83,0x00,0x81,0x43,0x00,0x00,0x81,0x30,0x00,0x00,0x91,0x2b,0x32,0x00,0x91,0x3c,0x32,
                        0x83,0x00,0x81,0x3c,0x00,0x00,0x81,0x2b,0x00,0x00,0x81,0x2b,0x00,0x00,0x81,0x24,0x00,0x00,
                        0x91,0x2c,0x32,0x00,0x91,0x24,0x32,0x00,0x91,0x2b,0x32,0x00,0x91,0x3f,0x32,0x81,0x40,0x81,
                        0x3f,0x00,0x00,0x81,0x2b,0x00,0x00,0x81,0x24,0x00,0x00,0x81,0x2c,0x00,0x00,0x91,0x2e,0x32,
                        0x00,0x91,0x41,0x32,0x81,0x40,0x81,0x41,0x00,0x00,0x81,0x2e,0x00,0x00,0x91,0x30,0x32,0x00,
                        0x91,0x24,0x32,0x00,0x91,0x2b,0x32,0x00,0x91,0x43,0x32,0x83,0x00,0x81,0x43,0x00,0x00,0x81,
                        0x30,0x00,0x00,0x91,0x2b,0x32,0x00,0x91,0x3c,0x32,0x83,0x00,0x81,0x3c,0x00,0x00,0x81,0x2b,
                        0x00,0x00,0x81,0x2b,0x00,0x00,0x81,0x24,0x00,0x00,0x91,0x2c,0x32,0x00,0x91,0x24,0x32,0x00,
                        0x91,0x2b,0x32,0x00,0x91,0x3f,0x32,0x81,0x40,0x81,0x3f,0x00,0x00,0x81,0x2b,0x00,0x00,0x81,
                        0x24,0x00,0x00,0x81,0x2c,0x00,0x00,0x91,0x2e,0x32,0x00,0x91,0x41,0x32,0x81,0x40,0x81,0x41,
                        0x00,0x00,0x81,0x2e,0x00,0x00,0x91,0x30,0x32,0x00,0x91,0x24,0x32,0x00,0x91,0x2b,0x32,0x00,
                        0x91,0x43,0x32,0x83,0x00,0x81,0x43,0x00,0x00,0x81,0x30,0x00,0x00,0x91,0x2b,0x32,0x00,0x91,
                        0x3c,0x32,0x83,0x00,0x81,0x3c,0x00,0x00,0x81,0x2b,0x00,0x00,0x81,0x2b,0x00,0x00,0x81,0x24,
                        0x00,0x00,0x91,0x2c,0x32,0x00,0x91,0x24,0x32,0x00,0x91,0x2b,0x32,0x00,0x91,0x3f,0x32,0x81,
                        0x40,0x81,0x3f,0x00,0x00,0x81,0x2b,0x00,0x00,0x81,0x24,0x00,0x00,0x81,0x2c,0x00,0x00,0x91,
                        0x2e,0x32,0x00,0x91,0x41,0x32,0x81,0x40,0x81,0x41,0x00,0x00,0x81,0x2e,0x00,0x00,0x91,0x30,
                        0x32,0x00,0x91,0x27,0x32,0x00,0x91,0x2e,0x32,0x00,0x91,0x43,0x32,0x83,0x00,0x81,0x43,0x00,
                        0x00,0x81,0x30,0x00,0x00,0x91,0x2b,0x32,0x00,0x91,0x3c,0x32,0x83,0x00,0x81,0x3c,0x00,0x00,
                        0x81,0x2b,0x00,0x00,0x81,0x2e,0x00,0x00,0x81,0x27,0x00,0x00,0x91,0x2c,0x32,0x00,0x91,0x27,
                        0x32,0x00,0x91,0x2e,0x32,0x00,0x91,0x3f,0x32,0x81,0x40,0x81,0x3f,0x00,0x00,0x81,0x2e,0x00,
                        0x00,0x81,0x27,0x00,0x00,0x81,0x2c,0x00,0x00,0x91,0x2e,0x32,0x00,0x91,0x41,0x32,0x81,0x40,
                        0x81,0x41,0x00,0x00,0x81,0x2e,0x00,0x00,0x81,0x43,0x00,0x00,0x81,0x37,0x00,0x00,0x91,0x3c,
                        0x32,0x00,0x91,0x30,0x32,0x00,0x91,0x2c,0x32,0x00,0x91,0x33,0x32,0x00,0x91,0x48,0x32,0x00,
                        0x91,0x48,0x32,0x83,0x00,0x81,0x48,0x00,0x00,0x81,0x30,0x00,0x00,0x81,0x3c,0x00,0x00,0x91,
                        0x37,0x32,0x00,0x91,0x2b,0x32,0x00,0x91,0x3f,0x32,0x83,0x00,0x81,0x3f,0x00,0x00,0x81,0x2b,
                        0x00,0x00,0x81,0x37,0x00,0x00,0x81,0x33,0x00,0x00,0x81,0x2c,0x00,0x00,0x91,0x38,0x32,0x00,
                        0x91,0x2c,0x32,0x00,0x91,0x2c,0x32,0x00,0x91,0x33,0x32,0x00,0x91,0x44,0x32,0x60,0x81,0x33,
                        0x00,0x00,0x81,0x2c,0x00,0x60,0x81,0x44,0x00,0x00,0x81,0x2c,0x00,0x00,0x81,0x38,0x00,0x00,
                        0x91,0x3a,0x32,0x00,0x91,0x2e,0x32,0x00,0x91,0x2c,0x32,0x00,0x91,0x33,0x32,0x00,0x91,0x46,
                        0x32,0x60,0x81,0x33,0x00,0x00,0x81,0x2c,0x00,0x60,0x81,0x46,0x00,0x00,0x81,0x2e,0x00,0x00,
                        0x81,0x3a,0x00,0x00,0x91,0x3c,0x32,0x00,0x91,0x30,0x32,0x00,0x91,0x2c,0x32,0x00,0x91,0x33,
                        0x32,0x00,0x91,0x48,0x32,0x83,0x00,0x81,0x48,0x00,0x00,0x81,0x30,0x00,0x00,0x81,0x3c,0x00,
                        0x00,0x91,0x37,0x32,0x00,0x91,0x2b,0x32,0x00,0x91,0x3f,0x32,0x83,0x00,0x81,0x3f,0x00,0x00,
                        0x81,0x2b,0x00,0x00,0x81,0x37,0x00,0x00,0x81,0x33,0x00,0x00,0x81,0x2c,0x00,0x00,0x91,0x38,
                        0x32,0x00,0x91,0x2c,0x32,0x00,0x91,0x2c,0x32,0x00,0x91,0x33,0x32,0x00,0x91,0x46,0x32,0x60,
                        0x81,0x33,0x00,0x00,0x81,0x2c,0x00,0x60,0x81,0x46,0x00,0x00,0x81,0x2c,0x00,0x00,0x81,0x38,
                        0x00,0x00,0x91,0x3a,0x32,0x00,0x91,0x2e,0x32,0x00,0x91,0x2c,0x32,0x00,0x91,0x33,0x32,0x00,
                        0x91,0x48,0x32,0x60,0x81,0x33,0x00,0x00,0x81,0x2c,0x00,0x60,0x81,0x48,0x00,0x00,0x81,0x2e,
                        0x00,0x00,0x81,0x3a,0x00,0x00,0x81,0x48,0x00,0x00,0x91,0x3c,0x32,0x00,0x91,0x30,0x32,0x00,
                        0x91,0x27,0x32,0x00,0x91,0x2e,0x32,0x00,0x91,0x46,0x32,0x00,0x91,0x46,0x32,0x83,0x00,0x81,
                        0x46,0x00,0x00,0x81,0x30,0x00,0x00,0x81,0x3c,0x00,0x00,0x91,0x37,0x32,0x00,0x91,0x2b,0x32,
                        0x00,0x91,0x3f,0x32,0x83,0x00,0x81,0x3f,0x00,0x00,0x81,0x2b,0x00,0x00,0x81,0x37,0x00,0x00,
                        0x81,0x2e,0x00,0x00,0x81,0x27,0x00,0x00,0x91,0x38,0x32,0x00,0x91,0x2c,0x32,0x00,0x91,0x27,
                        0x32,0x00,0x91,0x2e,0x32,0x00,0x91,0x43,0x32,0x60,0x81,0x2e,0x00,0x00,0x81,0x27,0x00,0x60,
                        0x81,0x43,0x00,0x00,0x81,0x2c,0x00,0x00,0x81,0x38,0x00,0x00,0x91,0x3a,0x32,0x00,0x91,0x2e,
                        0x32,0x00,0x91,0x27,0x32,0x00,0x91,0x2e,0x32,0x00,0x91,0x44,0x32,0x60,0x81,0x2e,0x00,0x00,
                        0x81,0x27,0x00,0x60,0x81,0x44,0x00,0x00,0x81,0x2e,0x00,0x00,0x81,0x3a,0x00,0x00,0x91,0x3c,
                        0x32,0x00,0x91,0x30,0x32,0x00,0x91,0x27,0x32,0x00,0x91,0x2e,0x32,0x00,0x91,0x46,0x32,0x83,
                        0x00,0x81,0x46,0x00,0x00,0x81,0x30,0x00,0x00,0x81,0x3c,0x00,0x00,0x91,0x37,0x32,0x00,0x91,
                        0x2b,0x32,0x00,0x91,0x3f,0x32,0x83,0x00,0x81,0x3f,0x00,0x00,0x81,0x2b,0x00,0x00,0x81,0x37,
                        0x00,0x00,0x81,0x2e,0x00,0x00,0x81,0x27,0x00,0x00,0x91,0x38,0x32,0x00,0x91,0x2c,0x32,0x00,
                        0x91,0x27,0x32,0x00,0x91,0x2e,0x32,0x00,0x91,0x43,0x32,0x60,0x81,0x2e,0x00,0x00,0x81,0x27,
                        0x00,0x60,0x81,0x43,0x00,0x00,0x81,0x2c,0x00,0x00,0x81,0x38,0x00,0x00,0x91,0x3a,0x32,0x00,
                        0x91,0x2e,0x32,0x00,0x91,0x27,0x32,0x00,0x91,0x2e,0x32,0x00,0x91,0x46,0x32,0x60,0x81,0x2e,
                        0x00,0x00,0x81,0x27,0x00,0x60,0x81,0x46,0x00,0x00,0x81,0x2e,0x00,0x00,0x81,0x3a,0x00,0x00,
                        0x81,0x46,0x00,0x00,0x91,0x3c,0x32,0x00,0x91,0x30,0x32,0x00,0x91,0x29,0x32,0x00,0x91,0x30,
                        0x32,0x00,0x91,0x44,0x32,0x00,0x91,0x48,0x32,0x83,0x00,0x81,0x44,0x00,0x00,0x91,0x3c,0x32,
                        0x83,0x00,0x81,0x3c,0x00,0x00,0x81,0x30,0x00,0x00,0x81,0x29,0x00,0x00,0x91,0x29,0x32,0x00,
                        0x91,0x30,0x32,0x00,0x91,0x41,0x32,0x60,0x81,0x30,0x00,0x00,0x81,0x29,0x00,0x60,0x81,0x41,
                        0x00,0x00,0x91,0x29,0x32,0x00,0x91,0x30,0x32,0x00,0x91,0x43,0x32,0x60,0x81,0x30,0x00,0x00,
                        0x81,0x29,0x00,0x60,0x81,0x43,0x00,0x00,0x91,0x29,0x32,0x00,0x91,0x30,0x32,0x00,0x91,0x44,
                        0x32,0x83,0x00,0x81,0x44,0x00,0x00,0x91,0x3c,0x32,0x83,0x00,0x81,0x3c,0x00,0x00,0x81,0x30,
                        0x00,0x00,0x81,0x29,0x00,0x00,0x91,0x29,0x32,0x00,0x91,0x30,0x32,0x00,0x91,0x41,0x32,0x60,
                        0x81,0x30,0x00,0x00,0x81,0x29,0x00,0x60,0x81,0x41,0x00,0x00,0x91,0x29,0x32,0x00,0x91,0x30,
                        0x32,0x00,0x91,0x44,0x32,0x60,0x81,0x30,0x00,0x00,0x81,0x29,0x00,0x60,0x81,0x44,0x00,0x00,
                        0x81,0x48,0x00,0x00,0x81,0x30,0x00,0x00,0x81,0x3c,0x00,0x00,0x91,0x3c,0x32,0x00,0x91,0x24,
                        0x32,0x00,0x91,0x24,0x32,0x00,0x91,0x2b,0x32,0x00,0x91,0x43,0x32,0x00,0x91,0x4f,0x32,0x83,
                        0x00,0x81,0x43,0x00,0x00,0x91,0x3c,0x32,0x83,0x00,0x81,0x3c,0x00,0x00,0x81,0x2b,0x00,0x00,
                        0x81,0x24,0x00,0x00,0x91,0x24,0x32,0x00,0x91,0x2b,0x32,0x00,0x91,0x3f,0x32,0x60,0x81,0x2b,
                        0x00,0x00,0x81,0x24,0x00,0x60,0x81,0x3f,0x00,0x00,0x91,0x24,0x32,0x00,0x91,0x2b,0x32,0x00,
                        0x91,0x41,0x32,0x60,0x81,0x2b,0x00,0x00,0x81,0x24,0x00,0x60,0x81,0x41,0x00,0x00,0x91,0x24,
                        0x32,0x00,0x91,0x2b,0x32,0x00,0x91,0x43,0x32,0x83,0x00,0x81,0x43,0x00,0x00,0x91,0x3c,0x32,
                        0x83,0x00,0x81,0x3c,0x00,0x00,0x81,0x2b,0x00,0x00,0x81,0x24,0x00,0x00,0x91,0x24,0x32,0x00,
                        0x91,0x2b,0x32,0x00,0x91,0x3f,0x32,0x60,0x81,0x2b,0x00,0x00,0x81,0x24,0x00,0x60,0x81,0x3f,
                        0x00,0x00,0x91,0x24,0x32,0x00,0x91,0x2b,0x32,0x00,0x91,0x41,0x32,0x60,0x81,0x2b,0x00,0x00,
                        0x81,0x24,0x00,0x60,0x81,0x41,0x00,0x00,0x81,0x4f,0x00,0x00,0x81,0x24,0x00,0x00,0x81,0x3c,
                        0x00,0x00,0x91,0x20,0x32,0x00,0x91,0x27,0x32,0x00,0x91,0x3f,0x32,0x00,0x91,0x44,0x32,0x83,
                        0x00,0x81,0x3f,0x00,0x00,0x91,0x38,0x32,0x83,0x00,0x81,0x38,0x00,0x00,0x81,0x27,0x00,0x00,
                        0x81,0x20,0x00,0x00,0x91,0x20,0x32,0x00,0x91,0x27,0x32,0x00,0x91,0x3f,0x32,0x60,0x81,0x27,
                        0x00,0x00,0x81,0x20,0x00,0x60,0x81,0x3f,0x00,0x00,0x91,0x20,0x32,0x00,0x91,0x27,0x32,0x00,
                        0x91,0x3e,0x32,0x60,0x81,0x27,0x00,0x00,0x81,0x20,0x00,0x60,0x81,0x3e,0x00,0x00,0x91,0x20,
                        0x32,0x00,0x91,0x27,0x32,0x00,0x91,0x3f,0x32,0x83,0x00,0x81,0x3f,0x00,0x00,0x91,0x38,0x32,
                        0x83,0x00,0x81,0x38,0x00,0x00,0x81,0x27,0x00,0x00,0x81,0x20,0x00,0x00,0x91,0x20,0x32,0x00,
                        0x91,0x27,0x32,0x00,0x91,0x3c,0x32,0x60,0x81,0x27,0x00,0x00,0x81,0x20,0x00,0x60,0x81,0x3c,
                        0x00,0x00,0x91,0x20,0x32,0x00,0x91,0x27,0x32,0x00,0x91,0x3e,0x32,0x60,0x81,0x27,0x00,0x00,
                        0x81,0x20,0x00,0x60,0x81,0x3e,0x00,0x00,0x81,0x44,0x00,0x00,0x91,0x20,0x32,0x00,0x91,0x27,
                        0x32,0x00,0x91,0x3f,0x32,0x00,0x91,0x3f,0x32,0x81,0x40,0x81,0x27,0x00,0x00,0x81,0x20,0x00,
                        0x81,0x40,0x81,0x3f,0x00,0x00,0x91,0x20,0x32,0x00,0x91,0x27,0x32,0x00,0x91,0x38,0x32,0x81,
                        0x40,0x81,0x27,0x00,0x00,0x81,0x20,0x00,0x81,0x40,0x81,0x38,0x00,0x00,0x91,0x20,0x32,0x00,
                        0x91,0x27,0x32,0x00,0x91,0x3e,0x32,0x81,0x40,0x81,0x3e,0x00,0x00,0x81,0x27,0x00,0x00,0x81,
                        0x20,0x00,0x00,0x91,0x3f,0x32,0x81,0x40,0x81,0x3f,0x00,0x00,0x81,0x3f,0x00,0x00,0x91,0x1f,
                        0x32,0x00,0x91,0x26,0x32,0x00,0x91,0x41,0x32,0x00,0x91,0x3e,0x32,0x00,0x91,0x41,0x32,0x81,
                        0x40,0x81,0x26,0x00,0x00,0x81,0x1f,0x00,0x81,0x40,0x81,0x41,0x00,0x00,0x91,0x1f,0x32,0x00,
                        0x91,0x26,0x32,0x00,0x91,0x3a,0x32,0x81,0x40,0x81,0x26,0x00,0x00,0x81,0x1f,0x00,0x81,0x40,
                        0x81,0x3a,0x00,0x00,0x91,0x1f,0x32,0x00,0x91,0x26,0x32,0x00,0x91,0x3f,0x32,0x81,0x40,0x81,
                        0x3f,0x00,0x00,0x81,0x26,0x00,0x00,0x81,0x1f,0x00,0x00,0x91,0x41,0x32,0x81,0x40,0x81,0x41,
                        0x00,0x00,0x81,0x41,0x00,0x00,0x81,0x3e,0x00,0x00,0x91,0x24,0x32,0x00,0x91,0x2b,0x32,0x00,
                        0x91,0x54,0x32,0x00,0x91,0x48,0x32,0x83,0x00,0x81,0x54,0x00,0x00,0x91,0x4f,0x32,0x83,0x00,
                        0x81,0x4f,0x00,0x00,0x81,0x2b,0x00,0x00,0x81,0x24,0x00,0x00,0x91,0x24,0x32,0x00,0x91,0x2b,
                        0x32,0x00,0x91,0x50,0x32,0x60,0x81,0x2b,0x00,0x00,0x81,0x24,0x00,0x60,0x81,0x50,0x00,0x00,
                        0x91,0x24,0x32,0x00,0x91,0x2b,0x32,0x00,0x91,0x52,0x32,0x60,0x81,0x2b,0x00,0x00,0x81,0x24,
                        0x00,0x60,0x81,0x52,0x00,0x00,0x91,0x24,0x32,0x00,0x91,0x2b,0x32,0x00,0x91,0x54,0x32,0x83,
                        0x00,0x81,0x54,0x00,0x00,0x91,0x4f,0x32,0x83,0x00,0x81,0x4f,0x00,0x00,0x81,0x2b,0x00,0x00,
                        0x81,0x24,0x00,0x00,0x91,0x24,0x32,0x00,0x91,0x2b,0x32,0x00,0x91,0x50,0x32,0x60,0x81,0x2b,
                        0x00,0x00,0x81,0x24,0x00,0x60,0x81,0x50,0x00,0x00,0x91,0x24,0x32,0x00,0x91,0x2b,0x32,0x00,
                        0x91,0x52,0x32,0x60,0x81,0x2b,0x00,0x00,0x81,0x24,0x00,0x60,0x81,0x52,0x00,0x00,0x91,0x24,
                        0x32,0x00,0x91,0x2b,0x32,0x00,0x91,0x54,0x32,0x83,0x00,0x81,0x54,0x00,0x00,0x91,0x4f,0x32,
                        0x83,0x00,0x81,0x4f,0x00,0x00,0x81,0x2b,0x00,0x00,0x81,0x24,0x00,0x00,0x91,0x24,0x32,0x00,
                        0x91,0x2b,0x32,0x00,0x91,0x50,0x32,0x60,0x81,0x2b,0x00,0x00,0x81,0x24,0x00,0x60,0x81,0x50,
                        0x00,0x00,0x91,0x24,0x32,0x00,0x91,0x2b,0x32,0x00,0x91,0x52,0x32,0x60,0x81,0x2b,0x00,0x00,
                        0x81,0x24,0x00,0x60,0x81,0x52,0x00,0x00,0x91,0x24,0x32,0x00,0x91,0x2b,0x32,0x00,0x91,0x54,
                        0x32,0x83,0x00,0x81,0x54,0x00,0x00,0x91,0x4f,0x32,0x83,0x00,0x81,0x4f,0x00,0x00,0x81,0x2b,
                        0x00,0x00,0x81,0x24,0x00,0x00,0x91,0x24,0x32,0x00,0x91,0x2b,0x32,0x00,0x91,0x50,0x32,0x60,
                        0x81,0x2b,0x00,0x00,0x81,0x24,0x00,0x60,0x81,0x50,0x00,0x00,0x91,0x24,0x32,0x00,0x91,0x2b,
                        0x32,0x00,0x91,0x52,0x32,0x60,0x81,0x2b,0x00,0x00,0x81,0x24,0x00,0x60,0x81,0x52,0x00,0x00,
                        0x81,0x48,0x00,0x00,0x91,0x24,0x32,0x00,0x91,0x48,0x32,0x00,0x91,0x54,0x32,0x83,0x00,0x81,
                        0x48,0x00,0x00,0x91,0x43,0x32,0x81,0x40,0x81,0x54,0x00,0x81,0x40,0x81,0x43,0x00,0x00,0x91,
                        0x44,0x32,0x81,0x40,0x81,0x44,0x00,0x00,0x91,0x46,0x32,0x81,0x40,0x81,0x46,0x00,0x00,0x91,
                        0x48,0x32,0x00,0x91,0x54,0x32,0x83,0x00,0x81,0x48,0x00,0x00,0x91,0x43,0x32,0x81,0x40,0x81,
                        0x54,0x00,0x81,0x40,0x81,0x43,0x00,0x00,0x91,0x44,0x32,0x81,0x40,0x81,0x44,0x00,0x00,0x91,
                        0x46,0x32,0x60,0x81,0x24,0x00,0x60,0x81,0x46,0x00,0x00,0x91,0x48,0x32,0x00,0x91,0x54,0x32,
                        0x83,0x00,0x81,0x48,0x00,0x00,0x91,0x43,0x32,0x81,0x40,0x81,0x54,0x00,0x81,0x40,0x81,0x43,
                        0x00,0x00,0x91,0x44,0x32,0x81,0x40,0x81,0x44,0x00,0x00,0x91,0x46,0x32,0x81,0x40,0x81,0x46,
                        0x00,0x00,0x91,0x48,0x32,0x00,0x91,0x54,0x32,0x83,0x00,0x81,0x54,0x00,0x00,0x81,0x48,0x00,
                        0x00,0x91,0x43,0x32,0x00,0x91,0x4f,0x32,0x83,0x00,0x81,0x4f,0x00,0x00,0x81,0x43,0x00,0x00,
                        0x91,0x44,0x32,0x00,0x91,0x50,0x32,0x81,0x40,0x81,0x50,0x00,0x00,0x81,0x44,0x00,0x00,0x91,
                        0x46,0x32,0x00,0x91,0x52,0x32,0x81,0x40,0x81,0x52,0x00,0x00,0x81,0x46,0x00,0x00,0xff,0x2f,
                        0x00,0x4d,0x54,0x72,0x6b,0x00,0x00,0x0b,0x26,0x00,0xff,0x03,0x0a,0x38,0x2d,0x42,0x69,0x74,
                        0x20,0x53,0x69,0x6e,0x65,0x00,0xc2,0x52,0x00,0x92,0x43,0x32,0x83,0x00,0x82,0x43,0x00,0x00,
                        0x92,0x3c,0x32,0x83,0x00,0x82,0x3c,0x00,0x00,0x92,0x3f,0x32,0x81,0x40,0x82,0x3f,0x00,0x00,
                        0x92,0x41,0x32,0x81,0x40,0x82,0x41,0x00,0x00,0x92,0x43,0x32,0x83,0x00,0x82,0x43,0x00,0x00,
                        0x92,0x3c,0x32,0x83,0x00,0x82,0x3c,0x00,0x00,0x92,0x3f,0x32,0x81,0x40,0x82,0x3f,0x00,0x00,
                        0x92,0x41,0x32,0x81,0x40,0x82,0x41,0x00,0x00,0x92,0x43,0x32,0x83,0x00,0x82,0x43,0x00,0x00,
                        0x92,0x3c,0x32,0x83,0x00,0x82,0x3c,0x00,0x00,0x92,0x3f,0x32,0x81,0x40,0x82,0x3f,0x00,0x00,
                        0x92,0x41,0x32,0x81,0x40,0x82,0x41,0x00,0x00,0x92,0x43,0x32,0x83,0x00,0x82,0x43,0x00,0x00,
                        0x92,0x3c,0x32,0x83,0x00,0x82,0x3c,0x00,0x00,0x92,0x3f,0x32,0x81,0x40,0x82,0x3f,0x00,0x00,
                        0x92,0x41,0x32,0x81,0x40,0x82,0x41,0x00,0x00,0x92,0x43,0x32,0x83,0x00,0x82,0x43,0x00,0x00,
                        0x92,0x3c,0x32,0x83,0x00,0x82,0x3c,0x00,0x00,0x92,0x40,0x32,0x81,0x40,0x82,0x40,0x00,0x00,
                        0x92,0x41,0x32,0x81,0x40,0x82,0x41,0x00,0x00,0x92,0x43,0x32,0x83,0x00,0x82,0x43,0x00,0x00,
                        0x92,0x3c,0x32,0x83,0x00,0x82,0x3c,0x00,0x00,0x92,0x40,0x32,0x81,0x40,0x82,0x40,0x00,0x00,
                        0x92,0x41,0x32,0x81,0x40,0x82,0x41,0x00,0x00,0x92,0x43,0x32,0x83,0x00,0x82,0x43,0x00,0x00,
                        0x92,0x3c,0x32,0x83,0x00,0x82,0x3c,0x00,0x00,0x92,0x40,0x32,0x81,0x40,0x82,0x40,0x00,0x00,
                        0x92,0x41,0x32,0x81,0x40,0x82,0x41,0x00,0x00,0x92,0x43,0x32,0x83,0x00,0x82,0x43,0x00,0x00,
                        0x92,0x3c,0x32,0x83,0x00,0x82,0x3c,0x00,0x00,0x92,0x40,0x32,0x81,0x40,0x82,0x40,0x00,0x00,
                        0x92,0x41,0x32,0x81,0x40,0x82,0x41,0x00,0x00,0x92,0x43,0x32,0x88,0x20,0x82,0x43,0x00,0x60,
                        0x92,0x3c,0x32,0x88,0x20,0x82,0x3c,0x00,0x60,0x92,0x3c,0x32,0x00,0x92,0x3f,0x32,0x81,0x40,
                        0x82,0x3f,0x00,0x00,0x82,0x3c,0x00,0x00,0x92,0x41,0x32,0x81,0x40,0x82,0x41,0x00,0x00,0x92,
                        0x43,0x32,0x86,0x00,0x82,0x43,0x00,0x00,0x92,0x3c,0x32,0x86,0x00,0x82,0x3c,0x00,0x00,0x92,
                        0x3f,0x32,0x81,0x40,0x82,0x3f,0x00,0x00,0x92,0x41,0x32,0x81,0x40,0x82,0x41,0x00,0x00,0x92,
                        0x3a,0x32,0x00,0x92,0x3e,0x32,0x83,0x00,0x82,0x3e,0x00,0x00,0x82,0x3a,0x00,0x00,0x92,0x37,
                        0x32,0x83,0x00,0x82,0x37,0x00,0x00,0x92,0x3a,0x32,0x81,0x40,0x82,0x3a,0x00,0x00,0x92,0x3c,
                        0x32,0x81,0x40,0x82,0x3c,0x00,0x00,0x92,0x3e,0x32,0x83,0x00,0x82,0x3e,0x00,0x00,0x92,0x37,
                        0x32,0x83,0x00,0x82,0x37,0x00,0x00,0x92,0x3a,0x32,0x81,0x40,0x82,0x3a,0x00,0x00,0x92,0x3c,
                        0x32,0x81,0x40,0x82,0x3c,0x00,0x00,0x92,0x3a,0x32,0x00,0x92,0x3e,0x32,0x83,0x00,0x82,0x3e,
                        0x00,0x00,0x82,0x3a,0x00,0x00,0x92,0x37,0x32,0x83,0x00,0x82,0x37,0x00,0x00,0x92,0x3a,0x32,
                        0x81,0x40,0x82,0x3a,0x00,0x00,0x92,0x3c,0x32,0x81,0x40,0x82,0x3c,0x00,0x00,0x92,0x3e,0x32,
                        0x83,0x00,0x82,0x3e,0x00,0x00,0x92,0x37,0x32,0x81,0x40,0x82,0x37,0x00,0x81,0x40,0x92,0x3a,
                        0x32,0x81,0x40,0x82,0x3a,0x00,0x81,0x40,0x92,0x41,0x32,0x88,0x20,0x82,0x41,0x00,0x60,0x92,
                        0x3a,0x32,0x88,0x20,0x82,0x3a,0x00,0x60,0x92,0x3a,0x32,0x00,0x92,0x3f,0x32,0x81,0x40,0x82,
                        0x3f,0x00,0x00,0x82,0x3a,0x00,0x00,0x92,0x3e,0x32,0x81,0x40,0x82,0x3e,0x00,0x00,0x92,0x41,
                        0x32,0x86,0x00,0x82,0x41,0x00,0x00,0x92,0x3a,0x32,0x86,0x00,0x82,0x3a,0x00,0x00,0x92,0x3f,
                        0x32,0x81,0x40,0x82,0x3f,0x00,0x00,0x92,0x3e,0x32,0x81,0x40,0x82,0x3e,0x00,0x00,0x92,0x38,
                        0x32,0x00,0x92,0x3c,0x32,0x83,0x00,0x82,0x3c,0x00,0x00,0x82,0x38,0x00,0x00,0x92,0x35,0x32,
                        0x83,0x00,0x82,0x35,0x00,0x00,0x92,0x38,0x32,0x81,0x40,0x82,0x38,0x00,0x00,0x92,0x3a,0x32,
                        0x81,0x40,0x82,0x3a,0x00,0x00,0x92,0x3c,0x32,0x83,0x00,0x82,0x3c,0x00,0x00,0x92,0x35,0x32,
                        0x83,0x00,0x82,0x35,0x00,0x00,0x92,0x38,0x32,0x81,0x40,0x82,0x38,0x00,0x00,0x92,0x3a,0x32,
                        0x81,0x40,0x82,0x3a,0x00,0x00,0x92,0x38,0x32,0x00,0x92,0x3c,0x32,0x83,0x00,0x82,0x3c,0x00,
                        0x00,0x82,0x38,0x00,0x00,0x92,0x35,0x32,0x83,0x00,0x82,0x35,0x00,0x00,0x92,0x38,0x32,0x81,
                        0x40,0x82,0x38,0x00,0x00,0x92,0x3a,0x32,0x81,0x40,0x82,0x3a,0x00,0x00,0x92,0x3c,0x32,0x83,
                        0x00,0x82,0x3c,0x00,0x00,0x92,0x35,0x32,0x81,0x40,0x82,0x35,0x00,0x81,0x40,0x92,0x38,0x32,
                        0x81,0x40,0x82,0x38,0x00,0x81,0x40,0x92,0x43,0x32,0x88,0x20,0x82,0x43,0x00,0x60,0x92,0x3c,
                        0x32,0x88,0x20,0x82,0x3c,0x00,0x60,0x92,0x3c,0x32,0x00,0x92,0x3f,0x32,0x81,0x40,0x82,0x3f,
                        0x00,0x00,0x82,0x3c,0x00,0x00,0x92,0x41,0x32,0x81,0x40,0x82,0x41,0x00,0x00,0x92,0x43,0x32,
                        0x86,0x00,0x82,0x43,0x00,0x00,0x92,0x3c,0x32,0x86,0x00,0x82,0x3c,0x00,0x00,0x92,0x3f,0x32,
                        0x81,0x40,0x82,0x3f,0x00,0x00,0x92,0x41,0x32,0x81,0x40,0x82,0x41,0x00,0x00,0x92,0x3a,0x32,
                        0x00,0x92,0x3e,0x32,0x83,0x00,0x82,0x3e,0x00,0x00,0x82,0x3a,0x00,0x00,0x92,0x37,0x32,0x83,
                        0x00,0x82,0x37,0x00,0x00,0x92,0x3a,0x32,0x81,0x40,0x82,0x3a,0x00,0x00,0x92,0x3c,0x32,0x81,
                        0x40,0x82,0x3c,0x00,0x00,0x92,0x3e,0x32,0x83,0x00,0x82,0x3e,0x00,0x00,0x92,0x37,0x32,0x83,
                        0x00,0x82,0x37,0x00,0x00,0x92,0x3a,0x32,0x81,0x40,0x82,0x3a,0x00,0x00,0x92,0x3c,0x32,0x81,
                        0x40,0x82,0x3c,0x00,0x00,0x92,0x3a,0x32,0x00,0x92,0x3e,0x32,0x83,0x00,0x82,0x3e,0x00,0x00,
                        0x82,0x3a,0x00,0x00,0x92,0x37,0x32,0x83,0x00,0x82,0x37,0x00,0x00,0x92,0x3a,0x32,0x81,0x40,
                        0x82,0x3a,0x00,0x00,0x92,0x3c,0x32,0x81,0x40,0x82,0x3c,0x00,0x00,0x92,0x3e,0x32,0x83,0x00,
                        0x82,0x3e,0x00,0x00,0x92,0x37,0x32,0x81,0x40,0x82,0x37,0x00,0x81,0x40,0x92,0x3a,0x32,0x81,
                        0x40,0x82,0x3a,0x00,0x81,0x40,0x92,0x41,0x32,0x88,0x20,0x82,0x41,0x00,0x60,0x92,0x3a,0x32,
                        0x88,0x20,0x82,0x3a,0x00,0x60,0x92,0x3a,0x32,0x00,0x92,0x3f,0x32,0x81,0x40,0x82,0x3f,0x00,
                        0x00,0x82,0x3a,0x00,0x00,0x92,0x3e,0x32,0x81,0x40,0x82,0x3e,0x00,0x00,0x92,0x41,0x32,0x86,
                        0x00,0x82,0x41,0x00,0x00,0x92,0x3a,0x32,0x86,0x00,0x82,0x3a,0x00,0x00,0x92,0x3f,0x32,0x81,
                        0x40,0x82,0x3f,0x00,0x00,0x92,0x3e,0x32,0x81,0x40,0x82,0x3e,0x00,0x00,0x92,0x38,0x32,0x00,
                        0x92,0x3c,0x32,0x83,0x00,0x82,0x3c,0x00,0x00,0x82,0x38,0x00,0x00,0x92,0x37,0x32,0x83,0x00,
                        0x82,0x37,0x00,0x00,0x92,0x38,0x32,0x81,0x40,0x82,0x38,0x00,0x00,0x92,0x3a,0x32,0x81,0x40,
                        0x82,0x3a,0x00,0x00,0x92,0x3c,0x32,0x83,0x00,0x82,0x3c,0x00,0x00,0x92,0x37,0x32,0x83,0x00,
                        0x82,0x37,0x00,0x00,0x92,0x38,0x32,0x81,0x40,0x82,0x38,0x00,0x00,0x92,0x3a,0x32,0x81,0x40,
                        0x82,0x3a,0x00,0x00,0x92,0x38,0x32,0x00,0x92,0x3c,0x32,0x83,0x00,0x82,0x3c,0x00,0x00,0x82,
                        0x38,0x00,0x00,0x92,0x37,0x32,0x83,0x00,0x82,0x37,0x00,0x00,0x92,0x38,0x32,0x81,0x40,0x82,
                        0x38,0x00,0x00,0x92,0x3a,0x32,0x81,0x40,0x82,0x3a,0x00,0x00,0x92,0x3c,0x32,0x83,0x00,0x82,
                        0x3c,0x00,0x00,0x92,0x37,0x32,0x81,0x40,0x82,0x37,0x00,0x81,0x40,0x92,0x3c,0x32,0x81,0x40,
                        0x82,0x3c,0x00,0x81,0x40,0x92,0x43,0x32,0x88,0x20,0x82,0x43,0x00,0x60,0x92,0x3c,0x32,0x88,
                        0x20,0x82,0x3c,0x00,0x60,0x92,0x3c,0x32,0x00,0x92,0x3f,0x32,0x81,0x40,0x82,0x3f,0x00,0x00,
                        0x82,0x3c,0x00,0x00,0x92,0x41,0x32,0x81,0x40,0x82,0x41,0x00,0x00,0x92,0x43,0x32,0x86,0x00,
                        0x82,0x43,0x00,0x00,0x92,0x3c,0x32,0x86,0x00,0x82,0x3c,0x00,0x00,0x92,0x3f,0x32,0x81,0x40,
                        0x82,0x3f,0x00,0x00,0x92,0x41,0x32,0x81,0x40,0x82,0x41,0x00,0x00,0x92,0x3e,0x32,0x86,0x00,
                        0x82,0x3e,0x00,0x00,0x92,0x3a,0x32,0x81,0x40,0x82,0x3a,0x00,0x00,0x92,0x3c,0x32,0x81,0x40,
                        0x82,0x3c,0x00,0x00,0x92,0x3e,0x32,0x86,0x00,0x82,0x3e,0x00,0x00,0x92,0x3a,0x32,0x81,0x40,
                        0x82,0x3a,0x00,0x00,0x92,0x3c,0x32,0x81,0x40,0x82,0x3c,0x00,0x00,0x92,0x3e,0x32,0x86,0x00,
                        0x82,0x3e,0x00,0x00,0x92,0x3a,0x32,0x81,0x40,0x82,0x3a,0x00,0x00,0x92,0x3c,0x32,0x81,0x40,
                        0x82,0x3c,0x00,0x00,0x92,0x3e,0x32,0x83,0x00,0x82,0x3e,0x00,0x00,0x92,0x3a,0x32,0x81,0x40,
                        0x82,0x3a,0x00,0x81,0x40,0x92,0x3e,0x32,0x81,0x40,0x82,0x3e,0x00,0x81,0x40,0x92,0x41,0x32,
                        0x88,0x20,0x82,0x41,0x00,0x60,0x92,0x3a,0x32,0x88,0x20,0x82,0x3a,0x00,0x60,0x92,0x3e,0x32,
                        0x86,0x00,0x82,0x3e,0x00,0x00,0x92,0x3f,0x32,0x83,0x00,0x82,0x3f,0x00,0x00,0x92,0x3e,0x32,
                        0x88,0x20,0x82,0x3e,0x00,0x60,0x92,0x3c,0x32,0x83,0x00,0x82,0x3c,0x00,0x00,0x92,0x37,0x32,
                        0x83,0x00,0x82,0x37,0x00,0x00,0x92,0x38,0x32,0x81,0x40,0x82,0x38,0x00,0x00,0x92,0x3a,0x32,
                        0x81,0x40,0x82,0x3a,0x00,0x00,0x92,0x3c,0x32,0x83,0x00,0x82,0x3c,0x00,0x00,0x92,0x37,0x32,
                        0x83,0x00,0x82,0x37,0x00,0x00,0x92,0x38,0x32,0x81,0x40,0x82,0x38,0x00,0x00,0x92,0x3a,0x32,
                        0x81,0x40,0x82,0x3a,0x00,0x00,0x92,0x3c,0x32,0x83,0x00,0x82,0x3c,0x00,0x00,0x92,0x37,0x32,
                        0x83,0x00,0x82,0x37,0x00,0x00,0x92,0x38,0x32,0x81,0x40,0x82,0x38,0x00,0x00,0x92,0x3a,0x32,
                        0x81,0x40,0x82,0x3a,0x00,0x00,0x92,0x37,0x32,0x00,0x92,0x3c,0x32,0x83,0x00,0x82,0x3c,0x00,
                        0x00,0x82,0x37,0x00,0x00,0x92,0x37,0x32,0x00,0x92,0x3c,0x32,0x83,0x00,0x82,0x3c,0x00,0x00,
                        0x82,0x37,0x00,0x00,0x92,0x37,0x32,0x00,0x92,0x3c,0x32,0x81,0x40,0x82,0x3c,0x00,0x00,0x82,
                        0x37,0x00,0x81,0x40,0x92,0x48,0x32,0x83,0x00,0x82,0x48,0x00,0x00,0x92,0x3f,0x32,0x83,0x00,
                        0x82,0x3f,0x00,0x00,0x92,0x44,0x32,0x81,0x40,0x82,0x44,0x00,0x00,0x92,0x46,0x32,0x81,0x40,
                        0x82,0x46,0x00,0x00,0x92,0x48,0x32,0x83,0x00,0x82,0x48,0x00,0x00,0x92,0x3f,0x32,0x83,0x00,
                        0x82,0x3f,0x00,0x00,0x92,0x44,0x32,0x81,0x40,0x82,0x44,0x00,0x00,0x92,0x48,0x32,0x81,0x40,
                        0x82,0x48,0x00,0x00,0x92,0x46,0x32,0x83,0x00,0x82,0x46,0x00,0x00,0x92,0x3f,0x32,0x83,0x00,
                        0x82,0x3f,0x00,0x00,0x92,0x43,0x32,0x81,0x40,0x82,0x43,0x00,0x00,0x92,0x44,0x32,0x81,0x40,
                        0x82,0x44,0x00,0x00,0x92,0x46,0x32,0x83,0x00,0x82,0x46,0x00,0x00,0x92,0x3f,0x32,0x83,0x00,
                        0x82,0x3f,0x00,0x00,0x92,0x43,0x32,0x81,0x40,0x82,0x43,0x00,0x00,0x92,0x46,0x32,0x81,0x40,
                        0x82,0x46,0x00,0x00,0x92,0x44,0x32,0x83,0x00,0x82,0x44,0x00,0x00,0x92,0x3c,0x32,0x83,0x00,
                        0x82,0x3c,0x00,0x00,0x92,0x41,0x32,0x81,0x40,0x82,0x41,0x00,0x00,0x92,0x43,0x32,0x81,0x40,
                        0x82,0x43,0x00,0x00,0x92,0x44,0x32,0x83,0x00,0x82,0x44,0x00,0x00,0x92,0x3c,0x32,0x83,0x00,
                        0x82,0x3c,0x00,0x00,0x92,0x43,0x32,0x81,0x40,0x82,0x43,0x00,0x00,0x92,0x44,0x32,0x81,0x40,
                        0x82,0x44,0x00,0x00,0x92,0x43,0x32,0x83,0x00,0x82,0x43,0x00,0x00,0x92,0x3c,0x32,0x83,0x00,
                        0x82,0x3c,0x00,0x00,0x92,0x3f,0x32,0x81,0x40,0x82,0x3f,0x00,0x00,0x92,0x41,0x32,0x81,0x40,
                        0x82,0x41,0x00,0x00,0x92,0x43,0x32,0x83,0x00,0x82,0x43,0x00,0x00,0x92,0x3c,0x32,0x83,0x00,
                        0x82,0x3c,0x00,0x00,0x92,0x3f,0x32,0x81,0x40,0x82,0x3f,0x00,0x00,0x92,0x41,0x32,0x81,0x40,
                        0x82,0x41,0x00,0x00,0x92,0x3f,0x32,0x83,0x00,0x82,0x3f,0x00,0x00,0x92,0x38,0x32,0x83,0x00,
                        0x82,0x38,0x00,0x00,0x92,0x3c,0x32,0x81,0x40,0x82,0x3c,0x00,0x00,0x92,0x3e,0x32,0x81,0x40,
                        0x82,0x3e,0x00,0x00,0x92,0x3f,0x32,0x83,0x00,0x82,0x3f,0x00,0x00,0x92,0x38,0x32,0x83,0x00,
                        0x82,0x38,0x00,0x00,0x92,0x3c,0x32,0x81,0x40,0x82,0x3c,0x00,0x00,0x92,0x3e,0x32,0x81,0x40,
                        0x82,0x3e,0x00,0x00,0x92,0x3f,0x32,0x83,0x00,0x82,0x3f,0x00,0x00,0x92,0x38,0x32,0x81,0x40,
                        0x82,0x38,0x00,0x81,0x40,0x92,0x3f,0x32,0x81,0x40,0x82,0x3f,0x00,0x81,0x40,0x92,0x41,0x32,
                        0x83,0x00,0x82,0x41,0x00,0x00,0x92,0x3f,0x32,0x81,0x40,0x82,0x3f,0x00,0x81,0x40,0x92,0x41,
                        0x32,0x81,0x40,0x82,0x41,0x00,0x81,0x40,0x92,0x43,0x32,0x83,0x00,0x82,0x43,0x00,0x00,0x92,
                        0x3c,0x32,0x83,0x00,0x82,0x3c,0x00,0x00,0x92,0x3f,0x32,0x81,0x40,0x82,0x3f,0x00,0x00,0x92,
                        0x41,0x32,0x81,0x40,0x82,0x41,0x00,0x00,0x92,0x43,0x32,0x83,0x00,0x82,0x43,0x00,0x00,0x92,
                        0x3c,0x32,0x83,0x00,0x82,0x3c,0x00,0x00,0x92,0x3f,0x32,0x81,0x40,0x82,0x3f,0x00,0x00,0x92,
                        0x41,0x32,0x81,0x40,0x82,0x41,0x00,0x00,0x92,0x43,0x32,0x83,0x00,0x82,0x43,0x00,0x00,0x92,
                        0x3c,0x32,0x83,0x00,0x82,0x3c,0x00,0x00,0x92,0x3f,0x32,0x81,0x40,0x82,0x3f,0x00,0x00,0x92,
                        0x41,0x32,0x81,0x40,0x82,0x41,0x00,0x00,0x92,0x43,0x32,0x83,0x00,0x82,0x43,0x00,0x00,0x92,
                        0x44,0x32,0x83,0x00,0x82,0x44,0x00,0x00,0x92,0x46,0x32,0x83,0x00,0x82,0x46,0x00,0x00,0x92,
                        0x48,0x32,0x83,0x00,0x82,0x48,0x00,0x00,0x92,0x3f,0x32,0x83,0x00,0x82,0x3f,0x00,0x00,0x92,
                        0x44,0x32,0x81,0x40,0x82,0x44,0x00,0x00,0x92,0x46,0x32,0x81,0x40,0x82,0x46,0x00,0x00,0x92,
                        0x48,0x32,0x83,0x00,0x82,0x48,0x00,0x00,0x92,0x3f,0x32,0x83,0x00,0x82,0x3f,0x00,0x00,0x92,
                        0x44,0x32,0x81,0x40,0x82,0x44,0x00,0x00,0x92,0x48,0x32,0x81,0x40,0x82,0x48,0x00,0x00,0x92,
                        0x46,0x32,0x83,0x00,0x82,0x46,0x00,0x00,0x92,0x3f,0x32,0x83,0x00,0x82,0x3f,0x00,0x00,0x92,
                        0x43,0x32,0x81,0x40,0x82,0x43,0x00,0x00,0x92,0x44,0x32,0x81,0x40,0x82,0x44,0x00,0x00,0x92,
                        0x46,0x32,0x83,0x00,0x82,0x46,0x00,0x00,0x92,0x3f,0x32,0x81,0x40,0x82,0x3f,0x00,0x81,0x40,
                        0x92,0x43,0x32,0x81,0x40,0x82,0x43,0x00,0x81,0x40,0x92,0x44,0x32,0x83,0x00,0x82,0x44,0x00,
                        0x00,0x92,0x3c,0x32,0x83,0x00,0x82,0x3c,0x00,0x00,0x92,0x41,0x32,0x81,0x40,0x82,0x41,0x00,
                        0x00,0x92,0x43,0x32,0x81,0x40,0x82,0x43,0x00,0x00,0x92,0x44,0x32,0x83,0x00,0x82,0x44,0x00,
                        0x00,0x92,0x3c,0x32,0x83,0x00,0x82,0x3c,0x00,0x00,0x92,0x43,0x32,0x81,0x40,0x82,0x43,0x00,
                        0x00,0x92,0x44,0x32,0x81,0x40,0x82,0x44,0x00,0x00,0x92,0x43,0x32,0x83,0x00,0x82,0x43,0x00,
                        0x00,0x92,0x3c,0x32,0x83,0x00,0x82,0x3c,0x00,0x00,0x92,0x3f,0x32,0x81,0x40,0x82,0x3f,0x00,
                        0x00,0x92,0x41,0x32,0x81,0x40,0x82,0x41,0x00,0x00,0x92,0x43,0x32,0x83,0x00,0x82,0x43,0x00,
                        0x00,0x92,0x3c,0x32,0x81,0x40,0x82,0x3c,0x00,0x81,0x40,0x92,0x3e,0x32,0x81,0x40,0x82,0x3e,
                        0x00,0x81,0x40,0x92,0x3f,0x32,0x83,0x00,0x82,0x3f,0x00,0x00,0x92,0x38,0x32,0x83,0x00,0x82,
                        0x38,0x00,0x00,0x92,0x3c,0x32,0x81,0x40,0x82,0x3c,0x00,0x00,0x92,0x3e,0x32,0x81,0x40,0x82,
                        0x3e,0x00,0x00,0x92,0x3f,0x32,0x83,0x00,0x82,0x3f,0x00,0x00,0x92,0x38,0x32,0x83,0x00,0x82,
                        0x38,0x00,0x00,0x92,0x3c,0x32,0x81,0x40,0x82,0x3c,0x00,0x00,0x92,0x3e,0x32,0x81,0x40,0x82,
                        0x3e,0x00,0x00,0x92,0x3f,0x32,0x83,0x00,0x82,0x3f,0x00,0x00,0x92,0x38,0x32,0x81,0x40,0x82,
                        0x38,0x00,0x81,0x40,0x92,0x3f,0x32,0x81,0x40,0x82,0x3f,0x00,0x81,0x40,0x92,0x3e,0x32,0x83,
                        0x00,0x82,0x3e,0x00,0x00,0x92,0x37,0x32,0x81,0x40,0x82,0x37,0x00,0x81,0x40,0x92,0x3e,0x32,
                        0x81,0x40,0x82,0x3e,0x00,0x81,0x40,0x92,0x3c,0x32,0x83,0x00,0x82,0x3c,0x00,0x00,0x92,0x37,
                        0x32,0x83,0x00,0x82,0x37,0x00,0x00,0x92,0x38,0x32,0x81,0x40,0x82,0x38,0x00,0x00,0x92,0x3a,
                        0x32,0x81,0x40,0x82,0x3a,0x00,0x00,0x92,0x3c,0x32,0x83,0x00,0x82,0x3c,0x00,0x00,0x92,0x37,
                        0x32,0x83,0x00,0x82,0x37,0x00,0x00,0x92,0x38,0x32,0x81,0x40,0x82,0x38,0x00,0x00,0x92,0x3a,
                        0x32,0x81,0x40,0x82,0x3a,0x00,0x00,0x92,0x3c,0x32,0x83,0x00,0x82,0x3c,0x00,0x00,0x92,0x37,
                        0x32,0x83,0x00,0x82,0x37,0x00,0x00,0x92,0x38,0x32,0x81,0x40,0x82,0x38,0x00,0x00,0x92,0x3a,
                        0x32,0x81,0x40,0x82,0x3a,0x00,0x00,0x92,0x3c,0x32,0x83,0x00,0x82,0x3c,0x00,0x00,0x92,0x37,
                        0x32,0x83,0x00,0x82,0x37,0x00,0x00,0x92,0x38,0x32,0x81,0x40,0x82,0x38,0x00,0x00,0x92,0x3a,
                        0x32,0x81,0x40,0x82,0x3a,0x00,0x00,0x92,0x3c,0x32,0x83,0x00,0x82,0x3c,0x00,0x00,0x92,0x43,
                        0x32,0x83,0x00,0x82,0x43,0x00,0x00,0x92,0x44,0x32,0x81,0x40,0x82,0x44,0x00,0x00,0x92,0x46,
                        0x32,0x81,0x40,0x82,0x46,0x00,0x00,0x92,0x48,0x32,0x83,0x00,0x82,0x48,0x00,0x00,0x92,0x43,
                        0x32,0x83,0x00,0x82,0x43,0x00,0x00,0x92,0x44,0x32,0x81,0x40,0x82,0x44,0x00,0x00,0x92,0x46,
                        0x32,0x81,0x40,0x82,0x46,0x00,0x00,0x92,0x48,0x32,0x83,0x00,0x82,0x48,0x00,0x00,0x92,0x43,
                        0x32,0x83,0x00,0x82,0x43,0x00,0x00,0x92,0x44,0x32,0x81,0x40,0x82,0x44,0x00,0x00,0x92,0x46,
                        0x32,0x81,0x40,0x82,0x46,0x00,0x00,0x92,0x48,0x32,0x88,0x20,0x82,0x48,0x00,0x00,0xff,0x2f,
                        0x00};

// Convenience list of all the songs in one array.
song songs[] = {{song0, sizeof (song0)}, {song1, sizeof (song1)}, {song2, sizeof (song2)}, {song3, sizeof (song3)},
				{song4, sizeof (song4)}};

song get_song (uint8_t song_number){
	return songs[song_number];
}
